<svg xmlns="http://www.w3.org/2000/svg" width="189" height="37" viewBox="0 0 189 37" fill="none">
    <style>
        @media (prefers-color-scheme: dark) {
        .light-logo { display: none; }
        .dark-logo { display: block; }
        }
        @media (prefers-color-scheme: light) {
        .light-logo { display: block; }
        .dark-logo { display: none; }
        }
    </style>
    <g class="light-logo">
        <path d="M35.8 16.2551L8.99998 29.3451V24.8951M8.99998 24.8951L26.8984 16.1451L8.99998 7.40503V16.0248V24.8951Z" stroke="black"/>
        <path d="M5 1V35.75M5 1L1 4.475V32.275L5 35.75M5 1L35.5 15.885V20.855L5 35.75" stroke="black"/>
        <path d="M8.96486 11.8398L22.3867 18.3945" stroke="black"/>
        <path d="M47.7727 29H44.8182L53.3636 5.72727H56.2727L64.8182 29H61.8636L54.9091 9.40909H54.7273L47.7727 29ZM48.8636 19.9091H60.7727V22.4091H48.8636V19.9091ZM75.1705 29.3636C73.5341 29.3636 72.125 28.9773 70.9432 28.2045C69.7614 27.4318 68.8523 26.3674 68.2159 25.0114C67.5795 23.6553 67.2614 22.1061 67.2614 20.3636C67.2614 18.5909 67.5871 17.0265 68.2386 15.6705C68.8977 14.3068 69.8144 13.2424 70.9886 12.4773C72.1705 11.7045 73.5492 11.3182 75.125 11.3182C76.3523 11.3182 77.4583 11.5455 78.4432 12C79.428 12.4545 80.2348 13.0909 80.8636 13.9091C81.4924 14.7273 81.8826 15.6818 82.0341 16.7727H79.3523C79.1477 15.9773 78.6932 15.2727 77.9886 14.6591C77.2917 14.0379 76.3523 13.7273 75.1705 13.7273C74.125 13.7273 73.2083 14 72.4205 14.5455C71.6402 15.0833 71.0303 15.8447 70.5909 16.8295C70.1591 17.8068 69.9432 18.9545 69.9432 20.2727C69.9432 21.6212 70.1553 22.7955 70.5795 23.7955C71.0114 24.7955 71.6174 25.572 72.3977 26.125C73.1856 26.678 74.1098 26.9545 75.1705 26.9545C75.8674 26.9545 76.5 26.8333 77.0682 26.5909C77.6364 26.3485 78.1174 26 78.5114 25.5455C78.9053 25.0909 79.1856 24.5455 79.3523 23.9091H82.0341C81.8826 24.9394 81.5076 25.8674 80.9091 26.6932C80.3182 27.5114 79.5341 28.1629 78.5568 28.6477C77.5871 29.125 76.4583 29.3636 75.1705 29.3636ZM93.5455 11.5455V13.8182H84.5V11.5455H93.5455ZM87.1364 7.36364H89.8182V24C89.8182 24.7576 89.928 25.3258 90.1477 25.7045C90.375 26.0758 90.6629 26.3258 91.0114 26.4545C91.3674 26.5758 91.7424 26.6364 92.1364 26.6364C92.4318 26.6364 92.6742 26.6212 92.8636 26.5909C93.053 26.553 93.2045 26.5227 93.3182 26.5L93.8636 28.9091C93.6818 28.9773 93.428 29.0455 93.1023 29.1136C92.7765 29.1894 92.3636 29.2273 91.8636 29.2273C91.1061 29.2273 90.3636 29.0644 89.6364 28.7386C88.9167 28.4129 88.3182 27.9167 87.8409 27.25C87.3712 26.5833 87.1364 25.7424 87.1364 24.7273V7.36364ZM97.5795 29V11.5455H100.261V29H97.5795ZM98.9432 8.63636C98.4205 8.63636 97.9697 8.45833 97.5909 8.10227C97.2197 7.74621 97.0341 7.31818 97.0341 6.81818C97.0341 6.31818 97.2197 5.89015 97.5909 5.53409C97.9697 5.17803 98.4205 5 98.9432 5C99.4659 5 99.9129 5.17803 100.284 5.53409C100.663 5.89015 100.852 6.31818 100.852 6.81818C100.852 7.31818 100.663 7.74621 100.284 8.10227C99.9129 8.45833 99.4659 8.63636 98.9432 8.63636ZM112.264 29.3636C110.688 29.3636 109.306 28.9886 108.116 28.2386C106.935 27.4886 106.01 26.4394 105.344 25.0909C104.685 23.7424 104.355 22.1667 104.355 20.3636C104.355 18.5455 104.685 16.9583 105.344 15.6023C106.01 14.2462 106.935 13.1932 108.116 12.4432C109.306 11.6932 110.688 11.3182 112.264 11.3182C113.84 11.3182 115.219 11.6932 116.401 12.4432C117.59 13.1932 118.514 14.2462 119.173 15.6023C119.84 16.9583 120.173 18.5455 120.173 20.3636C120.173 22.1667 119.84 23.7424 119.173 25.0909C118.514 26.4394 117.59 27.4886 116.401 28.2386C115.219 28.9886 113.84 29.3636 112.264 29.3636ZM112.264 26.9545C113.461 26.9545 114.446 26.6477 115.219 26.0341C115.991 25.4205 116.563 24.6136 116.935 23.6136C117.306 22.6136 117.491 21.5303 117.491 20.3636C117.491 19.197 117.306 18.1098 116.935 17.1023C116.563 16.0947 115.991 15.2803 115.219 14.6591C114.446 14.0379 113.461 13.7273 112.264 13.7273C111.067 13.7273 110.082 14.0379 109.31 14.6591C108.537 15.2803 107.965 16.0947 107.594 17.1023C107.223 18.1098 107.037 19.197 107.037 20.3636C107.037 21.5303 107.223 22.6136 107.594 23.6136C107.965 24.6136 108.537 25.4205 109.31 26.0341C110.082 26.6477 111.067 26.9545 112.264 26.9545ZM126.949 18.5V29H124.267V11.5455H126.858V14.2727H127.085C127.494 13.3864 128.116 12.6742 128.949 12.1364C129.782 11.5909 130.858 11.3182 132.176 11.3182C133.358 11.3182 134.392 11.5606 135.278 12.0455C136.165 12.5227 136.854 13.25 137.347 14.2273C137.839 15.197 138.085 16.4242 138.085 17.9091V29H135.403V18.0909C135.403 16.7197 135.047 15.6515 134.335 14.8864C133.623 14.1136 132.646 13.7273 131.403 13.7273C130.547 13.7273 129.782 13.9129 129.108 14.2841C128.441 14.6553 127.915 15.197 127.528 15.9091C127.142 16.6212 126.949 17.4848 126.949 18.5ZM148.122 29.4091C147.016 29.4091 146.012 29.2008 145.111 28.7841C144.209 28.3598 143.493 27.75 142.963 26.9545C142.433 26.1515 142.168 25.1818 142.168 24.0455C142.168 23.0455 142.365 22.2348 142.759 21.6136C143.152 20.9848 143.679 20.4924 144.338 20.1364C144.997 19.7803 145.724 19.5152 146.52 19.3409C147.323 19.1591 148.13 19.0152 148.94 18.9091C150.001 18.7727 150.861 18.6705 151.52 18.6023C152.187 18.5265 152.671 18.4015 152.974 18.2273C153.285 18.053 153.44 17.75 153.44 17.3182V17.2273C153.44 16.1061 153.134 15.2348 152.52 14.6136C151.914 13.9924 150.993 13.6818 149.759 13.6818C148.478 13.6818 147.474 13.9621 146.747 14.5227C146.02 15.0833 145.509 15.6818 145.213 16.3182L142.668 15.4091C143.122 14.3485 143.728 13.5227 144.486 12.9318C145.251 12.3333 146.084 11.9167 146.986 11.6818C147.895 11.4394 148.789 11.3182 149.668 11.3182C150.228 11.3182 150.872 11.3864 151.599 11.5227C152.334 11.6515 153.043 11.9205 153.724 12.3295C154.414 12.7386 154.986 13.3561 155.44 14.1818C155.895 15.0076 156.122 16.1136 156.122 17.5V29H153.44V26.6364H153.304C153.122 27.0152 152.819 27.4205 152.395 27.8523C151.971 28.2841 151.406 28.6515 150.702 28.9545C149.997 29.2576 149.137 29.4091 148.122 29.4091ZM148.531 27C149.592 27 150.486 26.7917 151.213 26.375C151.948 25.9583 152.501 25.4205 152.872 24.7614C153.251 24.1023 153.44 23.4091 153.44 22.6818V20.2273C153.327 20.3636 153.077 20.4886 152.69 20.6023C152.312 20.7083 151.872 20.803 151.372 20.8864C150.88 20.9621 150.399 21.0303 149.929 21.0909C149.467 21.1439 149.092 21.1894 148.804 21.2273C148.107 21.3182 147.455 21.4659 146.849 21.6705C146.251 21.8674 145.766 22.1667 145.395 22.5682C145.031 22.9621 144.849 23.5 144.849 24.1818C144.849 25.1136 145.194 25.8182 145.884 26.2955C146.58 26.7652 147.463 27 148.531 27ZM168.608 11.5455V13.8182H159.562V11.5455H168.608ZM162.199 7.36364H164.881V24C164.881 24.7576 164.991 25.3258 165.21 25.7045C165.438 26.0758 165.725 26.3258 166.074 26.4545C166.43 26.5758 166.805 26.6364 167.199 26.6364C167.494 26.6364 167.737 26.6212 167.926 26.5909C168.116 26.553 168.267 26.5227 168.381 26.5L168.926 28.9091C168.744 28.9773 168.491 29.0455 168.165 29.1136C167.839 29.1894 167.426 29.2273 166.926 29.2273C166.169 29.2273 165.426 29.0644 164.699 28.7386C163.979 28.4129 163.381 27.9167 162.903 27.25C162.434 26.5833 162.199 25.7424 162.199 24.7273V7.36364ZM179.773 29.3636C178.091 29.3636 176.64 28.9924 175.42 28.25C174.208 27.5 173.273 26.4545 172.614 25.1136C171.962 23.7652 171.636 22.197 171.636 20.4091C171.636 18.6212 171.962 17.0455 172.614 15.6818C173.273 14.3106 174.189 13.2424 175.364 12.4773C176.545 11.7045 177.924 11.3182 179.5 11.3182C180.409 11.3182 181.307 11.4697 182.193 11.7727C183.08 12.0758 183.886 12.5682 184.614 13.25C185.341 13.9242 185.92 14.8182 186.352 15.9318C186.784 17.0455 187 18.4167 187 20.0455V21.1818H173.545V18.8636H184.273C184.273 17.8788 184.076 17 183.682 16.2273C183.295 15.4545 182.742 14.8447 182.023 14.3977C181.311 13.9508 180.47 13.7273 179.5 13.7273C178.432 13.7273 177.508 13.9924 176.727 14.5227C175.955 15.0455 175.36 15.7273 174.943 16.5682C174.527 17.4091 174.318 18.3106 174.318 19.2727V20.8182C174.318 22.1364 174.545 23.2538 175 24.1705C175.462 25.0795 176.102 25.7727 176.92 26.25C177.739 26.7197 178.689 26.9545 179.773 26.9545C180.477 26.9545 181.114 26.8561 181.682 26.6591C182.258 26.4545 182.754 26.1515 183.17 25.75C183.587 25.3409 183.909 24.8333 184.136 24.2273L186.727 24.9545C186.455 25.8333 185.996 26.6061 185.352 27.2727C184.708 27.9318 183.913 28.447 182.966 28.8182C182.019 29.1818 180.955 29.3636 179.773 29.3636Z" fill="black"/>
    </g>
    <g class="dark-logo">
        <path d="M35.8 16.2551L9 29.3451V24.8951M9 24.8951L26.8984 16.1451L9 7.40503V16.0248V24.8951Z" stroke="white"/>
        <path d="M5 1V35.75M5 1L1 4.475V32.275L5 35.75M5 1L35.5 15.885V20.855L5 35.75" stroke="white"/>
        <path d="M8.96484 11.8398L22.3867 18.3945" stroke="white"/>
        <path d="M47.7727 29H44.8182L53.3636 5.72727H56.2727L64.8182 29H61.8636L54.9091 9.40909H54.7273L47.7727 29ZM48.8636 19.9091H60.7727V22.4091H48.8636V19.9091ZM75.1705 29.3636C73.5341 29.3636 72.125 28.9773 70.9432 28.2045C69.7614 27.4318 68.8523 26.3674 68.2159 25.0114C67.5795 23.6553 67.2614 22.1061 67.2614 20.3636C67.2614 18.5909 67.5871 17.0265 68.2386 15.6705C68.8977 14.3068 69.8144 13.2424 70.9886 12.4773C72.1705 11.7045 73.5492 11.3182 75.125 11.3182C76.3523 11.3182 77.4583 11.5455 78.4432 12C79.428 12.4545 80.2348 13.0909 80.8636 13.9091C81.4924 14.7273 81.8826 15.6818 82.0341 16.7727H79.3523C79.1477 15.9773 78.6932 15.2727 77.9886 14.6591C77.2917 14.0379 76.3523 13.7273 75.1705 13.7273C74.125 13.7273 73.2083 14 72.4205 14.5455C71.6402 15.0833 71.0303 15.8447 70.5909 16.8295C70.1591 17.8068 69.9432 18.9545 69.9432 20.2727C69.9432 21.6212 70.1553 22.7955 70.5795 23.7955C71.0114 24.7955 71.6174 25.572 72.3977 26.125C73.1856 26.678 74.1098 26.9545 75.1705 26.9545C75.8674 26.9545 76.5 26.8333 77.0682 26.5909C77.6364 26.3485 78.1174 26 78.5114 25.5455C78.9053 25.0909 79.1856 24.5455 79.3523 23.9091H82.0341C81.8826 24.9394 81.5076 25.8674 80.9091 26.6932C80.3182 27.5114 79.5341 28.1629 78.5568 28.6477C77.5871 29.125 76.4583 29.3636 75.1705 29.3636ZM93.5455 11.5455V13.8182H84.5V11.5455H93.5455ZM87.1364 7.36364H89.8182V24C89.8182 24.7576 89.928 25.3258 90.1477 25.7045C90.375 26.0758 90.6629 26.3258 91.0114 26.4545C91.3674 26.5758 91.7424 26.6364 92.1364 26.6364C92.4318 26.6364 92.6742 26.6212 92.8636 26.5909C93.053 26.553 93.2045 26.5227 93.3182 26.5L93.8636 28.9091C93.6818 28.9773 93.428 29.0455 93.1023 29.1136C92.7765 29.1894 92.3636 29.2273 91.8636 29.2273C91.1061 29.2273 90.3636 29.0644 89.6364 28.7386C88.9167 28.4129 88.3182 27.9167 87.8409 27.25C87.3712 26.5833 87.1364 25.7424 87.1364 24.7273V7.36364ZM97.5795 29V11.5455H100.261V29H97.5795ZM98.9432 8.63636C98.4205 8.63636 97.9697 8.45833 97.5909 8.10227C97.2197 7.74621 97.0341 7.31818 97.0341 6.81818C97.0341 6.31818 97.2197 5.89015 97.5909 5.53409C97.9697 5.17803 98.4205 5 98.9432 5C99.4659 5 99.9129 5.17803 100.284 5.53409C100.663 5.89015 100.852 6.31818 100.852 6.81818C100.852 7.31818 100.663 7.74621 100.284 8.10227C99.9129 8.45833 99.4659 8.63636 98.9432 8.63636ZM112.264 29.3636C110.688 29.3636 109.306 28.9886 108.116 28.2386C106.935 27.4886 106.01 26.4394 105.344 25.0909C104.685 23.7424 104.355 22.1667 104.355 20.3636C104.355 18.5455 104.685 16.9583 105.344 15.6023C106.01 14.2462 106.935 13.1932 108.116 12.4432C109.306 11.6932 110.688 11.3182 112.264 11.3182C113.84 11.3182 115.219 11.6932 116.401 12.4432C117.59 13.1932 118.514 14.2462 119.173 15.6023C119.84 16.9583 120.173 18.5455 120.173 20.3636C120.173 22.1667 119.84 23.7424 119.173 25.0909C118.514 26.4394 117.59 27.4886 116.401 28.2386C115.219 28.9886 113.84 29.3636 112.264 29.3636ZM112.264 26.9545C113.461 26.9545 114.446 26.6477 115.219 26.0341C115.991 25.4205 116.563 24.6136 116.935 23.6136C117.306 22.6136 117.491 21.5303 117.491 20.3636C117.491 19.197 117.306 18.1098 116.935 17.1023C116.563 16.0947 115.991 15.2803 115.219 14.6591C114.446 14.0379 113.461 13.7273 112.264 13.7273C111.067 13.7273 110.082 14.0379 109.31 14.6591C108.537 15.2803 107.965 16.0947 107.594 17.1023C107.223 18.1098 107.037 19.197 107.037 20.3636C107.037 21.5303 107.223 22.6136 107.594 23.6136C107.965 24.6136 108.537 25.4205 109.31 26.0341C110.082 26.6477 111.067 26.9545 112.264 26.9545ZM126.949 18.5V29H124.267V11.5455H126.858V14.2727H127.085C127.494 13.3864 128.116 12.6742 128.949 12.1364C129.782 11.5909 130.858 11.3182 132.176 11.3182C133.358 11.3182 134.392 11.5606 135.278 12.0455C136.165 12.5227 136.854 13.25 137.347 14.2273C137.839 15.197 138.085 16.4242 138.085 17.9091V29H135.403V18.0909C135.403 16.7197 135.047 15.6515 134.335 14.8864C133.623 14.1136 132.646 13.7273 131.403 13.7273C130.547 13.7273 129.782 13.9129 129.108 14.2841C128.441 14.6553 127.915 15.197 127.528 15.9091C127.142 16.6212 126.949 17.4848 126.949 18.5ZM148.122 29.4091C147.016 29.4091 146.012 29.2008 145.111 28.7841C144.209 28.3598 143.493 27.75 142.963 26.9545C142.433 26.1515 142.168 25.1818 142.168 24.0455C142.168 23.0455 142.365 22.2348 142.759 21.6136C143.152 20.9848 143.679 20.4924 144.338 20.1364C144.997 19.7803 145.724 19.5152 146.52 19.3409C147.323 19.1591 148.13 19.0152 148.94 18.9091C150.001 18.7727 150.861 18.6705 151.52 18.6023C152.187 18.5265 152.671 18.4015 152.974 18.2273C153.285 18.053 153.44 17.75 153.44 17.3182V17.2273C153.44 16.1061 153.134 15.2348 152.52 14.6136C151.914 13.9924 150.993 13.6818 149.759 13.6818C148.478 13.6818 147.474 13.9621 146.747 14.5227C146.02 15.0833 145.509 15.6818 145.213 16.3182L142.668 15.4091C143.122 14.3485 143.728 13.5227 144.486 12.9318C145.251 12.3333 146.084 11.9167 146.986 11.6818C147.895 11.4394 148.789 11.3182 149.668 11.3182C150.228 11.3182 150.872 11.3864 151.599 11.5227C152.334 11.6515 153.043 11.9205 153.724 12.3295C154.414 12.7386 154.986 13.3561 155.44 14.1818C155.895 15.0076 156.122 16.1136 156.122 17.5V29H153.44V26.6364H153.304C153.122 27.0152 152.819 27.4205 152.395 27.8523C151.971 28.2841 151.406 28.6515 150.702 28.9545C149.997 29.2576 149.137 29.4091 148.122 29.4091ZM148.531 27C149.592 27 150.486 26.7917 151.213 26.375C151.948 25.9583 152.501 25.4205 152.872 24.7614C153.251 24.1023 153.44 23.4091 153.44 22.6818V20.2273C153.327 20.3636 153.077 20.4886 152.69 20.6023C152.312 20.7083 151.872 20.803 151.372 20.8864C150.88 20.9621 150.399 21.0303 149.929 21.0909C149.467 21.1439 149.092 21.1894 148.804 21.2273C148.107 21.3182 147.455 21.4659 146.849 21.6705C146.251 21.8674 145.766 22.1667 145.395 22.5682C145.031 22.9621 144.849 23.5 144.849 24.1818C144.849 25.1136 145.194 25.8182 145.884 26.2955C146.58 26.7652 147.463 27 148.531 27ZM168.608 11.5455V13.8182H159.562V11.5455H168.608ZM162.199 7.36364H164.881V24C164.881 24.7576 164.991 25.3258 165.21 25.7045C165.438 26.0758 165.725 26.3258 166.074 26.4545C166.43 26.5758 166.805 26.6364 167.199 26.6364C167.494 26.6364 167.737 26.6212 167.926 26.5909C168.116 26.553 168.267 26.5227 168.381 26.5L168.926 28.9091C168.744 28.9773 168.491 29.0455 168.165 29.1136C167.839 29.1894 167.426 29.2273 166.926 29.2273C166.169 29.2273 165.426 29.0644 164.699 28.7386C163.979 28.4129 163.381 27.9167 162.903 27.25C162.434 26.5833 162.199 25.7424 162.199 24.7273V7.36364ZM179.773 29.3636C178.091 29.3636 176.64 28.9924 175.42 28.25C174.208 27.5 173.273 26.4545 172.614 25.1136C171.962 23.7652 171.636 22.197 171.636 20.4091C171.636 18.6212 171.962 17.0455 172.614 15.6818C173.273 14.3106 174.189 13.2424 175.364 12.4773C176.545 11.7045 177.924 11.3182 179.5 11.3182C180.409 11.3182 181.307 11.4697 182.193 11.7727C183.08 12.0758 183.886 12.5682 184.614 13.25C185.341 13.9242 185.92 14.8182 186.352 15.9318C186.784 17.0455 187 18.4167 187 20.0455V21.1818H173.545V18.8636H184.273C184.273 17.8788 184.076 17 183.682 16.2273C183.295 15.4545 182.742 14.8447 182.023 14.3977C181.311 13.9508 180.47 13.7273 179.5 13.7273C178.432 13.7273 177.508 13.9924 176.727 14.5227C175.955 15.0455 175.36 15.7273 174.943 16.5682C174.527 17.4091 174.318 18.3106 174.318 19.2727V20.8182C174.318 22.1364 174.545 23.2538 175 24.1705C175.462 25.0795 176.102 25.7727 176.92 26.25C177.739 26.7197 178.689 26.9545 179.773 26.9545C180.477 26.9545 181.114 26.8561 181.682 26.6591C182.258 26.4545 182.754 26.1515 183.17 25.75C183.587 25.3409 183.909 24.8333 184.136 24.2273L186.727 24.9545C186.455 25.8333 185.996 26.6061 185.352 27.2727C184.708 27.9318 183.913 28.447 182.966 28.8182C182.019 29.1818 180.955 29.3636 179.773 29.3636Z" fill="white"/>
    </g>
</svg>
