<svg width="396" height="86" viewBox="0 0 396 86" fill="none" xmlns="http://www.w3.org/2000/svg">
<path d="M106.552 70.9242C106.406 70.4752 106.212 70.0728 105.972 69.7171C105.736 69.357 105.454 69.0502 105.125 68.7968C104.801 68.5434 104.432 68.35 104.018 68.2166C103.605 68.0832 103.151 68.0165 102.658 68.0165C101.848 68.0165 101.113 68.2255 100.45 68.6434C99.7877 69.0613 99.2609 69.6771 98.8696 70.4907C98.4784 71.3043 98.2827 72.3025 98.2827 73.4851C98.2827 74.6678 98.4806 75.6659 98.8763 76.4795C99.272 77.2931 99.8077 77.9089 100.484 78.3268C101.159 78.7448 101.92 78.9537 102.764 78.9537C103.547 78.9537 104.236 78.787 104.832 78.4535C105.432 78.1157 105.899 77.6399 106.232 77.0264C106.57 76.4084 106.739 75.6815 106.739 74.8456L107.246 74.9523H103.138V73.4851H108.34V74.9523C108.34 76.0771 108.1 77.0553 107.619 77.8867C107.144 78.7181 106.486 79.3628 105.645 79.8207C104.809 80.2742 103.849 80.5009 102.764 80.5009C101.555 80.5009 100.492 80.2164 99.5765 79.6473C98.6651 79.0782 97.9537 78.269 97.4424 77.2198C96.9356 76.1705 96.6822 74.9256 96.6822 73.4851C96.6822 72.4047 96.8267 71.4333 97.1157 70.5707C97.4091 69.7038 97.8226 68.9657 98.3561 68.3566C98.8896 67.7475 99.521 67.2807 100.25 66.9561C100.979 66.6316 101.782 66.4693 102.658 66.4693C103.378 66.4693 104.049 66.5782 104.672 66.7961C105.299 67.0095 105.857 67.314 106.346 67.7097C106.839 68.101 107.25 68.57 107.579 69.1169C107.908 69.6593 108.135 70.2618 108.26 70.9242H106.552ZM111.601 80.3142V70.0706H113.175V80.3142H111.601ZM112.401 68.3633C112.094 68.3633 111.83 68.2588 111.607 68.0499C111.39 67.8409 111.281 67.5897 111.281 67.2963C111.281 67.0028 111.39 66.7516 111.607 66.5427C111.83 66.3337 112.094 66.2292 112.401 66.2292C112.708 66.2292 112.97 66.3337 113.188 66.5427C113.41 66.7516 113.521 67.0028 113.521 67.2963C113.521 67.5897 113.41 67.8409 113.188 68.0499C112.97 68.2588 112.708 68.3633 112.401 68.3633ZM120.512 70.0706V71.4044H115.204V70.0706H120.512ZM116.751 67.6164H118.325V77.3798C118.325 77.8244 118.389 78.1579 118.518 78.3802C118.652 78.598 118.821 78.7448 119.025 78.8203C119.234 78.8915 119.454 78.927 119.685 78.927C119.859 78.927 120.001 78.9182 120.112 78.9004C120.223 78.8781 120.312 78.8604 120.379 78.847L120.699 80.2609C120.592 80.3009 120.443 80.3409 120.252 80.3809C120.061 80.4254 119.819 80.4476 119.525 80.4476C119.081 80.4476 118.645 80.352 118.218 80.1608C117.796 79.9696 117.445 79.6784 117.164 79.2872C116.889 78.8959 116.751 78.4024 116.751 77.8067V67.6164ZM123.313 80.3142V66.656H124.967V72.7382H132.25V66.656H133.904V80.3142H132.25V74.2054H124.967V80.3142H123.313ZM143.457 76.1261V70.0706H145.031V80.3142H143.457V78.5803H143.35C143.11 79.1004 142.737 79.5428 142.23 79.9074C141.723 80.2675 141.083 80.4476 140.309 80.4476C139.669 80.4476 139.1 80.3075 138.602 80.0274C138.104 79.7429 137.713 79.3161 137.428 78.747C137.144 78.1734 137.001 77.451 137.001 76.5795V70.0706H138.575V76.4728C138.575 77.2198 138.784 77.8155 139.202 78.2601C139.625 78.7047 140.163 78.927 140.816 78.927C141.207 78.927 141.605 78.827 142.01 78.6269C142.419 78.4269 142.761 78.1201 143.037 77.7066C143.317 77.2931 143.457 76.7663 143.457 76.1261ZM148.127 80.3142V66.656H149.701V71.6978H149.834C149.95 71.52 150.11 71.2932 150.315 71.0176C150.524 70.7375 150.821 70.4885 151.208 70.2706C151.599 70.0483 152.129 69.9372 152.795 69.9372C153.658 69.9372 154.418 70.1528 155.076 70.5841C155.734 71.0154 156.248 71.6267 156.617 72.4181C156.986 73.2095 157.17 74.1431 157.17 75.2191C157.17 76.3039 156.986 77.2442 156.617 78.0401C156.248 78.8315 155.736 79.445 155.083 79.8807C154.429 80.312 153.676 80.5276 152.822 80.5276C152.164 80.5276 151.637 80.4187 151.242 80.2008C150.846 79.9785 150.541 79.7273 150.328 79.4472C150.114 79.1627 149.95 78.927 149.834 78.7403H149.648V80.3142H148.127ZM149.674 75.1924C149.674 75.966 149.788 76.6485 150.014 77.2398C150.241 77.8267 150.572 78.2868 151.008 78.6203C151.444 78.9493 151.977 79.1138 152.609 79.1138C153.267 79.1138 153.816 78.9404 154.256 78.5936C154.701 78.2424 155.034 77.7711 155.256 77.1798C155.483 76.584 155.596 75.9215 155.596 75.1924C155.596 74.4721 155.485 73.823 155.263 73.245C155.045 72.6626 154.714 72.2024 154.269 71.8645C153.829 71.5222 153.276 71.351 152.609 71.351C151.968 71.351 151.43 71.5133 150.995 71.8379C150.559 72.158 150.23 72.607 150.008 73.185C149.785 73.7585 149.674 74.4277 149.674 75.1924ZM165.633 80.3142H163.899L168.914 66.656H170.622L175.637 80.3142H173.903L169.821 68.8168H169.715L165.633 80.3142ZM166.274 74.979H173.263V76.4462H166.274V74.979ZM181.712 80.5276C180.752 80.5276 179.925 80.3009 179.231 79.8474C178.538 79.3939 178.004 78.7692 177.631 77.9734C177.257 77.1775 177.071 76.2683 177.071 75.2457C177.071 74.2054 177.262 73.2873 177.644 72.4914C178.031 71.6911 178.569 71.0665 179.258 70.6174C179.952 70.1639 180.761 69.9372 181.686 69.9372C182.406 69.9372 183.055 70.0706 183.633 70.3373C184.211 70.6041 184.685 70.9776 185.054 71.4577C185.423 71.9379 185.652 72.4981 185.74 73.1383H184.167C184.047 72.6715 183.78 72.258 183.366 71.8979C182.957 71.5333 182.406 71.351 181.712 71.351C181.099 71.351 180.561 71.5111 180.098 71.8312C179.641 72.1469 179.283 72.5937 179.025 73.1717C178.771 73.7452 178.645 74.4188 178.645 75.1924C178.645 75.9838 178.769 76.6729 179.018 77.2598C179.271 77.8467 179.627 78.3024 180.085 78.6269C180.547 78.9515 181.09 79.1138 181.712 79.1138C182.121 79.1138 182.493 79.0426 182.826 78.9004C183.16 78.7581 183.442 78.5536 183.673 78.2868C183.904 78.0201 184.069 77.6999 184.167 77.3265H185.74C185.652 77.9311 185.431 78.4758 185.08 78.9604C184.733 79.4406 184.273 79.8229 183.7 80.1075C183.131 80.3876 182.468 80.5276 181.712 80.5276ZM192.496 70.0706V71.4044H187.188V70.0706H192.496ZM188.735 67.6164H190.309V77.3798C190.309 77.8244 190.373 78.1579 190.502 78.3802C190.636 78.598 190.804 78.7448 191.009 78.8203C191.218 78.8915 191.438 78.927 191.669 78.927C191.843 78.927 191.985 78.9182 192.096 78.9004C192.207 78.8781 192.296 78.8604 192.363 78.847L192.683 80.2609C192.576 80.3009 192.427 80.3409 192.236 80.3809C192.045 80.4254 191.803 80.4476 191.509 80.4476C191.065 80.4476 190.629 80.352 190.202 80.1608C189.78 79.9696 189.428 79.6784 189.148 79.2872C188.873 78.8959 188.735 78.4024 188.735 77.8067V67.6164ZM194.864 80.3142V70.0706H196.438V80.3142H194.864ZM195.664 68.3633C195.357 68.3633 195.093 68.2588 194.87 68.0499C194.653 67.8409 194.544 67.5897 194.544 67.2963C194.544 67.0028 194.653 66.7516 194.87 66.5427C195.093 66.3337 195.357 66.2292 195.664 66.2292C195.971 66.2292 196.233 66.3337 196.451 66.5427C196.673 66.7516 196.784 67.0028 196.784 67.2963C196.784 67.5897 196.673 67.8409 196.451 68.0499C196.233 68.2588 195.971 68.3633 195.664 68.3633ZM203.482 80.5276C202.557 80.5276 201.746 80.3075 201.048 79.8674C200.354 79.4272 199.812 78.8115 199.42 78.0201C199.034 77.2287 198.84 76.3039 198.84 75.2457C198.84 74.1787 199.034 73.2473 199.42 72.4514C199.812 71.6556 200.354 71.0376 201.048 70.5974C201.746 70.1573 202.557 69.9372 203.482 69.9372C204.407 69.9372 205.216 70.1573 205.909 70.5974C206.607 71.0376 207.15 71.6556 207.537 72.4514C207.928 73.2473 208.123 74.1787 208.123 75.2457C208.123 76.3039 207.928 77.2287 207.537 78.0201C207.15 78.8115 206.607 79.4272 205.909 79.8674C205.216 80.3075 204.407 80.5276 203.482 80.5276ZM203.482 79.1138C204.184 79.1138 204.762 78.9337 205.216 78.5736C205.669 78.2135 206.005 77.74 206.223 77.1531C206.441 76.5662 206.55 75.9304 206.55 75.2457C206.55 74.5611 206.441 73.9231 206.223 73.3317C206.005 72.7404 205.669 72.2625 205.216 71.8979C204.762 71.5333 204.184 71.351 203.482 71.351C202.779 71.351 202.201 71.5333 201.748 71.8979C201.294 72.2625 200.959 72.7404 200.741 73.3317C200.523 73.9231 200.414 74.5611 200.414 75.2457C200.414 75.9304 200.523 76.5662 200.741 77.1531C200.959 77.74 201.294 78.2135 201.748 78.5736C202.201 78.9337 202.779 79.1138 203.482 79.1138ZM212.1 74.152V80.3142H210.526V70.0706H212.046V71.6711H212.18C212.42 71.151 212.784 70.733 213.274 70.4174C213.763 70.0972 214.394 69.9372 215.168 69.9372C215.861 69.9372 216.468 70.0795 216.988 70.364C217.508 70.6441 217.913 71.0709 218.202 71.6445C218.491 72.2136 218.635 72.9338 218.635 73.8052V80.3142H217.062V73.9119C217.062 73.1072 216.853 72.4803 216.435 72.0313C216.017 71.5778 215.443 71.351 214.714 71.351C214.212 71.351 213.763 71.46 213.367 71.6778C212.976 71.8957 212.667 72.2136 212.44 72.6315C212.213 73.0494 212.1 73.5563 212.1 74.152ZM228.767 72.3647L227.354 72.7649C227.265 72.5292 227.133 72.3003 226.96 72.078C226.791 71.8512 226.56 71.6645 226.267 71.5178C225.973 71.371 225.597 71.2977 225.139 71.2977C224.513 71.2977 223.99 71.4422 223.572 71.7312C223.159 72.0157 222.952 72.3781 222.952 72.8182C222.952 73.2095 223.094 73.5185 223.379 73.7452C223.663 73.972 224.108 74.1609 224.713 74.3121L226.233 74.6855C227.149 74.9078 227.832 75.248 228.281 75.7059C228.73 76.1594 228.954 76.7441 228.954 77.4599C228.954 78.0467 228.785 78.5714 228.447 79.0338C228.114 79.4961 227.647 79.8607 227.047 80.1275C226.447 80.3942 225.749 80.5276 224.953 80.5276C223.908 80.5276 223.043 80.3009 222.358 79.8474C221.674 79.3939 221.24 78.7314 221.058 77.86L222.552 77.4865C222.694 78.0378 222.963 78.4513 223.359 78.727C223.759 79.0026 224.281 79.1405 224.926 79.1405C225.66 79.1405 226.242 78.9848 226.673 78.6736C227.109 78.358 227.327 77.98 227.327 77.5399C227.327 77.1842 227.202 76.8863 226.953 76.6462C226.704 76.4017 226.322 76.2194 225.806 76.0994L224.099 75.6992C223.161 75.4769 222.472 75.1324 222.032 74.6655C221.596 74.1943 221.378 73.6052 221.378 72.8982C221.378 72.3203 221.54 71.809 221.865 71.3644C222.194 70.9198 222.641 70.5707 223.205 70.3173C223.775 70.0639 224.419 69.9372 225.139 69.9372C226.153 69.9372 226.949 70.1595 227.527 70.6041C228.109 71.0487 228.523 71.6356 228.767 72.3647ZM241.167 70.0706V71.4044H235.645V70.0706H241.167ZM237.299 80.3142V68.6567C237.299 68.0699 237.437 67.5808 237.712 67.1895C237.988 66.7983 238.346 66.5049 238.786 66.3092C239.226 66.1136 239.691 66.0158 240.18 66.0158C240.567 66.0158 240.882 66.0469 241.127 66.1092C241.371 66.1714 241.554 66.2292 241.674 66.2826L241.22 67.643C241.14 67.6164 241.029 67.583 240.887 67.543C240.749 67.503 240.567 67.483 240.34 67.483C239.82 67.483 239.444 67.6141 239.213 67.8765C238.986 68.1388 238.873 68.5234 238.873 69.0302V80.3142H237.299ZM247.112 80.5276C246.187 80.5276 245.376 80.3075 244.678 79.8674C243.984 79.4272 243.442 78.8115 243.051 78.0201C242.664 77.2287 242.471 76.3039 242.471 75.2457C242.471 74.1787 242.664 73.2473 243.051 72.4514C243.442 71.6556 243.984 71.0376 244.678 70.5974C245.376 70.1573 246.187 69.9372 247.112 69.9372C248.037 69.9372 248.846 70.1573 249.54 70.5974C250.238 71.0376 250.78 71.6556 251.167 72.4514C251.558 73.2473 251.754 74.1787 251.754 75.2457C251.754 76.3039 251.558 77.2287 251.167 78.0201C250.78 78.8115 250.238 79.4272 249.54 79.8674C248.846 80.3075 248.037 80.5276 247.112 80.5276ZM247.112 79.1138C247.815 79.1138 248.393 78.9337 248.846 78.5736C249.3 78.2135 249.635 77.74 249.853 77.1531C250.071 76.5662 250.18 75.9304 250.18 75.2457C250.18 74.5611 250.071 73.9231 249.853 73.3317C249.635 72.7404 249.3 72.2625 248.846 71.8979C248.393 71.5333 247.815 71.351 247.112 71.351C246.41 71.351 245.832 71.5333 245.378 71.8979C244.925 72.2625 244.589 72.7404 244.371 73.3317C244.153 73.9231 244.044 74.5611 244.044 75.2457C244.044 75.9304 244.153 76.5662 244.371 77.1531C244.589 77.74 244.925 78.2135 245.378 78.5736C245.832 78.9337 246.41 79.1138 247.112 79.1138ZM254.156 80.3142V70.0706H255.677V71.6178H255.784C255.97 71.1109 256.308 70.6997 256.797 70.384C257.286 70.0683 257.838 69.9105 258.451 69.9105C258.567 69.9105 258.711 69.9127 258.885 69.9172C259.058 69.9216 259.189 69.9283 259.278 69.9372V71.5378C259.225 71.5244 259.103 71.5044 258.911 71.4777C258.725 71.4466 258.527 71.4311 258.318 71.4311C257.82 71.4311 257.375 71.5355 256.984 71.7445C256.597 71.949 256.29 72.2336 256.064 72.5981C255.841 72.9583 255.73 73.3695 255.73 73.8319V80.3142H254.156ZM271.868 66.656H273.522V76.4195C273.522 77.2909 273.362 78.0312 273.041 78.6403C272.721 79.2494 272.27 79.7118 271.688 80.0274C271.105 80.3431 270.418 80.5009 269.627 80.5009C268.88 80.5009 268.215 80.3653 267.633 80.0941C267.05 79.8185 266.592 79.4272 266.259 78.9204C265.926 78.4135 265.759 77.8111 265.759 77.1131H267.386C267.386 77.4999 267.482 77.8378 267.673 78.1268C267.868 78.4113 268.135 78.6336 268.473 78.7937C268.811 78.9537 269.196 79.0338 269.627 79.0338C270.103 79.0338 270.507 78.9337 270.841 78.7336C271.174 78.5336 271.428 78.2401 271.601 77.8533C271.779 77.4621 271.868 76.9841 271.868 76.4195V66.656ZM280.918 80.5276C279.931 80.5276 279.079 80.3098 278.363 79.8741C277.652 79.4339 277.103 78.8203 276.716 78.0334C276.334 77.242 276.143 76.3217 276.143 75.2724C276.143 74.2232 276.334 73.2984 276.716 72.4981C277.103 71.6934 277.641 71.0665 278.33 70.6174C279.024 70.1639 279.833 69.9372 280.758 69.9372C281.291 69.9372 281.818 70.0261 282.338 70.204C282.858 70.3818 283.332 70.6708 283.759 71.0709C284.185 71.4666 284.526 71.9913 284.779 72.6448C285.032 73.2984 285.159 74.1031 285.159 75.059V75.7259H277.263V74.3654H283.559C283.559 73.7874 283.443 73.2717 283.212 72.8182C282.985 72.3647 282.66 72.0068 282.238 71.7445C281.82 71.4822 281.327 71.351 280.758 71.351C280.131 71.351 279.588 71.5066 279.13 71.8179C278.677 72.1246 278.328 72.5248 278.083 73.0183C277.839 73.5118 277.716 74.0409 277.716 74.6055V75.5125C277.716 76.2861 277.85 76.9419 278.117 77.4799C278.388 78.0134 278.763 78.4202 279.244 78.7003C279.724 78.976 280.282 79.1138 280.918 79.1138C281.331 79.1138 281.705 79.056 282.038 78.9404C282.376 78.8203 282.667 78.6425 282.912 78.4069C283.156 78.1668 283.345 77.8689 283.478 77.5132L284.999 77.94C284.839 78.4558 284.57 78.9093 284.192 79.3005C283.814 79.6873 283.347 79.9896 282.792 80.2075C282.236 80.4209 281.611 80.5276 280.918 80.5276ZM292.008 70.0706V71.4044H286.7V70.0706H292.008ZM288.247 67.6164H289.821V77.3798C289.821 77.8244 289.885 78.1579 290.014 78.3802C290.148 78.598 290.316 78.7448 290.521 78.8203C290.73 78.8915 290.95 78.927 291.181 78.927C291.355 78.927 291.497 78.9182 291.608 78.9004C291.719 78.8781 291.808 78.8604 291.875 78.847L292.195 80.2609C292.088 80.3009 291.939 80.3409 291.748 80.3809C291.557 80.4254 291.315 80.4476 291.021 80.4476C290.577 80.4476 290.141 80.352 289.714 80.1608C289.292 79.9696 288.94 79.6784 288.66 79.2872C288.385 78.8959 288.247 78.4024 288.247 77.8067V67.6164ZM294.809 80.3142V66.656H299.584C300.536 66.656 301.32 66.8205 301.938 67.1495C302.556 67.4741 303.017 67.912 303.319 68.4633C303.621 69.0102 303.772 69.6171 303.772 70.284C303.772 70.8709 303.668 71.3555 303.459 71.7378C303.254 72.1202 302.983 72.4225 302.645 72.6448C302.312 72.8671 301.949 73.0316 301.558 73.1383V73.2717C301.976 73.2984 302.396 73.4451 302.819 73.7119C303.241 73.9786 303.595 74.361 303.879 74.8589C304.164 75.3569 304.306 75.966 304.306 76.6863C304.306 77.3709 304.15 77.9867 303.839 78.5336C303.528 79.0804 303.037 79.5139 302.365 79.834C301.694 80.1542 300.82 80.3142 299.744 80.3142H294.809ZM296.463 78.847H299.744C300.825 78.847 301.592 78.6381 302.045 78.2201C302.503 77.7978 302.732 77.2865 302.732 76.6863C302.732 76.2239 302.614 75.797 302.379 75.4058C302.143 75.0101 301.807 74.6944 301.372 74.4588C300.936 74.2187 300.42 74.0987 299.824 74.0987H296.463V78.847ZM296.463 72.6582H299.531C300.029 72.6582 300.478 72.5603 300.878 72.3647C301.283 72.1691 301.603 71.8934 301.838 71.5378C302.078 71.1821 302.198 70.7642 302.198 70.284C302.198 69.6838 301.99 69.1747 301.572 68.7568C301.154 68.3344 300.491 68.1232 299.584 68.1232H296.463V72.6582ZM306.81 80.3142V70.0706H308.331V71.6178H308.437C308.624 71.1109 308.962 70.6997 309.451 70.384C309.94 70.0683 310.491 69.9105 311.105 69.9105C311.221 69.9105 311.365 69.9127 311.538 69.9172C311.712 69.9216 311.843 69.9283 311.932 69.9372V71.5378C311.879 71.5244 311.756 71.5044 311.565 71.4777C311.378 71.4466 311.181 71.4311 310.972 71.4311C310.474 71.4311 310.029 71.5355 309.638 71.7445C309.251 71.949 308.944 72.2336 308.717 72.5981C308.495 72.9583 308.384 73.3695 308.384 73.8319V80.3142H306.81ZM316.812 80.5543C316.163 80.5543 315.574 80.432 315.045 80.1875C314.516 79.9385 314.095 79.5806 313.784 79.1138C313.473 78.6425 313.317 78.0734 313.317 77.4065C313.317 76.8196 313.433 76.3439 313.664 75.9793C313.895 75.6103 314.204 75.3213 314.591 75.1124C314.978 74.9034 315.405 74.7478 315.872 74.6455C316.343 74.5388 316.816 74.4544 317.292 74.3921C317.915 74.3121 318.419 74.2521 318.806 74.212C319.197 74.1676 319.482 74.0942 319.66 73.992C319.842 73.8897 319.933 73.7119 319.933 73.4584V73.4051C319.933 72.7471 319.753 72.2358 319.393 71.8712C319.037 71.5066 318.497 71.3244 317.772 71.3244C317.021 71.3244 316.432 71.4889 316.005 71.8179C315.578 72.1469 315.278 72.4981 315.105 72.8716L313.611 72.338C313.878 71.7156 314.233 71.231 314.678 70.8842C315.127 70.533 315.616 70.2884 316.145 70.1506C316.679 70.0083 317.203 69.9372 317.719 69.9372C318.048 69.9372 318.426 69.9772 318.853 70.0572C319.284 70.1328 319.7 70.2906 320.1 70.5307C320.504 70.7708 320.84 71.1332 321.107 71.6178C321.374 72.1024 321.507 72.7515 321.507 73.5651V80.3142H319.933V78.927H319.853C319.746 79.1494 319.569 79.3872 319.32 79.6406C319.071 79.8941 318.739 80.1097 318.326 80.2875C317.912 80.4654 317.408 80.5543 316.812 80.5543ZM317.052 79.1405C317.675 79.1405 318.199 79.0182 318.626 78.7737C319.057 78.5291 319.382 78.2135 319.6 77.8267C319.822 77.4399 319.933 77.033 319.933 76.6062V75.1657C319.866 75.2457 319.72 75.3191 319.493 75.3858C319.271 75.448 319.013 75.5036 318.719 75.5525C318.43 75.597 318.148 75.637 317.872 75.6726C317.601 75.7037 317.381 75.7304 317.212 75.7526C316.803 75.8059 316.421 75.8926 316.065 76.0127C315.714 76.1283 315.429 76.3039 315.211 76.5395C314.998 76.7707 314.891 77.0864 314.891 77.4865C314.891 78.0334 315.094 78.4469 315.498 78.727C315.907 79.0026 316.425 79.1405 317.052 79.1405ZM324.38 80.3142V70.0706H325.954V80.3142H324.38ZM325.18 68.3633C324.873 68.3633 324.609 68.2588 324.386 68.0499C324.168 67.8409 324.06 67.5897 324.06 67.2963C324.06 67.0028 324.168 66.7516 324.386 66.5427C324.609 66.3337 324.873 66.2292 325.18 66.2292C325.487 66.2292 325.749 66.3337 325.967 66.5427C326.189 66.7516 326.3 67.0028 326.3 67.2963C326.3 67.5897 326.189 67.8409 325.967 68.0499C325.749 68.2588 325.487 68.3633 325.18 68.3633ZM330.41 74.152V80.3142H328.836V70.0706H330.357V71.6711H330.49C330.73 71.151 331.095 70.733 331.584 70.4174C332.073 70.0972 332.704 69.9372 333.478 69.9372C334.171 69.9372 334.778 70.0795 335.299 70.364C335.819 70.6441 336.223 71.0709 336.512 71.6445C336.801 72.2136 336.946 72.9338 336.946 73.8052V80.3142H335.372V73.9119C335.372 73.1072 335.163 72.4803 334.745 72.0313C334.327 71.5778 333.754 71.351 333.024 71.351C332.522 71.351 332.073 71.46 331.677 71.6778C331.286 71.8957 330.977 72.2136 330.75 72.6315C330.524 73.0494 330.41 73.5563 330.41 74.152ZM347.078 72.3647L345.664 72.7649C345.575 72.5292 345.444 72.3003 345.27 72.078C345.101 71.8512 344.87 71.6645 344.577 71.5178C344.283 71.371 343.908 71.2977 343.45 71.2977C342.823 71.2977 342.3 71.4422 341.883 71.7312C341.469 72.0157 341.262 72.3781 341.262 72.8182C341.262 73.2095 341.405 73.5185 341.689 73.7452C341.974 73.972 342.418 74.1609 343.023 74.3121L344.543 74.6855C345.459 74.9078 346.142 75.248 346.591 75.7059C347.04 76.1594 347.264 76.7441 347.264 77.4599C347.264 78.0467 347.096 78.5714 346.758 79.0338C346.424 79.4961 345.957 79.8607 345.357 80.1275C344.757 80.3942 344.059 80.5276 343.263 80.5276C342.218 80.5276 341.353 80.3009 340.669 79.8474C339.984 79.3939 339.551 78.7314 339.368 77.86L340.862 77.4865C341.004 78.0378 341.273 78.4513 341.669 78.727C342.069 79.0026 342.592 79.1405 343.236 79.1405C343.97 79.1405 344.552 78.9848 344.984 78.6736C345.419 78.358 345.637 77.98 345.637 77.5399C345.637 77.1842 345.513 76.8863 345.264 76.6462C345.015 76.4017 344.632 76.2194 344.117 76.0994L342.409 75.6992C341.471 75.4769 340.782 75.1324 340.342 74.6655C339.906 74.1943 339.688 73.6052 339.688 72.8982C339.688 72.3203 339.851 71.809 340.175 71.3644C340.504 70.9198 340.951 70.5707 341.516 70.3173C342.085 70.0639 342.73 69.9372 343.45 69.9372C344.463 69.9372 345.259 70.1595 345.837 70.6041C346.42 71.0487 346.833 71.6356 347.078 72.3647ZM356.783 66.656V80.3142H355.129V66.656H356.783ZM364.314 80.3142H360.099V66.656H364.501C365.825 66.656 366.959 66.9295 367.902 67.4763C368.844 68.0187 369.567 68.799 370.069 69.8171C370.572 70.8308 370.823 72.0446 370.823 73.4584C370.823 74.8812 370.569 76.106 370.063 77.1331C369.556 78.1557 368.818 78.9426 367.848 79.4939C366.879 80.0408 365.701 80.3142 364.314 80.3142ZM361.753 78.847H364.207C365.336 78.847 366.272 78.6292 367.015 78.1935C367.757 77.7577 368.311 77.1375 368.675 76.3328C369.04 75.5281 369.222 74.5699 369.222 73.4584C369.222 72.3558 369.042 71.4066 368.682 70.6108C368.322 69.8105 367.784 69.1969 367.068 68.7701C366.352 68.3388 365.461 68.1232 364.394 68.1232H361.753V78.847ZM373.597 80.3142V66.656H381.84V68.1232H375.251V72.7382H381.413V74.2054H375.251V78.847H381.947V80.3142H373.597ZM391.864 72.3647L390.45 72.7649C390.361 72.5292 390.23 72.3003 390.056 72.078C389.887 71.8512 389.656 71.6645 389.363 71.5178C389.069 71.371 388.694 71.2977 388.236 71.2977C387.609 71.2977 387.086 71.4422 386.668 71.7312C386.255 72.0157 386.048 72.3781 386.048 72.8182C386.048 73.2095 386.191 73.5185 386.475 73.7452C386.76 73.972 387.204 74.1609 387.809 74.3121L389.329 74.6855C390.245 74.9078 390.928 75.248 391.377 75.7059C391.826 76.1594 392.05 76.7441 392.05 77.4599C392.05 78.0467 391.881 78.5714 391.544 79.0338C391.21 79.4961 390.743 79.8607 390.143 80.1275C389.543 80.3942 388.845 80.5276 388.049 80.5276C387.004 80.5276 386.139 80.3009 385.455 79.8474C384.77 79.3939 384.337 78.7314 384.154 77.86L385.648 77.4865C385.79 78.0378 386.059 78.4513 386.455 78.727C386.855 79.0026 387.378 79.1405 388.022 79.1405C388.756 79.1405 389.338 78.9848 389.77 78.6736C390.205 78.358 390.423 77.98 390.423 77.5399C390.423 77.1842 390.299 76.8863 390.05 76.6462C389.801 76.4017 389.418 76.2194 388.903 76.0994L387.195 75.6992C386.257 75.4769 385.568 75.1324 385.128 74.6655C384.692 74.1943 384.474 73.6052 384.474 72.8982C384.474 72.3203 384.637 71.809 384.961 71.3644C385.29 70.9198 385.737 70.5707 386.302 70.3173C386.871 70.0639 387.515 69.9372 388.236 69.9372C389.249 69.9372 390.045 70.1595 390.623 70.6041C391.206 71.0487 391.619 71.6356 391.864 72.3647Z" fill="white"/>
<path d="M105.697 54.3103H96.6973L113.084 7.76485H123.493L139.902 54.3103H130.902L118.47 17.3103H118.106L105.697 54.3103ZM105.993 36.0603H130.538V42.833H105.993V36.0603ZM159.834 54.9921C156.349 54.9921 153.356 54.227 150.856 52.6967C148.372 51.1664 146.455 49.0527 145.106 46.3558C143.773 43.6436 143.106 40.5224 143.106 36.9921C143.106 33.4467 143.788 30.3179 145.152 27.6058C146.516 24.8785 148.44 22.7573 150.925 21.2421C153.425 19.7118 156.379 18.9467 159.788 18.9467C162.622 18.9467 165.129 19.4694 167.311 20.5148C169.508 21.5452 171.258 23.0073 172.561 24.9012C173.864 26.78 174.606 28.977 174.788 31.4921H166.925C166.606 29.8103 165.849 28.4088 164.652 27.2876C163.47 26.1512 161.887 25.583 159.902 25.583C158.22 25.583 156.743 26.0376 155.47 26.9467C154.197 27.8406 153.205 29.1285 152.493 30.8103C151.796 32.4921 151.447 34.5073 151.447 36.8558C151.447 39.2345 151.796 41.28 152.493 42.9921C153.19 44.6891 154.167 45.9997 155.425 46.9239C156.697 47.833 158.19 48.2876 159.902 48.2876C161.114 48.2876 162.197 48.0603 163.152 47.6058C164.122 47.1361 164.932 46.4618 165.584 45.583C166.235 44.7042 166.682 43.6361 166.925 42.3785H174.788C174.591 44.8482 173.864 47.0376 172.606 48.9467C171.349 50.8406 169.637 52.3255 167.47 53.4012C165.303 54.4618 162.758 54.9921 159.834 54.9921ZM198.976 19.4012V25.7648H178.908V19.4012H198.976ZM183.862 11.0376H192.089V43.8103C192.089 44.9164 192.256 45.7648 192.589 46.3558C192.938 46.9315 193.392 47.3255 193.953 47.5376C194.514 47.7497 195.135 47.8558 195.817 47.8558C196.332 47.8558 196.801 47.8179 197.226 47.7421C197.665 47.6664 197.998 47.5982 198.226 47.5376L199.612 53.9694C199.173 54.1209 198.544 54.2876 197.726 54.4694C196.923 54.6512 195.938 54.7573 194.771 54.7876C192.711 54.8482 190.855 54.5376 189.203 53.8558C187.551 53.1588 186.241 52.083 185.271 50.6285C184.317 49.1739 183.847 47.3558 183.862 45.1739V11.0376ZM205.856 54.3103V19.4012H214.084V54.3103H205.856ZM209.993 14.4467C208.69 14.4467 207.569 14.0148 206.629 13.1512C205.69 12.2724 205.22 11.2194 205.22 9.99212C205.22 8.74969 205.69 7.69666 206.629 6.83303C207.569 5.95424 208.69 5.51485 209.993 5.51485C211.311 5.51485 212.432 5.95424 213.356 6.83303C214.296 7.69666 214.766 8.74969 214.766 9.99212C214.766 11.2194 214.296 12.2724 213.356 13.1512C212.432 14.0148 211.311 14.4467 209.993 14.4467ZM237.771 54.9921C234.362 54.9921 231.408 54.2421 228.908 52.7421C226.408 51.2421 224.468 49.1436 223.089 46.4467C221.726 43.7497 221.044 40.5982 221.044 36.9921C221.044 33.3861 221.726 30.227 223.089 27.5148C224.468 24.8027 226.408 22.6967 228.908 21.1967C231.408 19.6967 234.362 18.9467 237.771 18.9467C241.18 18.9467 244.135 19.6967 246.635 21.1967C249.135 22.6967 251.067 24.8027 252.43 27.5148C253.809 30.227 254.498 33.3861 254.498 36.9921C254.498 40.5982 253.809 43.7497 252.43 46.4467C251.067 49.1436 249.135 51.2421 246.635 52.7421C244.135 54.2421 241.18 54.9921 237.771 54.9921ZM237.817 48.4012C239.665 48.4012 241.211 47.8936 242.453 46.8785C243.695 45.8482 244.62 44.4694 245.226 42.7421C245.847 41.0148 246.158 39.0906 246.158 36.9694C246.158 34.833 245.847 32.9012 245.226 31.1739C244.62 29.4315 243.695 28.0452 242.453 27.0148C241.211 25.9845 239.665 25.4694 237.817 25.4694C235.923 25.4694 234.347 25.9845 233.089 27.0148C231.847 28.0452 230.915 29.4315 230.294 31.1739C229.688 32.9012 229.385 34.833 229.385 36.9694C229.385 39.0906 229.688 41.0148 230.294 42.7421C230.915 44.4694 231.847 45.8482 233.089 46.8785C234.347 47.8936 235.923 48.4012 237.817 48.4012ZM269.709 33.8558V54.3103H261.481V19.4012H269.345V25.333H269.754C270.557 23.3785 271.837 21.8255 273.595 20.6739C275.368 19.5224 277.557 18.9467 280.163 18.9467C282.572 18.9467 284.671 19.4618 286.459 20.4921C288.262 21.5224 289.656 23.0148 290.641 24.9694C291.641 26.9239 292.133 29.2952 292.118 32.083V54.3103H283.891V33.3558C283.891 31.0224 283.284 29.1967 282.072 27.8785C280.875 26.5603 279.216 25.9012 277.095 25.9012C275.656 25.9012 274.375 26.2194 273.254 26.8558C272.148 27.477 271.277 28.3785 270.641 29.5603C270.019 30.7421 269.709 32.1739 269.709 33.8558ZM310.527 55.0148C308.315 55.0148 306.322 54.6209 304.55 53.833C302.792 53.03 301.398 51.8482 300.368 50.2876C299.353 48.727 298.845 46.8027 298.845 44.5148C298.845 42.5452 299.209 40.9164 299.936 39.6285C300.663 38.3406 301.656 37.3103 302.913 36.5376C304.171 35.7648 305.587 35.1815 307.163 34.7876C308.754 34.3785 310.398 34.083 312.095 33.9012C314.141 33.6891 315.8 33.4997 317.072 33.333C318.345 33.1512 319.269 32.8785 319.845 32.5148C320.436 32.1361 320.731 31.5527 320.731 30.7648V30.6285C320.731 28.9164 320.224 27.5906 319.209 26.6512C318.194 25.7118 316.731 25.2421 314.822 25.2421C312.807 25.2421 311.209 25.6815 310.027 26.5603C308.86 27.4391 308.072 28.477 307.663 29.6739L299.981 28.583C300.587 26.4618 301.587 24.6891 302.981 23.2648C304.375 21.8255 306.08 20.7497 308.095 20.0376C310.11 19.3103 312.337 18.9467 314.777 18.9467C316.459 18.9467 318.133 19.1436 319.8 19.5376C321.466 19.9315 322.989 20.583 324.368 21.4921C325.747 22.3861 326.853 23.6058 327.686 25.1512C328.534 26.6967 328.959 28.6285 328.959 30.9467V54.3103H321.05V49.5148H320.777C320.277 50.4845 319.572 51.3936 318.663 52.2421C317.769 53.0755 316.641 53.7497 315.277 54.2648C313.928 54.7648 312.345 55.0148 310.527 55.0148ZM312.663 48.9694C314.315 48.9694 315.747 48.6436 316.959 47.9921C318.171 47.3255 319.103 46.4467 319.754 45.3558C320.421 44.2648 320.754 43.0755 320.754 41.7876V37.6739C320.497 37.8861 320.057 38.083 319.436 38.2648C318.83 38.4467 318.148 38.6058 317.391 38.7421C316.633 38.8785 315.883 38.9997 315.141 39.1058C314.398 39.2118 313.754 39.3027 313.209 39.3785C311.981 39.5452 310.883 39.8179 309.913 40.1967C308.944 40.5755 308.178 41.1058 307.618 41.7876C307.057 42.4542 306.777 43.3179 306.777 44.3785C306.777 45.8936 307.33 47.0376 308.436 47.8103C309.542 48.583 310.951 48.9694 312.663 48.9694ZM354.663 19.4012V25.7648H334.595V19.4012H354.663ZM339.55 11.0376H347.777V43.8103C347.777 44.9164 347.944 45.7648 348.277 46.3558C348.625 46.9315 349.08 47.3255 349.641 47.5376C350.201 47.7497 350.822 47.8558 351.504 47.8558C352.019 47.8558 352.489 47.8179 352.913 47.7421C353.353 47.6664 353.686 47.5982 353.913 47.5376L355.3 53.9694C354.86 54.1209 354.231 54.2876 353.413 54.4694C352.61 54.6512 351.625 54.7573 350.459 54.7876C348.398 54.8482 346.542 54.5376 344.891 53.8558C343.239 53.1588 341.928 52.083 340.959 50.6285C340.004 49.1739 339.534 47.3558 339.55 45.1739V11.0376ZM376.623 54.9921C373.123 54.9921 370.101 54.2648 367.555 52.8103C365.025 51.3406 363.078 49.2648 361.714 46.583C360.351 43.8861 359.669 40.7118 359.669 37.0603C359.669 33.4694 360.351 30.3179 361.714 27.6058C363.093 24.8785 365.017 22.7573 367.487 21.2421C369.957 19.7118 372.858 18.9467 376.192 18.9467C378.343 18.9467 380.373 19.2952 382.283 19.9921C384.207 20.6739 385.904 21.7345 387.373 23.1739C388.858 24.6133 390.025 26.4467 390.873 28.6739C391.722 30.8861 392.146 33.5224 392.146 36.583V39.1058H363.533V33.5603H384.26C384.245 31.9845 383.904 30.583 383.237 29.3558C382.57 28.1133 381.639 27.1361 380.442 26.4239C379.26 25.7118 377.881 25.3558 376.305 25.3558C374.623 25.3558 373.146 25.7648 371.873 26.583C370.601 27.3861 369.608 28.4467 368.896 29.7648C368.199 31.0679 367.843 32.4997 367.828 34.0603V38.9012C367.828 40.9315 368.199 42.6739 368.942 44.1285C369.684 45.5679 370.722 46.6739 372.055 47.4467C373.389 48.2042 374.949 48.583 376.737 48.583C377.934 48.583 379.017 48.4164 379.987 48.083C380.957 47.7345 381.798 47.227 382.51 46.5603C383.222 45.8936 383.76 45.0679 384.123 44.083L391.805 44.9467C391.32 46.977 390.396 48.7497 389.033 50.2648C387.684 51.7648 385.957 52.9315 383.851 53.7648C381.745 54.583 379.336 54.9921 376.623 54.9921Z" fill="white"/>
<path d="M84.1055 37.9102L20.346 69.2893V58.6311M20.346 58.6311L63.2147 37.6739L20.346 16.7405V37.3858V58.6311Z" stroke="white" stroke-width="1.5"/>
<path d="M10.9005 1.3999V84.6299M10.9005 1.3999L1.32007 9.7229V76.3069L10.9005 84.6299M10.9005 1.3999L83.9514 37.0511V48.9548L10.9005 84.6299" stroke="white" stroke-width="1.5"/>
<path d="M20.2618 27.3623L52.4087 43.0615" stroke="white" stroke-width="1.5"/>
</svg>
