<svg width="395" height="86" viewBox="0 0 395 86" fill="none" xmlns="http://www.w3.org/2000/svg">
<path d="M106.232 70.5243C106.086 70.0753 105.892 69.6729 105.652 69.3172C105.416 68.9571 105.134 68.6503 104.805 68.3969C104.481 68.1435 104.112 67.9501 103.698 67.8167C103.285 67.6833 102.831 67.6166 102.338 67.6166C101.528 67.6166 100.793 67.8256 100.13 68.2435C99.4676 68.6614 98.9408 69.2772 98.5495 70.0908C98.1583 70.9044 97.9627 71.9026 97.9627 73.0852C97.9627 74.2679 98.1605 75.266 98.5562 76.0796C98.9519 76.8932 99.4877 77.509 100.163 77.9269C100.839 78.3449 101.6 78.5538 102.444 78.5538C103.227 78.5538 103.916 78.3871 104.512 78.0536C105.112 77.7157 105.579 77.24 105.912 76.6265C106.25 76.0085 106.419 75.2816 106.419 74.4457L106.926 74.5524H102.818V73.0852H108.02V74.5524C108.02 75.6772 107.779 76.6554 107.299 77.4868C106.824 78.3182 106.166 78.9629 105.325 79.4208C104.489 79.8743 103.529 80.101 102.444 80.101C101.235 80.101 100.172 79.8165 99.2565 79.2474C98.345 78.6783 97.6337 77.8691 97.1224 76.8199C96.6155 75.7706 96.3621 74.5257 96.3621 73.0852C96.3621 72.0048 96.5066 71.0334 96.7956 70.1708C97.089 69.3039 97.5025 68.5658 98.036 67.9567C98.5695 67.3476 99.2009 66.8808 99.93 66.5562C100.659 66.2317 101.462 66.0694 102.338 66.0694C103.058 66.0694 103.729 66.1783 104.352 66.3962C104.978 66.6096 105.536 66.9141 106.026 67.3098C106.519 67.7011 106.93 68.1701 107.259 68.717C107.588 69.2594 107.815 69.8618 107.94 70.5243H106.232ZM111.281 79.9143V69.6707H112.855V79.9143H111.281ZM112.081 67.9634C111.774 67.9634 111.51 67.8589 111.287 67.65C111.07 67.441 110.961 67.1898 110.961 66.8964C110.961 66.6029 111.07 66.3517 111.287 66.1428C111.51 65.9338 111.774 65.8293 112.081 65.8293C112.388 65.8293 112.65 65.9338 112.868 66.1428C113.09 66.3517 113.201 66.6029 113.201 66.8964C113.201 67.1898 113.09 67.441 112.868 67.65C112.65 67.8589 112.388 67.9634 112.081 67.9634ZM120.192 69.6707V71.0045H114.884V69.6707H120.192ZM116.431 67.2165H118.005V76.9799C118.005 77.4245 118.069 77.758 118.198 77.9803C118.332 78.1981 118.501 78.3449 118.705 78.4204C118.914 78.4916 119.134 78.5271 119.365 78.5271C119.539 78.5271 119.681 78.5183 119.792 78.5005C119.903 78.4782 119.992 78.4605 120.059 78.4471L120.379 79.861C120.272 79.901 120.123 79.941 119.932 79.981C119.741 80.0255 119.499 80.0477 119.205 80.0477C118.761 80.0477 118.325 79.9521 117.898 79.7609C117.476 79.5697 117.124 79.2785 116.844 78.8873C116.569 78.496 116.431 78.0025 116.431 77.4067V67.2165ZM122.993 79.9143V66.2561H124.647V72.3383H131.93V66.2561H133.584V79.9143H131.93V73.8055H124.647V79.9143H122.993ZM143.137 75.7262V69.6707H144.711V79.9143H143.137V78.1804H143.03C142.79 78.7005 142.417 79.1429 141.91 79.5075C141.403 79.8676 140.763 80.0477 139.989 80.0477C139.349 80.0477 138.78 79.9076 138.282 79.6275C137.784 79.343 137.393 78.9162 137.108 78.3471C136.824 77.7735 136.681 77.0511 136.681 76.1796V69.6707H138.255V76.0729C138.255 76.8199 138.464 77.4156 138.882 77.8602C139.305 78.3048 139.843 78.5271 140.496 78.5271C140.887 78.5271 141.285 78.4271 141.69 78.227C142.099 78.027 142.441 77.7202 142.717 77.3067C142.997 76.8932 143.137 76.3664 143.137 75.7262ZM147.807 79.9143V66.2561H149.381V71.2979H149.514C149.63 71.1201 149.79 70.8933 149.994 70.6177C150.203 70.3376 150.501 70.0886 150.888 69.8707C151.279 69.6484 151.808 69.5373 152.475 69.5373C153.338 69.5373 154.098 69.7529 154.756 70.1842C155.414 70.6154 155.928 71.2268 156.297 72.0182C156.666 72.8096 156.85 73.7432 156.85 74.8192C156.85 75.904 156.666 76.8443 156.297 77.6402C155.928 78.4316 155.416 79.0451 154.763 79.4808C154.109 79.9121 153.356 80.1277 152.502 80.1277C151.844 80.1277 151.317 80.0188 150.921 79.8009C150.526 79.5786 150.221 79.3274 150.008 79.0473C149.794 78.7628 149.63 78.5271 149.514 78.3404H149.328V79.9143H147.807ZM149.354 74.7925C149.354 75.5661 149.468 76.2486 149.694 76.8399C149.921 77.4268 150.252 77.8869 150.688 78.2204C151.124 78.5494 151.657 78.7139 152.289 78.7139C152.947 78.7139 153.496 78.5405 153.936 78.1937C154.38 77.8425 154.714 77.3712 154.936 76.7799C155.163 76.1841 155.276 75.5216 155.276 74.7925C155.276 74.0722 155.165 73.4231 154.943 72.8451C154.725 72.2627 154.394 71.8025 153.949 71.4646C153.509 71.1223 152.956 70.9511 152.289 70.9511C151.648 70.9511 151.11 71.1134 150.675 71.438C150.239 71.7581 149.91 72.2071 149.688 72.7851C149.465 73.3586 149.354 74.0278 149.354 74.7925ZM165.313 79.9143H163.579L168.594 66.2561H170.302L175.317 79.9143H173.583L169.501 68.4169H169.395L165.313 79.9143ZM165.953 74.5791H172.943V76.0463H165.953V74.5791ZM181.392 80.1277C180.432 80.1277 179.605 79.901 178.911 79.4475C178.218 78.994 177.684 78.3693 177.311 77.5735C176.937 76.7776 176.751 75.8684 176.751 74.8458C176.751 73.8055 176.942 72.8874 177.324 72.0915C177.711 71.2912 178.249 70.6666 178.938 70.2175C179.632 69.764 180.441 69.5373 181.366 69.5373C182.086 69.5373 182.735 69.6707 183.313 69.9374C183.891 70.2042 184.364 70.5777 184.733 71.0578C185.102 71.538 185.331 72.0982 185.42 72.7384H183.846C183.726 72.2716 183.46 71.8581 183.046 71.498C182.637 71.1334 182.086 70.9511 181.392 70.9511C180.779 70.9511 180.241 71.1112 179.778 71.4313C179.32 71.747 178.963 72.1938 178.705 72.7718C178.451 73.3453 178.325 74.0189 178.325 74.7925C178.325 75.5839 178.449 76.273 178.698 76.8599C178.951 77.4468 179.307 77.9025 179.765 78.227C180.227 78.5516 180.77 78.7139 181.392 78.7139C181.801 78.7139 182.173 78.6427 182.506 78.5005C182.839 78.3582 183.122 78.1537 183.353 77.8869C183.584 77.6202 183.749 77.3 183.846 76.9266H185.42C185.331 77.5312 185.111 78.0759 184.76 78.5605C184.413 79.0407 183.953 79.423 183.38 79.7076C182.811 79.9877 182.148 80.1277 181.392 80.1277ZM192.176 69.6707V71.0045H186.868V69.6707H192.176ZM188.415 67.2165H189.989V76.9799C189.989 77.4245 190.053 77.758 190.182 77.9803C190.315 78.1981 190.484 78.3449 190.689 78.4204C190.898 78.4916 191.118 78.5271 191.349 78.5271C191.523 78.5271 191.665 78.5183 191.776 78.5005C191.887 78.4782 191.976 78.4605 192.043 78.4471L192.363 79.861C192.256 79.901 192.107 79.941 191.916 79.981C191.725 80.0255 191.483 80.0477 191.189 80.0477C190.744 80.0477 190.309 79.9521 189.882 79.7609C189.46 79.5697 189.108 79.2785 188.828 78.8873C188.553 78.496 188.415 78.0025 188.415 77.4067V67.2165ZM194.544 79.9143V69.6707H196.118V79.9143H194.544ZM195.344 67.9634C195.037 67.9634 194.773 67.8589 194.55 67.65C194.332 67.441 194.224 67.1898 194.224 66.8964C194.224 66.6029 194.332 66.3517 194.55 66.1428C194.773 65.9338 195.037 65.8293 195.344 65.8293C195.651 65.8293 195.913 65.9338 196.131 66.1428C196.353 66.3517 196.464 66.6029 196.464 66.8964C196.464 67.1898 196.353 67.441 196.131 67.65C195.913 67.8589 195.651 67.9634 195.344 67.9634ZM203.162 80.1277C202.237 80.1277 201.426 79.9076 200.727 79.4675C200.034 79.0273 199.491 78.4116 199.1 77.6202C198.713 76.8288 198.52 75.904 198.52 74.8458C198.52 73.7788 198.713 72.8474 199.1 72.0515C199.491 71.2557 200.034 70.6377 200.727 70.1975C201.426 69.7574 202.237 69.5373 203.162 69.5373C204.086 69.5373 204.896 69.7574 205.589 70.1975C206.287 70.6377 206.83 71.2557 207.216 72.0515C207.608 72.8474 207.803 73.7788 207.803 74.8458C207.803 75.904 207.608 76.8288 207.216 77.6202C206.83 78.4116 206.287 79.0273 205.589 79.4675C204.896 79.9076 204.086 80.1277 203.162 80.1277ZM203.162 78.7139C203.864 78.7139 204.442 78.5338 204.896 78.1737C205.349 77.8136 205.685 77.3401 205.903 76.7532C206.121 76.1663 206.229 75.5305 206.229 74.8458C206.229 74.1612 206.121 73.5231 205.903 72.9318C205.685 72.3405 205.349 71.8626 204.896 71.498C204.442 71.1334 203.864 70.9511 203.162 70.9511C202.459 70.9511 201.881 71.1334 201.428 71.498C200.974 71.8626 200.639 72.3405 200.421 72.9318C200.203 73.5231 200.094 74.1612 200.094 74.8458C200.094 75.5305 200.203 76.1663 200.421 76.7532C200.639 77.3401 200.974 77.8136 201.428 78.1737C201.881 78.5338 202.459 78.7139 203.162 78.7139ZM211.78 73.7521V79.9143H210.206V69.6707H211.726V71.2712H211.86C212.1 70.7511 212.464 70.3331 212.953 70.0175C213.443 69.6973 214.074 69.5373 214.847 69.5373C215.541 69.5373 216.148 69.6796 216.668 69.9641C217.188 70.2442 217.593 70.671 217.882 71.2446C218.171 71.8137 218.315 72.5339 218.315 73.4053V79.9143H216.742V73.512C216.742 72.7073 216.533 72.0804 216.115 71.6314C215.697 71.1779 215.123 70.9511 214.394 70.9511C213.892 70.9511 213.443 71.0601 213.047 71.2779C212.656 71.4958 212.347 71.8137 212.12 72.2316C211.893 72.6495 211.78 73.1564 211.78 73.7521ZM228.447 71.9648L227.033 72.365C226.945 72.1293 226.813 71.9004 226.64 71.678C226.471 71.4513 226.24 71.2646 225.946 71.1178C225.653 70.9711 225.277 70.8978 224.819 70.8978C224.192 70.8978 223.67 71.0423 223.252 71.3313C222.839 71.6158 222.632 71.9782 222.632 72.4183C222.632 72.8096 222.774 73.1186 223.059 73.3453C223.343 73.5721 223.788 73.761 224.393 73.9122L225.913 74.2856C226.829 74.5079 227.511 74.8481 227.96 75.306C228.41 75.7595 228.634 76.3442 228.634 77.06C228.634 77.6468 228.465 78.1715 228.127 78.6339C227.794 79.0962 227.327 79.4608 226.727 79.7276C226.126 79.9943 225.428 80.1277 224.633 80.1277C223.588 80.1277 222.723 79.901 222.038 79.4475C221.354 78.994 220.92 78.3315 220.738 77.4601L222.232 77.0866C222.374 77.6379 222.643 78.0514 223.039 78.3271C223.439 78.6027 223.961 78.7406 224.606 78.7406C225.34 78.7406 225.922 78.5849 226.353 78.2737C226.789 77.9581 227.007 77.5801 227.007 77.14C227.007 76.7843 226.882 76.4864 226.633 76.2463C226.384 76.0018 226.002 75.8195 225.486 75.6995L223.779 75.2993C222.841 75.077 222.152 74.7325 221.712 74.2656C221.276 73.7944 221.058 73.2053 221.058 72.4983C221.058 71.9204 221.22 71.4091 221.545 70.9645C221.874 70.5199 222.321 70.1708 222.885 69.9174C223.454 69.664 224.099 69.5373 224.819 69.5373C225.833 69.5373 226.629 69.7596 227.207 70.2042C227.789 70.6488 228.203 71.2357 228.447 71.9648ZM240.847 69.6707V71.0045H235.325V69.6707H240.847ZM236.979 79.9143V68.2568C236.979 67.67 237.117 67.1809 237.392 66.7896C237.668 66.3984 238.026 66.105 238.466 65.9093C238.906 65.7137 239.371 65.6159 239.86 65.6159C240.247 65.6159 240.562 65.647 240.807 65.7093C241.051 65.7715 241.234 65.8293 241.354 65.8827L240.9 67.2431C240.82 67.2165 240.709 67.1831 240.567 67.1431C240.429 67.1031 240.247 67.0831 240.02 67.0831C239.5 67.0831 239.124 67.2142 238.893 67.4766C238.666 67.7389 238.553 68.1235 238.553 68.6303V79.9143H236.979ZM246.792 80.1277C245.867 80.1277 245.056 79.9076 244.358 79.4675C243.664 79.0273 243.122 78.4116 242.731 77.6202C242.344 76.8288 242.151 75.904 242.151 74.8458C242.151 73.7788 242.344 72.8474 242.731 72.0515C243.122 71.2557 243.664 70.6377 244.358 70.1975C245.056 69.7574 245.867 69.5373 246.792 69.5373C247.717 69.5373 248.526 69.7574 249.22 70.1975C249.918 70.6377 250.46 71.2557 250.847 72.0515C251.238 72.8474 251.434 73.7788 251.434 74.8458C251.434 75.904 251.238 76.8288 250.847 77.6202C250.46 78.4116 249.918 79.0273 249.22 79.4675C248.526 79.9076 247.717 80.1277 246.792 80.1277ZM246.792 78.7139C247.495 78.7139 248.073 78.5338 248.526 78.1737C248.98 77.8136 249.315 77.3401 249.533 76.7532C249.751 76.1663 249.86 75.5305 249.86 74.8458C249.86 74.1612 249.751 73.5231 249.533 72.9318C249.315 72.3405 248.98 71.8626 248.526 71.498C248.073 71.1334 247.495 70.9511 246.792 70.9511C246.09 70.9511 245.512 71.1334 245.058 71.498C244.605 71.8626 244.269 72.3405 244.051 72.9318C243.833 73.5231 243.724 74.1612 243.724 74.8458C243.724 75.5305 243.833 76.1663 244.051 76.7532C244.269 77.3401 244.605 77.8136 245.058 78.1737C245.512 78.5338 246.09 78.7139 246.792 78.7139ZM253.836 79.9143V69.6707H255.357V71.2179H255.464C255.65 70.711 255.988 70.2998 256.477 69.9841C256.966 69.6684 257.518 69.5106 258.131 69.5106C258.247 69.5106 258.391 69.5128 258.565 69.5173C258.738 69.5217 258.869 69.5284 258.958 69.5373V71.1379C258.905 71.1245 258.783 71.1045 258.591 71.0778C258.405 71.0467 258.207 71.0312 257.998 71.0312C257.5 71.0312 257.055 71.1356 256.664 71.3446C256.277 71.5491 255.97 71.8337 255.744 72.1982C255.521 72.5584 255.41 72.9696 255.41 73.432V79.9143H253.836ZM271.548 66.2561H273.202V76.0196C273.202 76.891 273.041 77.6313 272.721 78.2404C272.401 78.8495 271.95 79.3119 271.368 79.6275C270.785 79.9432 270.098 80.101 269.307 80.101C268.56 80.101 267.895 79.9654 267.313 79.6942C266.73 79.4186 266.272 79.0273 265.939 78.5205C265.606 78.0136 265.439 77.4112 265.439 76.7132H267.066C267.066 77.1 267.162 77.4379 267.353 77.7269C267.548 78.0114 267.815 78.2337 268.153 78.3938C268.491 78.5538 268.876 78.6339 269.307 78.6339C269.783 78.6339 270.187 78.5338 270.521 78.3337C270.854 78.1337 271.107 77.8402 271.281 77.4534C271.459 77.0622 271.548 76.5842 271.548 76.0196V66.2561ZM280.598 80.1277C279.61 80.1277 278.759 79.9099 278.043 79.4742C277.332 79.034 276.783 78.4204 276.396 77.6335C276.014 76.8421 275.822 75.9218 275.822 74.8725C275.822 73.8233 276.014 72.8985 276.396 72.0982C276.783 71.2935 277.321 70.6666 278.01 70.2175C278.704 69.764 279.513 69.5373 280.437 69.5373C280.971 69.5373 281.498 69.6262 282.018 69.804C282.538 69.9819 283.012 70.2709 283.439 70.671C283.865 71.0667 284.205 71.5914 284.459 72.2449C284.712 72.8985 284.839 73.7032 284.839 74.6591V75.326H276.943V73.9655H283.238C283.238 73.3875 283.123 72.8718 282.892 72.4183C282.665 71.9648 282.34 71.6069 281.918 71.3446C281.5 71.0823 281.007 70.9511 280.437 70.9511C279.811 70.9511 279.268 71.1067 278.81 71.418C278.357 71.7247 278.008 72.1249 277.763 72.6184C277.519 73.1119 277.396 73.641 277.396 74.2056V75.1126C277.396 75.8862 277.53 76.542 277.797 77.08C278.068 77.6135 278.443 78.0203 278.924 78.3004C279.404 78.5761 279.962 78.7139 280.598 78.7139C281.011 78.7139 281.384 78.6561 281.718 78.5405C282.056 78.4204 282.347 78.2426 282.592 78.007C282.836 77.7669 283.025 77.469 283.158 77.1133L284.679 77.5401C284.519 78.0559 284.25 78.5094 283.872 78.9006C283.494 79.2874 283.027 79.5897 282.472 79.8076C281.916 80.021 281.291 80.1277 280.598 80.1277ZM291.688 69.6707V71.0045H286.38V69.6707H291.688ZM287.927 67.2165H289.501V76.9799C289.501 77.4245 289.565 77.758 289.694 77.9803C289.827 78.1981 289.996 78.3449 290.201 78.4204C290.41 78.4916 290.63 78.5271 290.861 78.5271C291.035 78.5271 291.177 78.5183 291.288 78.5005C291.399 78.4782 291.488 78.4605 291.555 78.4471L291.875 79.861C291.768 79.901 291.619 79.941 291.428 79.981C291.237 80.0255 290.995 80.0477 290.701 80.0477C290.256 80.0477 289.821 79.9521 289.394 79.7609C288.972 79.5697 288.62 79.2785 288.34 78.8873C288.065 78.496 287.927 78.0025 287.927 77.4067V67.2165ZM294.489 79.9143V66.2561H299.264C300.216 66.2561 301 66.4206 301.618 66.7496C302.236 67.0742 302.696 67.5121 302.999 68.0634C303.301 68.6103 303.452 69.2172 303.452 69.8841C303.452 70.471 303.348 70.9556 303.139 71.3379C302.934 71.7203 302.663 72.0226 302.325 72.2449C301.992 72.4672 301.629 72.6317 301.238 72.7384V72.8718C301.656 72.8985 302.076 73.0452 302.499 73.312C302.921 73.5787 303.274 73.9611 303.559 74.459C303.844 74.957 303.986 75.5661 303.986 76.2864C303.986 76.971 303.83 77.5868 303.519 78.1337C303.208 78.6805 302.716 79.114 302.045 79.4341C301.374 79.7542 300.5 79.9143 299.424 79.9143H294.489ZM296.143 78.4471H299.424C300.505 78.4471 301.272 78.2382 301.725 77.8202C302.183 77.3979 302.412 76.8866 302.412 76.2864C302.412 75.824 302.294 75.3971 302.058 75.0059C301.823 74.6102 301.487 74.2945 301.051 74.0589C300.616 73.8188 300.1 73.6988 299.504 73.6988H296.143V78.4471ZM296.143 72.2583H299.211C299.709 72.2583 300.158 72.1604 300.558 71.9648C300.963 71.7692 301.283 71.4935 301.518 71.1379C301.758 70.7822 301.878 70.3642 301.878 69.8841C301.878 69.2839 301.669 68.7748 301.252 68.3569C300.834 67.9345 300.171 67.7233 299.264 67.7233H296.143V72.2583ZM306.49 79.9143V69.6707H308.011V71.2179H308.117C308.304 70.711 308.642 70.2998 309.131 69.9841C309.62 69.6684 310.171 69.5106 310.785 69.5106C310.9 69.5106 311.045 69.5128 311.218 69.5173C311.392 69.5217 311.523 69.5284 311.612 69.5373V71.1379C311.558 71.1245 311.436 71.1045 311.245 71.0778C311.058 71.0467 310.86 71.0312 310.652 71.0312C310.154 71.0312 309.709 71.1356 309.318 71.3446C308.931 71.5491 308.624 71.8337 308.397 72.1982C308.175 72.5584 308.064 72.9696 308.064 73.432V79.9143H306.49ZM316.492 80.1544C315.843 80.1544 315.254 80.0321 314.725 79.7876C314.196 79.5386 313.775 79.1807 313.464 78.7139C313.153 78.2426 312.997 77.6735 312.997 77.0066C312.997 76.4197 313.113 75.944 313.344 75.5794C313.575 75.2104 313.884 74.9214 314.271 74.7125C314.658 74.5035 315.085 74.3479 315.552 74.2456C316.023 74.1389 316.496 74.0544 316.972 73.9922C317.595 73.9122 318.099 73.8522 318.486 73.8121C318.877 73.7677 319.162 73.6943 319.34 73.5921C319.522 73.4898 319.613 73.312 319.613 73.0585V73.0052C319.613 72.3472 319.433 71.8359 319.073 71.4713C318.717 71.1067 318.177 70.9244 317.452 70.9244C316.701 70.9244 316.112 71.089 315.685 71.418C315.258 71.747 314.958 72.0982 314.785 72.4717L313.291 71.9381C313.558 71.3157 313.913 70.8311 314.358 70.4843C314.807 70.1331 315.296 69.8885 315.825 69.7507C316.359 69.6084 316.883 69.5373 317.399 69.5373C317.728 69.5373 318.106 69.5773 318.533 69.6573C318.964 69.7329 319.38 69.8907 319.78 70.1308C320.184 70.3709 320.52 70.7333 320.787 71.2179C321.054 71.7025 321.187 72.3516 321.187 73.1652V79.9143H319.613V78.5271H319.533C319.426 78.7494 319.248 78.9873 318.999 79.2407C318.75 79.4942 318.419 79.7098 318.006 79.8876C317.592 80.0655 317.088 80.1544 316.492 80.1544ZM316.732 78.7406C317.354 78.7406 317.879 78.6183 318.306 78.3738C318.737 78.1292 319.062 77.8136 319.28 77.4268C319.502 77.04 319.613 76.6331 319.613 76.2063V74.7658C319.546 74.8458 319.4 74.9192 319.173 74.9859C318.951 75.0481 318.693 75.1037 318.399 75.1526C318.11 75.1971 317.828 75.2371 317.552 75.2727C317.281 75.3038 317.061 75.3305 316.892 75.3527C316.483 75.406 316.101 75.4927 315.745 75.6128C315.394 75.7284 315.109 75.904 314.891 76.1396C314.678 76.3708 314.571 76.6865 314.571 77.0866C314.571 77.6335 314.774 78.047 315.178 78.3271C315.587 78.6027 316.105 78.7406 316.732 78.7406ZM324.06 79.9143V69.6707H325.633V79.9143H324.06ZM324.86 67.9634C324.553 67.9634 324.289 67.8589 324.066 67.65C323.848 67.441 323.739 67.1898 323.739 66.8964C323.739 66.6029 323.848 66.3517 324.066 66.1428C324.289 65.9338 324.553 65.8293 324.86 65.8293C325.167 65.8293 325.429 65.9338 325.647 66.1428C325.869 66.3517 325.98 66.6029 325.98 66.8964C325.98 67.1898 325.869 67.441 325.647 67.65C325.429 67.8589 325.167 67.9634 324.86 67.9634ZM330.09 73.7521V79.9143H328.516V69.6707H330.037V71.2712H330.17C330.41 70.7511 330.775 70.3331 331.264 70.0175C331.753 69.6973 332.384 69.5373 333.158 69.5373C333.851 69.5373 334.458 69.6796 334.978 69.9641C335.499 70.2442 335.903 70.671 336.192 71.2446C336.481 71.8137 336.626 72.5339 336.626 73.4053V79.9143H335.052V73.512C335.052 72.7073 334.843 72.0804 334.425 71.6314C334.007 71.1779 333.433 70.9511 332.704 70.9511C332.202 70.9511 331.753 71.0601 331.357 71.2779C330.966 71.4958 330.657 71.8137 330.43 72.2316C330.203 72.6495 330.09 73.1564 330.09 73.7521ZM346.758 71.9648L345.344 72.365C345.255 72.1293 345.124 71.9004 344.95 71.678C344.781 71.4513 344.55 71.2646 344.257 71.1178C343.963 70.9711 343.588 70.8978 343.13 70.8978C342.503 70.8978 341.98 71.0423 341.562 71.3313C341.149 71.6158 340.942 71.9782 340.942 72.4183C340.942 72.8096 341.085 73.1186 341.369 73.3453C341.654 73.5721 342.098 73.761 342.703 73.9122L344.223 74.2856C345.139 74.5079 345.822 74.8481 346.271 75.306C346.72 75.7595 346.944 76.3442 346.944 77.06C346.944 77.6468 346.775 78.1715 346.438 78.6339C346.104 79.0962 345.637 79.4608 345.037 79.7276C344.437 79.9943 343.739 80.1277 342.943 80.1277C341.898 80.1277 341.033 79.901 340.349 79.4475C339.664 78.994 339.231 78.3315 339.048 77.4601L340.542 77.0866C340.684 77.6379 340.953 78.0514 341.349 78.3271C341.749 78.6027 342.272 78.7406 342.916 78.7406C343.65 78.7406 344.232 78.5849 344.664 78.2737C345.099 77.9581 345.317 77.5801 345.317 77.14C345.317 76.7843 345.193 76.4864 344.944 76.2463C344.695 76.0018 344.312 75.8195 343.797 75.6995L342.089 75.2993C341.151 75.077 340.462 74.7325 340.022 74.2656C339.586 73.7944 339.368 73.2053 339.368 72.4983C339.368 71.9204 339.531 71.4091 339.855 70.9645C340.184 70.5199 340.631 70.1708 341.196 69.9174C341.765 69.664 342.409 69.5373 343.13 69.5373C344.143 69.5373 344.939 69.7596 345.517 70.2042C346.1 70.6488 346.513 71.2357 346.758 71.9648ZM356.463 66.2561V79.9143H354.809V66.2561H356.463ZM363.994 79.9143H359.779V66.2561H364.181C365.505 66.2561 366.639 66.5296 367.582 67.0764C368.524 67.6188 369.247 68.3991 369.749 69.4172C370.252 70.4309 370.503 71.6447 370.503 73.0585C370.503 74.4813 370.249 75.7061 369.742 76.7332C369.236 77.7558 368.498 78.5427 367.528 79.094C366.559 79.6409 365.381 79.9143 363.994 79.9143ZM361.433 78.4471H363.887C365.016 78.4471 365.952 78.2293 366.695 77.7936C367.437 77.3578 367.991 76.7376 368.355 75.9329C368.72 75.1282 368.902 74.17 368.902 73.0585C368.902 71.9559 368.722 71.0067 368.362 70.2109C368.002 69.4106 367.464 68.797 366.748 68.3702C366.032 67.9389 365.141 67.7233 364.074 67.7233H361.433V78.4471ZM373.277 79.9143V66.2561H381.52V67.7233H374.931V72.3383H381.093V73.8055H374.931V78.4471H381.627V79.9143H373.277ZM391.544 71.9648L390.13 72.365C390.041 72.1293 389.91 71.9004 389.736 71.678C389.567 71.4513 389.336 71.2646 389.043 71.1178C388.749 70.9711 388.374 70.8978 387.916 70.8978C387.289 70.8978 386.766 71.0423 386.348 71.3313C385.935 71.6158 385.728 71.9782 385.728 72.4183C385.728 72.8096 385.87 73.1186 386.155 73.3453C386.44 73.5721 386.884 73.761 387.489 73.9122L389.009 74.2856C389.925 74.5079 390.608 74.8481 391.057 75.306C391.506 75.7595 391.73 76.3442 391.73 77.06C391.73 77.6468 391.561 78.1715 391.223 78.6339C390.89 79.0962 390.423 79.4608 389.823 79.7276C389.223 79.9943 388.525 80.1277 387.729 80.1277C386.684 80.1277 385.819 79.901 385.135 79.4475C384.45 78.994 384.016 78.3315 383.834 77.4601L385.328 77.0866C385.47 77.6379 385.739 78.0514 386.135 78.3271C386.535 78.6027 387.058 78.7406 387.702 78.7406C388.436 78.7406 389.018 78.5849 389.449 78.2737C389.885 77.9581 390.103 77.5801 390.103 77.14C390.103 76.7843 389.979 76.4864 389.73 76.2463C389.481 76.0018 389.098 75.8195 388.583 75.6995L386.875 75.2993C385.937 75.077 385.248 74.7325 384.808 74.2656C384.372 73.7944 384.154 73.2053 384.154 72.4983C384.154 71.9204 384.317 71.4091 384.641 70.9645C384.97 70.5199 385.417 70.1708 385.982 69.9174C386.551 69.664 387.195 69.5373 387.916 69.5373C388.929 69.5373 389.725 69.7596 390.303 70.2042C390.886 70.6488 391.299 71.2357 391.544 71.9648Z" fill="black"/>
<path d="M105.377 53.9104H96.3773L112.764 7.36494H123.173L139.582 53.9104H130.582L118.15 16.9104H117.786L105.377 53.9104ZM105.673 35.6604H130.218V42.4331H105.673V35.6604ZM159.514 54.5922C156.029 54.5922 153.036 53.8271 150.536 52.2968C148.052 50.7665 146.135 48.6528 144.786 45.9559C143.453 43.2437 142.786 40.1225 142.786 36.5922C142.786 33.0468 143.468 29.918 144.832 27.2059C146.195 24.4786 148.12 22.3574 150.605 20.8422C153.105 19.3119 156.059 18.5468 159.468 18.5468C162.302 18.5468 164.809 19.0695 166.991 20.1149C169.188 21.1452 170.938 22.6074 172.241 24.5013C173.544 26.3801 174.286 28.5771 174.468 31.0922H166.605C166.286 29.4104 165.529 28.0089 164.332 26.8877C163.15 25.7513 161.567 25.1831 159.582 25.1831C157.9 25.1831 156.423 25.6377 155.15 26.5468C153.877 27.4407 152.885 28.7286 152.173 30.4104C151.476 32.0922 151.127 34.1074 151.127 36.4559C151.127 38.8346 151.476 40.8801 152.173 42.5922C152.87 44.2892 153.847 45.5998 155.105 46.524C156.377 47.4331 157.87 47.8877 159.582 47.8877C160.794 47.8877 161.877 47.6604 162.832 47.2059C163.802 46.7362 164.612 46.0619 165.264 45.1831C165.915 44.3043 166.362 43.2362 166.605 41.9786H174.468C174.271 44.4483 173.544 46.6377 172.286 48.5468C171.029 50.4407 169.317 51.9256 167.15 53.0013C164.983 54.0619 162.438 54.5922 159.514 54.5922ZM198.656 19.0013V25.3649H178.587V19.0013H198.656ZM183.542 10.6377H191.769V43.4104C191.769 44.5165 191.936 45.3649 192.269 45.9559C192.618 46.5316 193.072 46.9256 193.633 47.1377C194.194 47.3498 194.815 47.4559 195.497 47.4559C196.012 47.4559 196.481 47.418 196.906 47.3422C197.345 47.2665 197.678 47.1983 197.906 47.1377L199.292 53.5695C198.853 53.721 198.224 53.8877 197.406 54.0695C196.603 54.2513 195.618 54.3574 194.451 54.3877C192.391 54.4483 190.534 54.1377 188.883 53.4559C187.231 52.7589 185.921 51.6831 184.951 50.2286C183.997 48.774 183.527 46.9559 183.542 44.774V10.6377ZM205.536 53.9104V19.0013H213.764V53.9104H205.536ZM209.673 14.0468C208.37 14.0468 207.248 13.6149 206.309 12.7513C205.37 11.8725 204.9 10.8195 204.9 9.59222C204.9 8.34979 205.37 7.29676 206.309 6.43312C207.248 5.55434 208.37 5.11494 209.673 5.11494C210.991 5.11494 212.112 5.55434 213.036 6.43312C213.976 7.29676 214.445 8.34979 214.445 9.59222C214.445 10.8195 213.976 11.8725 213.036 12.7513C212.112 13.6149 210.991 14.0468 209.673 14.0468ZM237.451 54.5922C234.042 54.5922 231.087 53.8422 228.587 52.3422C226.087 50.8422 224.148 48.7437 222.769 46.0468C221.406 43.3498 220.724 40.1983 220.724 36.5922C220.724 32.9862 221.406 29.8271 222.769 27.1149C224.148 24.4028 226.087 22.2968 228.587 20.7968C231.087 19.2968 234.042 18.5468 237.451 18.5468C240.86 18.5468 243.815 19.2968 246.315 20.7968C248.815 22.2968 250.747 24.4028 252.11 27.1149C253.489 29.8271 254.178 32.9862 254.178 36.5922C254.178 40.1983 253.489 43.3498 252.11 46.0468C250.747 48.7437 248.815 50.8422 246.315 52.3422C243.815 53.8422 240.86 54.5922 237.451 54.5922ZM237.497 48.0013C239.345 48.0013 240.891 47.4937 242.133 46.4786C243.375 45.4483 244.3 44.0695 244.906 42.3422C245.527 40.6149 245.837 38.6907 245.837 36.5695C245.837 34.4331 245.527 32.5013 244.906 30.774C244.3 29.0316 243.375 27.6452 242.133 26.6149C240.891 25.5846 239.345 25.0695 237.497 25.0695C235.603 25.0695 234.027 25.5846 232.769 26.6149C231.527 27.6452 230.595 29.0316 229.974 30.774C229.368 32.5013 229.065 34.4331 229.065 36.5695C229.065 38.6907 229.368 40.6149 229.974 42.3422C230.595 44.0695 231.527 45.4483 232.769 46.4786C234.027 47.4937 235.603 48.0013 237.497 48.0013ZM269.389 33.4559V53.9104H261.161V19.0013H269.025V24.9331H269.434C270.237 22.9786 271.517 21.4256 273.275 20.274C275.048 19.1225 277.237 18.5468 279.843 18.5468C282.252 18.5468 284.351 19.0619 286.139 20.0922C287.942 21.1225 289.336 22.6149 290.32 24.5695C291.32 26.524 291.813 28.8952 291.798 31.6831V53.9104H283.57V32.9559C283.57 30.6225 282.964 28.7968 281.752 27.4786C280.555 26.1604 278.896 25.5013 276.775 25.5013C275.336 25.5013 274.055 25.8195 272.934 26.4559C271.828 27.0771 270.957 27.9786 270.32 29.1604C269.699 30.3422 269.389 31.774 269.389 33.4559ZM310.207 54.6149C307.995 54.6149 306.002 54.221 304.23 53.4331C302.472 52.6301 301.078 51.4483 300.048 49.8877C299.033 48.3271 298.525 46.4028 298.525 44.1149C298.525 42.1452 298.889 40.5165 299.616 39.2286C300.343 37.9407 301.336 36.9104 302.593 36.1377C303.851 35.3649 305.267 34.7816 306.843 34.3877C308.434 33.9786 310.078 33.6831 311.775 33.5013C313.82 33.2892 315.48 33.0998 316.752 32.9331C318.025 32.7513 318.949 32.4786 319.525 32.1149C320.116 31.7362 320.411 31.1528 320.411 30.3649V30.2286C320.411 28.5165 319.904 27.1907 318.889 26.2513C317.873 25.3119 316.411 24.8422 314.502 24.8422C312.487 24.8422 310.889 25.2816 309.707 26.1604C308.54 27.0392 307.752 28.0771 307.343 29.274L299.661 28.1831C300.267 26.0619 301.267 24.2892 302.661 22.8649C304.055 21.4255 305.76 20.3498 307.775 19.6377C309.79 18.9104 312.017 18.5468 314.457 18.5468C316.139 18.5468 317.813 18.7437 319.48 19.1377C321.146 19.5316 322.669 20.1831 324.048 21.0922C325.427 21.9862 326.533 23.2059 327.366 24.7513C328.214 26.2968 328.639 28.2286 328.639 30.5468V53.9104H320.73V49.1149H320.457C319.957 50.0846 319.252 50.9937 318.343 51.8422C317.449 52.6756 316.32 53.3498 314.957 53.8649C313.608 54.3649 312.025 54.6149 310.207 54.6149ZM312.343 48.5695C313.995 48.5695 315.427 48.2437 316.639 47.5922C317.851 46.9256 318.783 46.0468 319.434 44.9559C320.101 43.8649 320.434 42.6756 320.434 41.3877V37.274C320.177 37.4862 319.737 37.6831 319.116 37.8649C318.51 38.0468 317.828 38.2059 317.07 38.3422C316.313 38.4786 315.563 38.5998 314.82 38.7059C314.078 38.8119 313.434 38.9028 312.889 38.9786C311.661 39.1452 310.563 39.418 309.593 39.7968C308.623 40.1756 307.858 40.7059 307.298 41.3877C306.737 42.0543 306.457 42.918 306.457 43.9786C306.457 45.4937 307.01 46.6377 308.116 47.4104C309.222 48.1831 310.631 48.5695 312.343 48.5695ZM354.343 19.0013V25.3649H334.275V19.0013H354.343ZM339.23 10.6377H347.457V43.4104C347.457 44.5165 347.623 45.3649 347.957 45.9559C348.305 46.5316 348.76 46.9256 349.32 47.1377C349.881 47.3498 350.502 47.4559 351.184 47.4559C351.699 47.4559 352.169 47.418 352.593 47.3422C353.033 47.2665 353.366 47.1983 353.593 47.1377L354.98 53.5695C354.54 53.721 353.911 53.8877 353.093 54.0695C352.29 54.2513 351.305 54.3574 350.139 54.3877C348.078 54.4483 346.222 54.1377 344.57 53.4559C342.919 52.7589 341.608 51.6831 340.639 50.2286C339.684 48.774 339.214 46.9559 339.23 44.774V10.6377ZM376.303 54.5922C372.803 54.5922 369.781 53.8649 367.235 52.4104C364.705 50.9407 362.758 48.8649 361.394 46.1831C360.031 43.4862 359.349 40.3119 359.349 36.6604C359.349 33.0695 360.031 29.918 361.394 27.2059C362.773 24.4786 364.697 22.3574 367.167 20.8422C369.637 19.3119 372.538 18.5468 375.872 18.5468C378.023 18.5468 380.053 18.8952 381.962 19.5922C383.887 20.274 385.584 21.3346 387.053 22.774C388.538 24.2134 389.705 26.0468 390.553 28.274C391.402 30.4862 391.826 33.1225 391.826 36.1831V38.7059H363.212V33.1604H383.94C383.925 31.5846 383.584 30.1831 382.917 28.9559C382.25 27.7134 381.319 26.7362 380.122 26.024C378.94 25.3119 377.561 24.9559 375.985 24.9559C374.303 24.9559 372.826 25.3649 371.553 26.1831C370.281 26.9862 369.288 28.0468 368.576 29.3649C367.879 30.668 367.523 32.0998 367.508 33.6604V38.5013C367.508 40.5316 367.879 42.274 368.622 43.7286C369.364 45.168 370.402 46.274 371.735 47.0468C373.069 47.8043 374.629 48.1831 376.417 48.1831C377.614 48.1831 378.697 48.0165 379.667 47.6831C380.637 47.3346 381.478 46.8271 382.19 46.1604C382.902 45.4937 383.44 44.668 383.803 43.6831L391.485 44.5468C391 46.5771 390.076 48.3498 388.712 49.8649C387.364 51.3649 385.637 52.5316 383.531 53.3649C381.425 54.1831 379.016 54.5922 376.303 54.5922Z" fill="black"/>
<path d="M83.7854 37.5104L20.0259 68.8895V58.2313M20.0259 58.2313L62.8946 37.2741L20.0259 16.3407V36.986V58.2313Z" stroke="black" stroke-width="1.5"/>
<path d="M10.5804 1V84.23M10.5804 1L1 9.323V75.907L10.5804 84.23M10.5804 1L83.6313 36.6512V48.5549L10.5804 84.23" stroke="black" stroke-width="1.5"/>
<path d="M19.9418 26.9624L52.0886 42.6616" stroke="black" stroke-width="1.5"/>
</svg>
