<svg width="596" height="134" viewBox="0 0 596 134" fill="none" xmlns="http://www.w3.org/2000/svg">
<g filter="url(#filter0_d_3413_7344)">
<path d="M172.707 97.4174H163.843L189.479 27.5992H198.207L223.843 97.4174H214.979L194.116 38.6446H193.57L172.707 97.4174ZM175.979 70.1446H211.707V77.6446H175.979V70.1446ZM254.9 98.5083C249.991 98.5083 245.763 97.3492 242.218 95.031C238.673 92.7128 235.945 89.5196 234.036 85.4514C232.127 81.3833 231.173 76.7355 231.173 71.5083C231.173 66.1901 232.15 61.4969 234.104 57.4287C236.082 53.3378 238.832 50.1446 242.354 47.8492C245.9 45.531 250.036 44.3719 254.763 44.3719C258.445 44.3719 261.763 45.0537 264.718 46.4174C267.673 47.781 270.093 49.6901 271.979 52.1446C273.866 54.5992 275.036 57.4628 275.491 60.7355H267.445C266.832 58.3492 265.468 56.2355 263.354 54.3946C261.263 52.531 258.445 51.5992 254.9 51.5992C251.763 51.5992 249.013 52.4174 246.65 54.0537C244.309 55.6674 242.479 57.9514 241.161 60.906C239.866 63.8378 239.218 67.281 239.218 71.2355C239.218 75.281 239.854 78.8037 241.127 81.8037C242.423 84.8037 244.241 87.1333 246.582 88.7924C248.945 90.4514 251.718 91.281 254.9 91.281C256.991 91.281 258.888 90.9174 260.593 90.1901C262.298 89.4628 263.741 88.4174 264.923 87.0537C266.104 85.6901 266.945 84.0537 267.445 82.1446H275.491C275.036 85.2355 273.911 88.0196 272.116 90.4969C270.343 92.9514 267.991 94.906 265.059 96.3605C262.15 97.7924 258.763 98.5083 254.9 98.5083ZM310.025 45.0537V51.8719H282.888V45.0537H310.025ZM290.798 32.5083H298.843V82.4174C298.843 84.6901 299.173 86.3946 299.832 87.531C300.513 88.6446 301.377 89.3946 302.423 89.781C303.491 90.1446 304.616 90.3264 305.798 90.3264C306.684 90.3264 307.411 90.281 307.979 90.1901C308.548 90.0764 309.002 89.9855 309.343 89.9174L310.979 97.1446C310.434 97.3492 309.673 97.5537 308.695 97.7583C307.718 97.9855 306.479 98.0992 304.979 98.0992C302.707 98.0992 300.479 97.6105 298.298 96.6333C296.138 95.656 294.343 94.1674 292.911 92.1674C291.502 90.1674 290.798 87.6446 290.798 84.5992V32.5083ZM322.127 97.4174V45.0537H330.173V97.4174H322.127ZM326.218 36.3265C324.65 36.3265 323.298 35.7924 322.161 34.7242C321.048 33.656 320.491 32.3719 320.491 30.8719C320.491 29.3719 321.048 28.0878 322.161 27.0196C323.298 25.9514 324.65 25.4174 326.218 25.4174C327.786 25.4174 329.127 25.9514 330.241 27.0196C331.377 28.0878 331.945 29.3719 331.945 30.8719C331.945 32.3719 331.377 33.656 330.241 34.7242C329.127 35.7924 327.786 36.3265 326.218 36.3265ZM366.181 98.5083C361.454 98.5083 357.306 97.3833 353.738 95.1333C350.192 92.8833 347.42 89.7355 345.42 85.6901C343.442 81.6446 342.454 76.9174 342.454 71.5083C342.454 66.0537 343.442 61.2924 345.42 57.2242C347.42 53.156 350.192 49.9969 353.738 47.7469C357.306 45.4969 361.454 44.3719 366.181 44.3719C370.908 44.3719 375.045 45.4969 378.59 47.7469C382.158 49.9969 384.931 53.156 386.908 57.2242C388.908 61.2924 389.908 66.0537 389.908 71.5083C389.908 76.9174 388.908 81.6446 386.908 85.6901C384.931 89.7355 382.158 92.8833 378.59 95.1333C375.045 97.3833 370.908 98.5083 366.181 98.5083ZM366.181 91.281C369.772 91.281 372.726 90.3605 375.045 88.5196C377.363 86.6787 379.079 84.2583 380.192 81.2583C381.306 78.2583 381.863 75.0083 381.863 71.5083C381.863 68.0083 381.306 64.7469 380.192 61.7242C379.079 58.7014 377.363 56.2583 375.045 54.3946C372.726 52.531 369.772 51.5992 366.181 51.5992C362.59 51.5992 359.636 52.531 357.317 54.3946C354.999 56.2583 353.283 58.7014 352.17 61.7242C351.056 64.7469 350.499 68.0083 350.499 71.5083C350.499 75.0083 351.056 78.2583 352.17 81.2583C353.283 84.2583 354.999 86.6787 357.317 88.5196C359.636 90.3605 362.59 91.281 366.181 91.281ZM410.235 65.9174V97.4174H402.19V45.0537H409.962V53.2355H410.644C411.871 50.5764 413.735 48.4401 416.235 46.8265C418.735 45.1901 421.962 44.3719 425.917 44.3719C429.462 44.3719 432.565 45.0992 435.224 46.5537C437.883 47.9855 439.951 50.1674 441.428 53.0992C442.905 56.0083 443.644 59.6901 443.644 64.1446V97.4174H435.599V64.6901C435.599 60.5764 434.53 57.3719 432.394 55.0764C430.258 52.7583 427.326 51.5992 423.599 51.5992C421.03 51.5992 418.735 52.156 416.712 53.2696C414.712 54.3833 413.133 56.0083 411.974 58.1446C410.815 60.281 410.235 62.8719 410.235 65.9174ZM473.755 98.6446C470.437 98.6446 467.425 98.0196 464.721 96.7696C462.016 95.4969 459.869 93.6674 458.278 91.281C456.687 88.8719 455.891 85.9628 455.891 82.5537C455.891 79.5537 456.482 77.1219 457.664 75.2583C458.846 73.3719 460.425 71.8946 462.403 70.8264C464.38 69.7583 466.562 68.9628 468.948 68.4401C471.357 67.8946 473.778 67.4628 476.209 67.1446C479.391 66.7355 481.971 66.4287 483.948 66.2242C485.948 65.9969 487.403 65.6219 488.312 65.0992C489.244 64.5764 489.709 63.6674 489.709 62.3719V62.0992C489.709 58.7355 488.789 56.1219 486.948 54.2583C485.13 52.3946 482.369 51.4628 478.664 51.4628C474.823 51.4628 471.812 52.3037 469.63 53.9855C467.448 55.6674 465.914 57.4628 465.028 59.3719L457.391 56.6446C458.755 53.4628 460.573 50.9855 462.846 49.2128C465.141 47.4174 467.641 46.1674 470.346 45.4628C473.073 44.7355 475.755 44.3719 478.391 44.3719C480.073 44.3719 482.005 44.5764 484.187 44.9855C486.391 45.3719 488.516 46.1787 490.562 47.406C492.63 48.6333 494.346 50.4855 495.709 52.9628C497.073 55.4401 497.755 58.7583 497.755 62.9174V97.4174H489.709V90.3264H489.3C488.755 91.4628 487.846 92.6787 486.573 93.9742C485.3 95.2696 483.607 96.3719 481.494 97.281C479.38 98.1901 476.8 98.6446 473.755 98.6446ZM474.982 91.4174C478.164 91.4174 480.846 90.7924 483.028 89.5424C485.232 88.2924 486.891 86.6787 488.005 84.7014C489.141 82.7242 489.709 80.6446 489.709 78.4628V71.0992C489.369 71.5083 488.619 71.8833 487.459 72.2242C486.323 72.5424 485.005 72.8264 483.505 73.0764C482.028 73.3037 480.584 73.5083 479.175 73.6901C477.789 73.8492 476.664 73.9855 475.8 74.0992C473.709 74.3719 471.755 74.8151 469.937 75.4287C468.141 76.0196 466.687 76.9174 465.573 78.1219C464.482 79.3037 463.937 80.9174 463.937 82.9628C463.937 85.7583 464.971 87.8719 467.039 89.3037C469.13 90.7128 471.778 91.4174 474.982 91.4174ZM535.212 45.0537V51.8719H508.076V45.0537H535.212ZM515.985 32.5083H524.03V82.4174C524.03 84.6901 524.36 86.3946 525.019 87.531C525.701 88.6446 526.565 89.3946 527.61 89.781C528.678 90.1446 529.803 90.3264 530.985 90.3264C531.871 90.3264 532.599 90.281 533.167 90.1901C533.735 90.0764 534.19 89.9855 534.53 89.9174L536.167 97.1446C535.621 97.3492 534.86 97.5537 533.883 97.7583C532.905 97.9855 531.667 98.0992 530.167 98.0992C527.894 98.0992 525.667 97.6105 523.485 96.6333C521.326 95.656 519.53 94.1674 518.099 92.1674C516.69 90.1674 515.985 87.6446 515.985 84.5992V32.5083ZM568.707 98.5083C563.661 98.5083 559.309 97.3946 555.65 95.1674C552.013 92.9174 549.207 89.781 547.229 85.7583C545.275 81.7128 544.298 77.0083 544.298 71.6446C544.298 66.281 545.275 61.5537 547.229 57.4628C549.207 53.3492 551.957 50.1446 555.479 47.8492C559.025 45.531 563.161 44.3719 567.888 44.3719C570.616 44.3719 573.309 44.8264 575.968 45.7355C578.627 46.6446 581.048 48.1219 583.229 50.1674C585.411 52.1901 587.15 54.8719 588.445 58.2128C589.741 61.5537 590.388 65.6674 590.388 70.5537V73.9628H550.025V67.0083H582.207C582.207 64.0537 581.616 61.4174 580.434 59.0992C579.275 56.781 577.616 54.9514 575.457 53.6105C573.32 52.2696 570.798 51.5992 567.888 51.5992C564.684 51.5992 561.911 52.3946 559.57 53.9855C557.252 55.5537 555.468 57.5992 554.218 60.1219C552.968 62.6446 552.343 65.3492 552.343 68.2355V72.8719C552.343 76.8264 553.025 80.1787 554.388 82.9287C555.775 85.656 557.695 87.7355 560.15 89.1674C562.604 90.5764 565.457 91.281 568.707 91.281C570.82 91.281 572.729 90.9855 574.434 90.3946C576.161 89.781 577.65 88.8719 578.9 87.6674C580.15 86.4401 581.116 84.9174 581.798 83.0992L589.57 85.281C588.752 87.9174 587.377 90.2355 585.445 92.2355C583.513 94.2128 581.127 95.7583 578.286 96.8719C575.445 97.9628 572.252 98.5083 568.707 98.5083Z" fill="white"/>
</g>
<g filter="url(#filter1_d_3413_7344)">
<path d="M131.184 58.1914L32.4677 106.408V90.0165M32.4677 90.0165L98.3957 57.7863L32.4677 25.5927V57.3432V90.0165Z" stroke="white"/>
<path d="M17.7338 2V130M17.7338 2L3 14.8V117.2L17.7338 130M17.7338 2L130.079 56.8282V75.135L17.7338 130" stroke="white"/>
<path d="M32.3381 41.928L81.777 66.0719" stroke="white"/>
</g>
<defs>
<filter id="filter0_d_3413_7344" x="162.843" y="24.4174" width="428.545" height="75.2273" filterUnits="userSpaceOnUse" color-interpolation-filters="sRGB">
<feFlood flood-opacity="0" result="BackgroundImageFix"/>
<feColorMatrix in="SourceAlpha" type="matrix" values="0 0 0 0 0 0 0 0 0 0 0 0 0 0 0 0 0 0 127 0" result="hardAlpha"/>
<feOffset/>
<feGaussianBlur stdDeviation="0.5"/>
<feComposite in2="hardAlpha" operator="out"/>
<feColorMatrix type="matrix" values="0 0 0 0 0 0 0 0 0 0 0 0 0 0 0 0 0 0 0.9 0"/>
<feBlend mode="normal" in2="BackgroundImageFix" result="effect1_dropShadow_3413_7344"/>
<feBlend mode="normal" in="SourceGraphic" in2="effect1_dropShadow_3413_7344" result="shape"/>
</filter>
<filter id="filter1_d_3413_7344" x="0.5" y="0.405518" width="132.904" height="133.189" filterUnits="userSpaceOnUse" color-interpolation-filters="sRGB">
<feFlood flood-opacity="0" result="BackgroundImageFix"/>
<feColorMatrix in="SourceAlpha" type="matrix" values="0 0 0 0 0 0 0 0 0 0 0 0 0 0 0 0 0 0 127 0" result="hardAlpha"/>
<feOffset dy="1"/>
<feGaussianBlur stdDeviation="1"/>
<feColorMatrix type="matrix" values="0 0 0 0 0 0 0 0 0 0 0 0 0 0 0 0 0 0 0.8 0"/>
<feBlend mode="normal" in2="BackgroundImageFix" result="effect1_dropShadow_3413_7344"/>
<feBlend mode="normal" in="SourceGraphic" in2="effect1_dropShadow_3413_7344" result="shape"/>
</filter>
</defs>
</svg>
