<svg width="385" height="76" viewBox="0 0 385 76" fill="none" xmlns="http://www.w3.org/2000/svg">
<path d="M96.4232 65.66C96.2765 65.211 96.0831 64.8086 95.843 64.453C95.6073 64.0928 95.325 63.786 94.996 63.5326C94.6715 63.2792 94.3024 63.0858 93.889 62.9524C93.4755 62.819 93.022 62.7523 92.5285 62.7523C91.7193 62.7523 90.9835 62.9613 90.321 63.3792C89.6586 63.7972 89.1317 64.4129 88.7405 65.2266C88.3492 66.0402 88.1536 67.0383 88.1536 68.221C88.1536 69.4036 88.3514 70.4017 88.7471 71.2154C89.1428 72.029 89.6786 72.6448 90.3544 73.0627C91.0302 73.4806 91.7904 73.6896 92.6352 73.6896C93.4177 73.6896 94.1068 73.5228 94.7026 73.1894C95.3028 72.8515 95.7696 72.3758 96.1031 71.7622C96.441 71.1442 96.6099 70.4173 96.6099 69.5814L97.1168 69.6881H93.0086V68.221H98.2105V69.6881C98.2105 70.813 97.9704 71.7911 97.4902 72.6225C97.0145 73.4539 96.3565 74.0986 95.5162 74.5565C94.6803 75.01 93.72 75.2368 92.6352 75.2368C91.4259 75.2368 90.3633 74.9522 89.4474 74.3831C88.5359 73.8141 87.8246 73.0049 87.3133 71.9556C86.8064 70.9064 86.553 69.6615 86.553 68.221C86.553 67.1406 86.6975 66.1691 86.9865 65.3066C87.2799 64.4396 87.6934 63.7016 88.2269 63.0925C88.7605 62.4834 89.3918 62.0165 90.1209 61.692C90.8501 61.3674 91.6526 61.2051 92.5285 61.2051C93.2487 61.2051 93.9201 61.3141 94.5425 61.5319C95.1694 61.7453 95.7274 62.0499 96.2164 62.4456C96.71 62.8368 97.1212 63.3059 97.4502 63.8527C97.7792 64.3952 98.006 64.9976 98.1305 65.66H96.4232ZM101.472 75.05V64.8064H103.046V75.05H101.472ZM102.272 63.0991C101.965 63.0991 101.701 62.9947 101.478 62.7857C101.26 62.5767 101.152 62.3255 101.152 62.0321C101.152 61.7387 101.26 61.4875 101.478 61.2785C101.701 61.0695 101.965 60.965 102.272 60.965C102.579 60.965 102.841 61.0695 103.059 61.2785C103.281 61.4875 103.392 61.7387 103.392 62.0321C103.392 62.3255 103.281 62.5767 103.059 62.7857C102.841 62.9947 102.579 63.0991 102.272 63.0991ZM110.383 64.8064V66.1402H105.075V64.8064H110.383ZM106.622 62.3522H108.196V72.1157C108.196 72.5603 108.26 72.8937 108.389 73.116C108.522 73.3339 108.691 73.4806 108.896 73.5562C109.105 73.6273 109.325 73.6629 109.556 73.6629C109.73 73.6629 109.872 73.654 109.983 73.6362C110.094 73.614 110.183 73.5962 110.25 73.5829L110.57 74.9967C110.463 75.0367 110.314 75.0767 110.123 75.1167C109.932 75.1612 109.69 75.1834 109.396 75.1834C108.952 75.1834 108.516 75.0878 108.089 74.8967C107.667 74.7055 107.315 74.4143 107.035 74.023C106.76 73.6318 106.622 73.1383 106.622 72.5425V62.3522ZM113.184 75.05V61.3919H114.838V67.474H122.121V61.3919H123.775V75.05H122.121V68.9412H114.838V75.05H113.184ZM133.328 70.8619V64.8064H134.902V75.05H133.328V73.3161H133.221C132.981 73.8363 132.608 74.2787 132.101 74.6432C131.594 75.0034 130.954 75.1834 130.18 75.1834C129.54 75.1834 128.971 75.0434 128.473 74.7633C127.975 74.4787 127.584 74.0519 127.299 73.4828C127.015 72.9093 126.872 72.1868 126.872 71.3154V64.8064H128.446V71.2087C128.446 71.9556 128.655 72.5514 129.073 72.996C129.495 73.4406 130.033 73.6629 130.687 73.6629C131.078 73.6629 131.476 73.5629 131.881 73.3628C132.29 73.1627 132.632 72.8559 132.908 72.4425C133.188 72.029 133.328 71.5021 133.328 70.8619ZM137.998 75.05V61.3919H139.572V66.4337H139.705C139.821 66.2558 139.981 66.0291 140.185 65.7534C140.394 65.4733 140.692 65.2243 141.079 65.0065C141.47 64.7842 141.999 64.673 142.666 64.673C143.529 64.673 144.289 64.8887 144.947 65.3199C145.605 65.7512 146.119 66.3625 146.488 67.1539C146.857 67.9453 147.041 68.879 147.041 69.9549C147.041 71.0397 146.857 71.9801 146.488 72.7759C146.119 73.5673 145.607 74.1809 144.954 74.6166C144.3 75.0478 143.547 75.2635 142.693 75.2635C142.035 75.2635 141.508 75.1545 141.112 74.9367C140.717 74.7144 140.412 74.4632 140.199 74.1831C139.985 73.8985 139.821 73.6629 139.705 73.4762H139.518V75.05H137.998ZM139.545 69.9282C139.545 70.7018 139.659 71.3843 139.885 71.9756C140.112 72.5625 140.443 73.0227 140.879 73.3561C141.315 73.6851 141.848 73.8496 142.48 73.8496C143.138 73.8496 143.687 73.6762 144.127 73.3294C144.571 72.9782 144.905 72.5069 145.127 71.9156C145.354 71.3198 145.467 70.6574 145.467 69.9282C145.467 69.208 145.356 68.5589 145.134 67.9809C144.916 67.3984 144.585 66.9383 144.14 66.6004C143.7 66.258 143.146 66.0869 142.48 66.0869C141.839 66.0869 141.301 66.2491 140.866 66.5737C140.43 66.8938 140.101 67.3429 139.879 67.9209C139.656 68.4944 139.545 69.1635 139.545 69.9282ZM155.504 75.05H153.77L158.785 61.3919H160.493L165.508 75.05H163.774L159.692 63.5526H159.586L155.504 75.05ZM156.144 69.7148H163.134V71.182H156.144V69.7148ZM171.583 75.2635C170.623 75.2635 169.796 75.0367 169.102 74.5832C168.409 74.1297 167.875 73.5051 167.502 72.7092C167.128 71.9134 166.942 71.0042 166.942 69.9816C166.942 68.9412 167.133 68.0231 167.515 67.2273C167.902 66.427 168.44 65.8023 169.129 65.3533C169.823 64.8998 170.632 64.673 171.557 64.673C172.277 64.673 172.926 64.8064 173.504 65.0732C174.082 65.3399 174.555 65.7134 174.924 66.1936C175.293 66.6737 175.522 67.2339 175.611 67.8742H174.037C173.917 67.4073 173.651 66.9939 173.237 66.6337C172.828 66.2692 172.277 66.0869 171.583 66.0869C170.97 66.0869 170.432 66.2469 169.969 66.567C169.511 66.8827 169.153 67.3295 168.896 67.9075C168.642 68.481 168.515 69.1546 168.515 69.9282C168.515 70.7196 168.64 71.4088 168.889 71.9956C169.142 72.5825 169.498 73.0382 169.956 73.3628C170.418 73.6873 170.961 73.8496 171.583 73.8496C171.992 73.8496 172.363 73.7785 172.697 73.6362C173.03 73.4939 173.313 73.2894 173.544 73.0227C173.775 72.7559 173.94 72.4358 174.037 72.0623H175.611C175.522 72.667 175.302 73.2116 174.951 73.6962C174.604 74.1764 174.144 74.5588 173.571 74.8433C173.001 75.1234 172.339 75.2635 171.583 75.2635ZM182.367 64.8064V66.1402H177.058V64.8064H182.367ZM178.606 62.3522H180.18V72.1157C180.18 72.5603 180.244 72.8937 180.373 73.116C180.506 73.3339 180.675 73.4806 180.88 73.5562C181.089 73.6273 181.309 73.6629 181.54 73.6629C181.713 73.6629 181.856 73.654 181.967 73.6362C182.078 73.614 182.167 73.5962 182.234 73.5829L182.554 74.9967C182.447 75.0367 182.298 75.0767 182.107 75.1167C181.916 75.1612 181.673 75.1834 181.38 75.1834C180.935 75.1834 180.5 75.0878 180.073 74.8967C179.651 74.7055 179.299 74.4143 179.019 74.023C178.744 73.6318 178.606 73.1383 178.606 72.5425V62.3522ZM184.735 75.05V64.8064H186.308V75.05H184.735ZM185.535 63.0991C185.228 63.0991 184.964 62.9947 184.741 62.7857C184.523 62.5767 184.414 62.3255 184.414 62.0321C184.414 61.7387 184.523 61.4875 184.741 61.2785C184.964 61.0695 185.228 60.965 185.535 60.965C185.842 60.965 186.104 61.0695 186.322 61.2785C186.544 61.4875 186.655 61.7387 186.655 62.0321C186.655 62.3255 186.544 62.5767 186.322 62.7857C186.104 62.9947 185.842 63.0991 185.535 63.0991ZM193.353 75.2635C192.428 75.2635 191.616 75.0434 190.918 74.6032C190.225 74.1631 189.682 73.5473 189.291 72.7559C188.904 71.9645 188.711 71.0397 188.711 69.9816C188.711 68.9145 188.904 67.9831 189.291 67.1873C189.682 66.3914 190.225 65.7734 190.918 65.3333C191.616 64.8931 192.428 64.673 193.353 64.673C194.277 64.673 195.087 64.8931 195.78 65.3333C196.478 65.7734 197.021 66.3914 197.407 67.1873C197.799 67.9831 197.994 68.9145 197.994 69.9816C197.994 71.0397 197.799 71.9645 197.407 72.7559C197.021 73.5473 196.478 74.1631 195.78 74.6032C195.087 75.0434 194.277 75.2635 193.353 75.2635ZM193.353 73.8496C194.055 73.8496 194.633 73.6696 195.087 73.3094C195.54 72.9493 195.876 72.4758 196.094 71.8889C196.311 71.3021 196.42 70.6663 196.42 69.9816C196.42 69.2969 196.311 68.6589 196.094 68.0676C195.876 67.4762 195.54 66.9983 195.087 66.6337C194.633 66.2692 194.055 66.0869 193.353 66.0869C192.65 66.0869 192.072 66.2692 191.619 66.6337C191.165 66.9983 190.829 67.4762 190.612 68.0676C190.394 68.6589 190.285 69.2969 190.285 69.9816C190.285 70.6663 190.394 71.3021 190.612 71.8889C190.829 72.4758 191.165 72.9493 191.619 73.3094C192.072 73.6696 192.65 73.8496 193.353 73.8496ZM201.971 68.8879V75.05H200.397V64.8064H201.917V66.407H202.051C202.291 65.8868 202.655 65.4689 203.144 65.1532C203.633 64.8331 204.265 64.673 205.038 64.673C205.732 64.673 206.339 64.8153 206.859 65.0998C207.379 65.3799 207.784 65.8068 208.073 66.3803C208.362 66.9494 208.506 67.6697 208.506 68.5411V75.05H206.932V68.6478C206.932 67.843 206.723 67.2162 206.306 66.7671C205.888 66.3136 205.314 66.0869 204.585 66.0869C204.083 66.0869 203.633 66.1958 203.238 66.4136C202.847 66.6315 202.538 66.9494 202.311 67.3673C202.084 67.7852 201.971 68.2921 201.971 68.8879ZM218.638 67.1006L217.224 67.5007C217.135 67.2651 217.004 67.0361 216.831 66.8138C216.662 66.587 216.431 66.4003 216.137 66.2536C215.844 66.1069 215.468 66.0335 215.01 66.0335C214.383 66.0335 213.861 66.178 213.443 66.467C213.03 66.7515 212.823 67.1139 212.823 67.5541C212.823 67.9453 212.965 68.2543 213.25 68.481C213.534 68.7078 213.979 68.8968 214.583 69.0479L216.104 69.4214C217.02 69.6437 217.702 69.9838 218.151 70.4417C218.6 70.8952 218.825 71.4799 218.825 72.1957C218.825 72.7826 218.656 73.3072 218.318 73.7696C217.985 74.232 217.518 74.5966 216.918 74.8633C216.317 75.1301 215.619 75.2635 214.824 75.2635C213.779 75.2635 212.914 75.0367 212.229 74.5832C211.545 74.1297 211.111 73.4673 210.929 72.5958L212.423 72.2224C212.565 72.7737 212.834 73.1872 213.23 73.4628C213.63 73.7385 214.152 73.8763 214.797 73.8763C215.53 73.8763 216.113 73.7207 216.544 73.4095C216.98 73.0938 217.198 72.7159 217.198 72.2757C217.198 71.92 217.073 71.6222 216.824 71.3821C216.575 71.1375 216.193 70.9553 215.677 70.8352L213.97 70.4351C213.032 70.2128 212.343 69.8682 211.903 69.4014C211.467 68.9301 211.249 68.341 211.249 67.6341C211.249 67.0561 211.411 66.5448 211.736 66.1002C212.065 65.6556 212.512 65.3066 213.076 65.0532C213.645 64.7997 214.29 64.673 215.01 64.673C216.024 64.673 216.82 64.8953 217.398 65.3399C217.98 65.7845 218.394 66.3714 218.638 67.1006ZM231.038 64.8064V66.1402H225.516V64.8064H231.038ZM227.17 75.05V63.3926C227.17 62.8057 227.307 62.3166 227.583 61.9254C227.859 61.5341 228.217 61.2407 228.657 61.0451C229.097 60.8495 229.562 60.7516 230.051 60.7516C230.437 60.7516 230.753 60.7828 230.998 60.845C231.242 60.9072 231.424 60.965 231.544 61.0184L231.091 62.3789C231.011 62.3522 230.9 62.3189 230.758 62.2788C230.62 62.2388 230.437 62.2188 230.211 62.2188C229.69 62.2188 229.315 62.35 229.084 62.6123C228.857 62.8746 228.743 63.2592 228.743 63.766V75.05H227.17ZM236.983 75.2635C236.058 75.2635 235.247 75.0434 234.549 74.6032C233.855 74.1631 233.313 73.5473 232.922 72.7559C232.535 71.9645 232.341 71.0397 232.341 69.9816C232.341 68.9145 232.535 67.9831 232.922 67.1873C233.313 66.3914 233.855 65.7734 234.549 65.3333C235.247 64.8931 236.058 64.673 236.983 64.673C237.908 64.673 238.717 64.8931 239.411 65.3333C240.109 65.7734 240.651 66.3914 241.038 67.1873C241.429 67.9831 241.625 68.9145 241.625 69.9816C241.625 71.0397 241.429 71.9645 241.038 72.7559C240.651 73.5473 240.109 74.1631 239.411 74.6032C238.717 75.0434 237.908 75.2635 236.983 75.2635ZM236.983 73.8496C237.686 73.8496 238.264 73.6696 238.717 73.3094C239.171 72.9493 239.506 72.4758 239.724 71.8889C239.942 71.3021 240.051 70.6663 240.051 69.9816C240.051 69.2969 239.942 68.6589 239.724 68.0676C239.506 67.4762 239.171 66.9983 238.717 66.6337C238.264 66.2692 237.686 66.0869 236.983 66.0869C236.281 66.0869 235.703 66.2692 235.249 66.6337C234.796 66.9983 234.46 67.4762 234.242 68.0676C234.024 68.6589 233.915 69.2969 233.915 69.9816C233.915 70.6663 234.024 71.3021 234.242 71.8889C234.46 72.4758 234.796 72.9493 235.249 73.3094C235.703 73.6696 236.281 73.8496 236.983 73.8496ZM244.027 75.05V64.8064H245.548V66.3536H245.655C245.841 65.8468 246.179 65.4355 246.668 65.1199C247.157 64.8042 247.709 64.6464 248.322 64.6464C248.438 64.6464 248.582 64.6486 248.756 64.653C248.929 64.6575 249.06 64.6641 249.149 64.673V66.2736C249.096 66.2603 248.973 66.2403 248.782 66.2136C248.596 66.1825 248.398 66.1669 248.189 66.1669C247.691 66.1669 247.246 66.2714 246.855 66.4803C246.468 66.6849 246.161 66.9694 245.935 67.334C245.712 67.6941 245.601 68.1054 245.601 68.5677V75.05H244.027ZM261.739 61.3919H263.392V71.1553C263.392 72.0268 263.232 72.767 262.912 73.3761C262.592 73.9852 262.141 74.4476 261.558 74.7633C260.976 75.0789 260.289 75.2368 259.498 75.2368C258.751 75.2368 258.086 75.1012 257.504 74.83C256.921 74.5543 256.463 74.1631 256.13 73.6562C255.796 73.1494 255.63 72.5469 255.63 71.8489H257.257C257.257 72.2357 257.353 72.5736 257.544 72.8626C257.739 73.1472 258.006 73.3695 258.344 73.5295C258.682 73.6896 259.066 73.7696 259.498 73.7696C259.973 73.7696 260.378 73.6696 260.712 73.4695C261.045 73.2694 261.298 72.976 261.472 72.5892C261.65 72.1979 261.739 71.72 261.739 71.1553V61.3919ZM270.788 75.2635C269.801 75.2635 268.95 75.0456 268.234 74.6099C267.523 74.1697 266.974 73.5562 266.587 72.7692C266.205 71.9778 266.013 71.0575 266.013 70.0083C266.013 68.959 266.205 68.0342 266.587 67.2339C266.974 66.4292 267.512 65.8023 268.201 65.3533C268.894 64.8998 269.704 64.673 270.628 64.673C271.162 64.673 271.689 64.762 272.209 64.9398C272.729 65.1176 273.203 65.4066 273.629 65.8068C274.056 66.2025 274.396 66.7271 274.65 67.3807C274.903 68.0342 275.03 68.839 275.03 69.7948V70.4618H267.134V69.1013H273.429C273.429 68.5233 273.314 68.0075 273.083 67.5541C272.856 67.1006 272.531 66.7427 272.109 66.4803C271.691 66.218 271.197 66.0869 270.628 66.0869C270.001 66.0869 269.459 66.2425 269.001 66.5537C268.548 66.8605 268.199 67.2606 267.954 67.7541C267.71 68.2476 267.587 68.7767 267.587 69.3414V70.2483C267.587 71.022 267.721 71.6777 267.987 72.2157C268.259 72.7492 268.634 73.156 269.114 73.4361C269.595 73.7118 270.153 73.8496 270.788 73.8496C271.202 73.8496 271.575 73.7918 271.909 73.6762C272.247 73.5562 272.538 73.3783 272.782 73.1427C273.027 72.9026 273.216 72.6047 273.349 72.2491L274.87 72.6759C274.71 73.1916 274.441 73.6451 274.063 74.0364C273.685 74.4232 273.218 74.7255 272.662 74.9433C272.107 75.1568 271.482 75.2635 270.788 75.2635ZM281.879 64.8064V66.1402H276.57V64.8064H281.879ZM278.118 62.3522H279.692V72.1157C279.692 72.5603 279.756 72.8937 279.885 73.116C280.018 73.3339 280.187 73.4806 280.392 73.5562C280.601 73.6273 280.821 73.6629 281.052 73.6629C281.225 73.6629 281.368 73.654 281.479 73.6362C281.59 73.614 281.679 73.5962 281.746 73.5829L282.066 74.9967C281.959 75.0367 281.81 75.0767 281.619 75.1167C281.428 75.1612 281.185 75.1834 280.892 75.1834C280.447 75.1834 280.012 75.0878 279.585 74.8967C279.163 74.7055 278.811 74.4143 278.531 74.023C278.256 73.6318 278.118 73.1383 278.118 72.5425V62.3522ZM284.68 75.05V61.3919H289.455C290.407 61.3919 291.191 61.5564 291.809 61.8854C292.427 62.2099 292.887 62.6479 293.19 63.1992C293.492 63.746 293.643 64.3529 293.643 65.0198C293.643 65.6067 293.539 66.0913 293.33 66.4737C293.125 66.856 292.854 67.1584 292.516 67.3807C292.183 67.603 291.82 67.7675 291.429 67.8742V68.0075C291.847 68.0342 292.267 68.1809 292.69 68.4477C293.112 68.7145 293.465 69.0968 293.75 69.5948C294.034 70.0927 294.177 70.7018 294.177 71.4221C294.177 72.1068 294.021 72.7226 293.71 73.2694C293.399 73.8163 292.907 74.2498 292.236 74.5699C291.565 74.89 290.691 75.05 289.615 75.05H284.68ZM286.334 73.5829H289.615C290.695 73.5829 291.462 73.3739 291.916 72.956C292.374 72.5336 292.603 72.0223 292.603 71.4221C292.603 70.9597 292.485 70.5329 292.249 70.1416C292.014 69.7459 291.678 69.4303 291.242 69.1946C290.807 68.9546 290.291 68.8345 289.695 68.8345H286.334V73.5829ZM286.334 67.394H289.402C289.9 67.394 290.349 67.2962 290.749 67.1006C291.153 66.9049 291.474 66.6293 291.709 66.2736C291.949 65.9179 292.069 65.5 292.069 65.0198C292.069 64.4196 291.86 63.9105 291.442 63.4926C291.025 63.0702 290.362 62.8591 289.455 62.8591H286.334V67.394ZM296.681 75.05V64.8064H298.201V66.3536H298.308C298.495 65.8468 298.833 65.4355 299.322 65.1199C299.811 64.8042 300.362 64.6464 300.976 64.6464C301.091 64.6464 301.236 64.6486 301.409 64.653C301.583 64.6575 301.714 64.6641 301.803 64.673V66.2736C301.749 66.2603 301.627 66.2403 301.436 66.2136C301.249 66.1825 301.051 66.1669 300.842 66.1669C300.344 66.1669 299.9 66.2714 299.509 66.4803C299.122 66.6849 298.815 66.9694 298.588 67.334C298.366 67.6941 298.255 68.1054 298.255 68.5677V75.05H296.681ZM306.683 75.2901C306.034 75.2901 305.445 75.1679 304.916 74.9233C304.386 74.6744 303.966 74.3165 303.655 73.8496C303.344 73.3783 303.188 72.8093 303.188 72.1423C303.188 71.5555 303.304 71.0798 303.535 70.7152C303.766 70.3462 304.075 70.0572 304.462 69.8482C304.849 69.6392 305.276 69.4836 305.743 69.3814C306.214 69.2747 306.687 69.1902 307.163 69.1279C307.785 69.0479 308.29 68.9879 308.677 68.9479C309.068 68.9034 309.353 68.8301 309.531 68.7278C309.713 68.6255 309.804 68.4477 309.804 68.1943V68.1409C309.804 67.4829 309.624 66.9716 309.264 66.6071C308.908 66.2425 308.368 66.0602 307.643 66.0602C306.892 66.0602 306.303 66.2247 305.876 66.5537C305.449 66.8827 305.149 67.2339 304.976 67.6074L303.482 67.0739C303.748 66.4514 304.104 65.9668 304.549 65.62C304.998 65.2688 305.487 65.0243 306.016 64.8864C306.549 64.7442 307.074 64.673 307.59 64.673C307.919 64.673 308.297 64.713 308.724 64.7931C309.155 64.8687 309.571 65.0265 309.971 65.2666C310.375 65.5067 310.711 65.869 310.978 66.3536C311.244 66.8382 311.378 67.4874 311.378 68.301V75.05H309.804V73.6629H309.724C309.617 73.8852 309.439 74.1231 309.19 74.3765C308.941 74.6299 308.61 74.8455 308.197 75.0234C307.783 75.2012 307.279 75.2901 306.683 75.2901ZM306.923 73.8763C307.545 73.8763 308.07 73.754 308.497 73.5095C308.928 73.265 309.253 72.9493 309.47 72.5625C309.693 72.1757 309.804 71.7689 309.804 71.3421V69.9016C309.737 69.9816 309.591 70.0549 309.364 70.1216C309.141 70.1839 308.884 70.2395 308.59 70.2884C308.301 70.3328 308.019 70.3728 307.743 70.4084C307.472 70.4395 307.252 70.4662 307.083 70.4884C306.674 70.5418 306.292 70.6285 305.936 70.7485C305.585 70.8641 305.3 71.0397 305.082 71.2754C304.869 71.5066 304.762 71.8222 304.762 72.2224C304.762 72.7692 304.964 73.1827 305.369 73.4628C305.778 73.7385 306.296 73.8763 306.923 73.8763ZM314.251 75.05V64.8064H315.824V75.05H314.251ZM315.051 63.0991C314.744 63.0991 314.479 62.9947 314.257 62.7857C314.039 62.5767 313.93 62.3255 313.93 62.0321C313.93 61.7387 314.039 61.4875 314.257 61.2785C314.479 61.0695 314.744 60.965 315.051 60.965C315.358 60.965 315.62 61.0695 315.838 61.2785C316.06 61.4875 316.171 61.7387 316.171 62.0321C316.171 62.3255 316.06 62.5767 315.838 62.7857C315.62 62.9947 315.358 63.0991 315.051 63.0991ZM320.281 68.8879V75.05H318.707V64.8064H320.228V66.407H320.361C320.601 65.8868 320.966 65.4689 321.455 65.1532C321.944 64.8331 322.575 64.673 323.349 64.673C324.042 64.673 324.649 64.8153 325.169 65.0998C325.69 65.3799 326.094 65.8068 326.383 66.3803C326.672 66.9494 326.817 67.6697 326.817 68.5411V75.05H325.243V68.6478C325.243 67.843 325.034 67.2162 324.616 66.7671C324.198 66.3136 323.624 66.0869 322.895 66.0869C322.393 66.0869 321.944 66.1958 321.548 66.4136C321.157 66.6315 320.848 66.9494 320.621 67.3673C320.394 67.7852 320.281 68.2921 320.281 68.8879ZM336.949 67.1006L335.535 67.5007C335.446 67.2651 335.315 67.0361 335.141 66.8138C334.972 66.587 334.741 66.4003 334.448 66.2536C334.154 66.1069 333.779 66.0335 333.321 66.0335C332.694 66.0335 332.171 66.178 331.753 66.467C331.34 66.7515 331.133 67.1139 331.133 67.5541C331.133 67.9453 331.275 68.2543 331.56 68.481C331.845 68.7078 332.289 68.8968 332.894 69.0479L334.414 69.4214C335.33 69.6437 336.013 69.9838 336.462 70.4417C336.911 70.8952 337.135 71.4799 337.135 72.1957C337.135 72.7826 336.966 73.3072 336.628 73.7696C336.295 74.232 335.828 74.5966 335.228 74.8633C334.628 75.1301 333.93 75.2635 333.134 75.2635C332.089 75.2635 331.224 75.0367 330.54 74.5832C329.855 74.1297 329.421 73.4673 329.239 72.5958L330.733 72.2224C330.875 72.7737 331.144 73.1872 331.54 73.4628C331.94 73.7385 332.463 73.8763 333.107 73.8763C333.841 73.8763 334.423 73.7207 334.854 73.4095C335.29 73.0938 335.508 72.7159 335.508 72.2757C335.508 71.92 335.384 71.6222 335.135 71.3821C334.886 71.1375 334.503 70.9553 333.988 70.8352L332.28 70.4351C331.342 70.2128 330.653 69.8682 330.213 69.4014C329.777 68.9301 329.559 68.341 329.559 67.6341C329.559 67.0561 329.722 66.5448 330.046 66.1002C330.375 65.6556 330.822 65.3066 331.387 65.0532C331.956 64.7997 332.6 64.673 333.321 64.673C334.334 64.673 335.13 64.8953 335.708 65.3399C336.291 65.7845 336.704 66.3714 336.949 67.1006ZM346.654 61.3919V75.05H345V61.3919H346.654ZM354.185 75.05H349.97V61.3919H354.371C355.696 61.3919 356.83 61.6653 357.773 62.2122C358.715 62.7546 359.438 63.5348 359.94 64.553C360.442 65.5667 360.694 66.7804 360.694 68.1943C360.694 69.617 360.44 70.8419 359.933 71.8689C359.427 72.8915 358.689 73.6785 357.719 74.2298C356.75 74.7766 355.572 75.05 354.185 75.05ZM351.624 73.5829H354.078C355.207 73.5829 356.143 73.365 356.886 72.9293C357.628 72.4936 358.182 71.8734 358.546 71.0686C358.911 70.2639 359.093 69.3058 359.093 68.1943C359.093 67.0917 358.913 66.1424 358.553 65.3466C358.193 64.5463 357.655 63.9328 356.939 63.5059C356.223 63.0747 355.332 62.8591 354.265 62.8591H351.624V73.5829ZM363.468 75.05V61.3919H371.711V62.8591H365.122V67.474H371.284V68.9412H365.122V73.5829H371.818V75.05H363.468ZM381.734 67.1006L380.321 67.5007C380.232 67.2651 380.101 67.0361 379.927 66.8138C379.758 66.587 379.527 66.4003 379.234 66.2536C378.94 66.1069 378.564 66.0335 378.107 66.0335C377.48 66.0335 376.957 66.178 376.539 66.467C376.126 66.7515 375.919 67.1139 375.919 67.5541C375.919 67.9453 376.061 68.2543 376.346 68.481C376.63 68.7078 377.075 68.8968 377.68 69.0479L379.2 69.4214C380.116 69.6437 380.799 69.9838 381.248 70.4417C381.697 70.8952 381.921 71.4799 381.921 72.1957C381.921 72.7826 381.752 73.3072 381.414 73.7696C381.081 74.232 380.614 74.5966 380.014 74.8633C379.414 75.1301 378.716 75.2635 377.92 75.2635C376.875 75.2635 376.01 75.0367 375.326 74.5832C374.641 74.1297 374.207 73.4673 374.025 72.5958L375.519 72.2224C375.661 72.7737 375.93 73.1872 376.326 73.4628C376.726 73.7385 377.248 73.8763 377.893 73.8763C378.627 73.8763 379.209 73.7207 379.64 73.4095C380.076 73.0938 380.294 72.7159 380.294 72.2757C380.294 71.92 380.169 71.6222 379.92 71.3821C379.672 71.1375 379.289 70.9553 378.773 70.8352L377.066 70.4351C376.128 70.2128 375.439 69.8682 374.999 69.4014C374.563 68.9301 374.345 68.341 374.345 67.6341C374.345 67.0561 374.507 66.5448 374.832 66.1002C375.161 65.6556 375.608 65.3066 376.173 65.0532C376.742 64.7997 377.386 64.673 378.107 64.673C379.12 64.673 379.916 64.8953 380.494 65.3399C381.076 65.7845 381.49 66.3714 381.734 67.1006Z" fill="white"/>
<path d="M95.5682 49.0461H86.5682L102.955 2.50069H113.364L129.773 49.0461H120.773L108.341 12.0461H107.977L95.5682 49.0461ZM95.8636 30.7961H120.409V37.5689H95.8636V30.7961ZM149.705 49.728C146.22 49.728 143.227 48.9628 140.727 47.4325C138.242 45.9022 136.326 43.7886 134.977 41.0916C133.644 38.3795 132.977 35.2583 132.977 31.728C132.977 28.1825 133.659 25.0537 135.023 22.3416C136.386 19.6143 138.311 17.4931 140.795 15.978C143.295 14.4477 146.25 13.6825 149.659 13.6825C152.492 13.6825 155 14.2052 157.182 15.2507C159.379 16.281 161.129 17.7431 162.432 19.6371C163.735 21.5158 164.477 23.7128 164.659 26.228H156.795C156.477 24.5461 155.72 23.1446 154.523 22.0234C153.341 20.8871 151.758 20.3189 149.773 20.3189C148.091 20.3189 146.614 20.7734 145.341 21.6825C144.068 22.5764 143.076 23.8643 142.364 25.5461C141.667 27.228 141.318 29.2431 141.318 31.5916C141.318 33.9704 141.667 36.0158 142.364 37.728C143.061 39.4249 144.038 40.7355 145.295 41.6598C146.568 42.5689 148.061 43.0234 149.773 43.0234C150.985 43.0234 152.068 42.7961 153.023 42.3416C153.992 41.8719 154.803 41.1977 155.455 40.3189C156.106 39.4401 156.553 38.3719 156.795 37.1143H164.659C164.462 39.584 163.735 41.7734 162.477 43.6825C161.22 45.5764 159.508 47.0613 157.341 48.1371C155.174 49.1977 152.629 49.728 149.705 49.728ZM188.847 14.1371V20.5007H168.778V14.1371H188.847ZM173.733 5.77341H181.96V38.5461C181.96 39.6522 182.127 40.5007 182.46 41.0916C182.809 41.6674 183.263 42.0613 183.824 42.2734C184.384 42.4855 185.006 42.5916 185.688 42.5916C186.203 42.5916 186.672 42.5537 187.097 42.478C187.536 42.4022 187.869 42.334 188.097 42.2734L189.483 48.7052C189.044 48.8567 188.415 49.0234 187.597 49.2052C186.794 49.3871 185.809 49.4931 184.642 49.5234C182.581 49.584 180.725 49.2734 179.074 48.5916C177.422 47.8946 176.112 46.8189 175.142 45.3643C174.188 43.9098 173.718 42.0916 173.733 39.9098V5.77341ZM195.727 49.0461V14.1371H203.955V49.0461H195.727ZM199.864 9.18251C198.561 9.18251 197.439 8.75069 196.5 7.88705C195.561 7.00826 195.091 5.95523 195.091 4.72796C195.091 3.48553 195.561 2.4325 196.5 1.56887C197.439 0.69008 198.561 0.250687 199.864 0.250687C201.182 0.250687 202.303 0.69008 203.227 1.56887C204.167 2.4325 204.636 3.48553 204.636 4.72796C204.636 5.95523 204.167 7.00826 203.227 7.88705C202.303 8.75069 201.182 9.18251 199.864 9.18251ZM227.642 49.728C224.233 49.728 221.278 48.978 218.778 47.478C216.278 45.978 214.339 43.8795 212.96 41.1825C211.597 38.4855 210.915 35.334 210.915 31.728C210.915 28.1219 211.597 24.9628 212.96 22.2507C214.339 19.5386 216.278 17.4325 218.778 15.9325C221.278 14.4325 224.233 13.6825 227.642 13.6825C231.051 13.6825 234.006 14.4325 236.506 15.9325C239.006 17.4325 240.938 19.5386 242.301 22.2507C243.68 24.9628 244.369 28.1219 244.369 31.728C244.369 35.334 243.68 38.4855 242.301 41.1825C240.938 43.8795 239.006 45.978 236.506 47.478C234.006 48.978 231.051 49.728 227.642 49.728ZM227.688 43.1371C229.536 43.1371 231.081 42.6295 232.324 41.6143C233.566 40.584 234.491 39.2052 235.097 37.478C235.718 35.7507 236.028 33.8264 236.028 31.7052C236.028 29.5689 235.718 27.6371 235.097 25.9098C234.491 24.1674 233.566 22.781 232.324 21.7507C231.081 20.7204 229.536 20.2052 227.688 20.2052C225.794 20.2052 224.218 20.7204 222.96 21.7507C221.718 22.781 220.786 24.1674 220.165 25.9098C219.559 27.6371 219.256 29.5689 219.256 31.7052C219.256 33.8264 219.559 35.7507 220.165 37.478C220.786 39.2052 221.718 40.584 222.96 41.6143C224.218 42.6295 225.794 43.1371 227.688 43.1371ZM259.58 28.5916V49.0461H251.352V14.1371H259.216V20.0689H259.625C260.428 18.1143 261.708 16.5613 263.466 15.4098C265.239 14.2583 267.428 13.6825 270.034 13.6825C272.443 13.6825 274.542 14.1977 276.33 15.228C278.133 16.2583 279.527 17.7507 280.511 19.7052C281.511 21.6598 282.004 24.031 281.989 26.8189V49.0461H273.761V28.0916C273.761 25.7583 273.155 23.9325 271.943 22.6143C270.746 21.2961 269.087 20.6371 266.966 20.6371C265.527 20.6371 264.246 20.9552 263.125 21.5916C262.019 22.2128 261.148 23.1143 260.511 24.2961C259.89 25.478 259.58 26.9098 259.58 28.5916ZM300.398 49.7507C298.186 49.7507 296.193 49.3567 294.42 48.5689C292.663 47.7658 291.269 46.584 290.239 45.0234C289.223 43.4628 288.716 41.5386 288.716 39.2507C288.716 37.281 289.08 35.6522 289.807 34.3643C290.534 33.0764 291.527 32.0461 292.784 31.2734C294.042 30.5007 295.458 29.9174 297.034 29.5234C298.625 29.1143 300.269 28.8189 301.966 28.6371C304.011 28.4249 305.67 28.2355 306.943 28.0689C308.216 27.8871 309.14 27.6143 309.716 27.2507C310.307 26.8719 310.602 26.2886 310.602 25.5007V25.3643C310.602 23.6522 310.095 22.3264 309.08 21.3871C308.064 20.4477 306.602 19.978 304.693 19.978C302.678 19.978 301.08 20.4174 299.898 21.2961C298.731 22.1749 297.943 23.2128 297.534 24.4098L289.852 23.3189C290.458 21.1977 291.458 19.4249 292.852 18.0007C294.246 16.5613 295.951 15.4855 297.966 14.7734C299.981 14.0461 302.208 13.6825 304.648 13.6825C306.33 13.6825 308.004 13.8795 309.67 14.2734C311.337 14.6674 312.86 15.3189 314.239 16.228C315.617 17.1219 316.723 18.3416 317.557 19.8871C318.405 21.4325 318.83 23.3643 318.83 25.6825V49.0461H310.92V44.2507H310.648C310.148 45.2204 309.443 46.1295 308.534 46.978C307.64 47.8113 306.511 48.4855 305.148 49.0007C303.799 49.5007 302.216 49.7507 300.398 49.7507ZM302.534 43.7052C304.186 43.7052 305.617 43.3795 306.83 42.728C308.042 42.0613 308.973 41.1825 309.625 40.0916C310.292 39.0007 310.625 37.8113 310.625 36.5234V32.4098C310.367 32.6219 309.928 32.8189 309.307 33.0007C308.701 33.1825 308.019 33.3416 307.261 33.478C306.504 33.6143 305.754 33.7355 305.011 33.8416C304.269 33.9477 303.625 34.0386 303.08 34.1143C301.852 34.281 300.754 34.5537 299.784 34.9325C298.814 35.3113 298.049 35.8416 297.489 36.5234C296.928 37.1901 296.648 38.0537 296.648 39.1143C296.648 40.6295 297.201 41.7734 298.307 42.5461C299.413 43.3189 300.822 43.7052 302.534 43.7052ZM344.534 14.1371V20.5007H324.466V14.1371H344.534ZM329.42 5.77341H337.648V38.5461C337.648 39.6522 337.814 40.5007 338.148 41.0916C338.496 41.6674 338.951 42.0613 339.511 42.2734C340.072 42.4855 340.693 42.5916 341.375 42.5916C341.89 42.5916 342.36 42.5537 342.784 42.478C343.223 42.4022 343.557 42.334 343.784 42.2734L345.17 48.7052C344.731 48.8567 344.102 49.0234 343.284 49.2052C342.481 49.3871 341.496 49.4931 340.33 49.5234C338.269 49.584 336.413 49.2734 334.761 48.5916C333.11 47.8946 331.799 46.8189 330.83 45.3643C329.875 43.9098 329.405 42.0916 329.42 39.9098V5.77341ZM366.494 49.728C362.994 49.728 359.972 49.0007 357.426 47.5461C354.896 46.0764 352.949 44.0007 351.585 41.3189C350.222 38.6219 349.54 35.4477 349.54 31.7961C349.54 28.2052 350.222 25.0537 351.585 22.3416C352.964 19.6143 354.888 17.4931 357.358 15.978C359.828 14.4477 362.729 13.6825 366.062 13.6825C368.214 13.6825 370.244 14.031 372.153 14.728C374.078 15.4098 375.775 16.4704 377.244 17.9098C378.729 19.3492 379.896 21.1825 380.744 23.4098C381.593 25.6219 382.017 28.2583 382.017 31.3189V33.8416H353.403V28.2961H374.131C374.116 26.7204 373.775 25.3189 373.108 24.0916C372.441 22.8492 371.509 21.8719 370.312 21.1598C369.131 20.4477 367.752 20.0916 366.176 20.0916C364.494 20.0916 363.017 20.5007 361.744 21.3189C360.472 22.1219 359.479 23.1825 358.767 24.5007C358.07 25.8037 357.714 27.2355 357.699 28.7961V33.6371C357.699 35.6674 358.07 37.4098 358.812 38.8643C359.555 40.3037 360.593 41.4098 361.926 42.1825C363.259 42.9401 364.82 43.3189 366.608 43.3189C367.805 43.3189 368.888 43.1522 369.858 42.8189C370.828 42.4704 371.669 41.9628 372.381 41.2961C373.093 40.6295 373.631 39.8037 373.994 38.8189L381.676 39.6825C381.191 41.7128 380.267 43.4855 378.903 45.0007C377.555 46.5007 375.828 47.6674 373.722 48.5007C371.616 49.3189 369.206 49.728 366.494 49.728Z" fill="white"/>
<path d="M73.9501 34.3976L18.2787 61.5876V52.2418M18.2787 52.2418L55.8687 33.8652L18.2787 15.5095V33.6126V52.2418Z" stroke="white" stroke-width="2"/>
<path d="M9.82028 1.44434V74.0743M9.82028 1.44434L1.45999 8.70733V66.8113L9.82028 74.0743M9.82028 1.44434L73.5675 32.5551V42.9427L9.82028 74.0743" stroke="white" stroke-width="2"/>
<path d="M18.2049 24.8232L46.3933 38.5893" stroke="white" stroke-width="2"/>
</svg>
