<svg xmlns="http://www.w3.org/2000/svg" width="192" height="37" viewBox="0 0 192 37" fill="none">
    <style>
        @media (prefers-color-scheme: dark) {
            .light-logo { display: none; }
            .dark-logo { display: block; }
        }
        @media (prefers-color-scheme: light) {
            .light-logo { display: block; }
            .dark-logo { display: none; }
        }
    </style>
    <g class="light-logo">
        <path d="M35.8 16.2551L8.99998 29.3451V24.8951M8.99998 24.8951L26.8984 16.1451L8.99998 7.40503V16.0248V24.8951Z" stroke="black"/>
        <path d="M5 1V35.75M5 1L1 4.475V32.275L5 35.75M5 1L35.5 15.885V20.855L5 35.75" stroke="black"/>
        <path d="M8.96486 11.8398L22.3867 18.3945" stroke="black"/>
        <path d="M48.5227 29H44.7955L53.1705 5.72727H57.2273L65.6023 29H61.875L55.2955 9.95454H55.1136L48.5227 29ZM49.1477 19.8864H61.2386V22.8409H49.1477V19.8864ZM75.7614 29.3523C74.072 29.3523 72.6174 28.9697 71.3977 28.2045C70.1856 27.4318 69.2538 26.3674 68.6023 25.0114C67.9508 23.6553 67.625 22.1023 67.625 20.3523C67.625 18.5795 67.9583 17.0152 68.625 15.6591C69.2917 14.2955 70.2311 13.2311 71.4432 12.4659C72.6553 11.7008 74.0833 11.3182 75.7273 11.3182C77.053 11.3182 78.2348 11.5644 79.2727 12.0568C80.3106 12.5417 81.1477 13.2235 81.7841 14.1023C82.428 14.9811 82.8106 16.0076 82.9318 17.1818H79.625C79.4432 16.3636 79.0265 15.6591 78.375 15.0682C77.7311 14.4773 76.8674 14.1818 75.7841 14.1818C74.8371 14.1818 74.0076 14.4318 73.2955 14.9318C72.5909 15.4242 72.0417 16.1288 71.6477 17.0455C71.2538 17.9545 71.0568 19.0303 71.0568 20.2727C71.0568 21.5455 71.25 22.6439 71.6364 23.5682C72.0227 24.4924 72.5682 25.2083 73.2727 25.7159C73.9848 26.2235 74.822 26.4773 75.7841 26.4773C76.428 26.4773 77.0114 26.3598 77.5341 26.125C78.0644 25.8826 78.5076 25.5379 78.8636 25.0909C79.2273 24.6439 79.4811 24.1061 79.625 23.4773H82.9318C82.8106 24.6061 82.4432 25.6136 81.8295 26.5C81.2159 27.3864 80.3939 28.0833 79.3636 28.5909C78.3409 29.0985 77.1402 29.3523 75.7614 29.3523ZM94.7131 11.5455V14.2727H85.179V11.5455H94.7131ZM87.7358 7.36364H91.1335V23.875C91.1335 24.5341 91.232 25.0303 91.429 25.3636C91.6259 25.6894 91.8797 25.9129 92.1903 26.0341C92.5085 26.1477 92.8532 26.2045 93.2244 26.2045C93.4972 26.2045 93.7358 26.1856 93.9403 26.1477C94.1449 26.1098 94.304 26.0795 94.4176 26.0568L95.0312 28.8636C94.8343 28.9394 94.554 29.0152 94.1903 29.0909C93.8267 29.1742 93.3722 29.2197 92.8267 29.2273C91.9328 29.2424 91.0994 29.0833 90.3267 28.75C89.554 28.4167 88.929 27.9015 88.4517 27.2045C87.9744 26.5076 87.7358 25.6326 87.7358 24.5795V7.36364ZM98.4716 29V11.5455H101.869V29H98.4716ZM100.188 8.85227C99.5966 8.85227 99.089 8.6553 98.6648 8.26136C98.2481 7.85985 98.0398 7.38257 98.0398 6.82954C98.0398 6.26894 98.2481 5.79167 98.6648 5.39773C99.089 4.99621 99.5966 4.79545 100.188 4.79545C100.778 4.79545 101.282 4.99621 101.699 5.39773C102.123 5.79167 102.335 6.26894 102.335 6.82954C102.335 7.38257 102.123 7.85985 101.699 8.26136C101.282 8.6553 100.778 8.85227 100.188 8.85227ZM113.793 29.3523C112.156 29.3523 110.728 28.9773 109.509 28.2273C108.289 27.4773 107.342 26.428 106.668 25.0795C105.993 23.7311 105.656 22.1553 105.656 20.3523C105.656 18.5417 105.993 16.9583 106.668 15.6023C107.342 14.2462 108.289 13.1932 109.509 12.4432C110.728 11.6932 112.156 11.3182 113.793 11.3182C115.429 11.3182 116.857 11.6932 118.077 12.4432C119.296 13.1932 120.243 14.2462 120.918 15.6023C121.592 16.9583 121.929 18.5417 121.929 20.3523C121.929 22.1553 121.592 23.7311 120.918 25.0795C120.243 26.428 119.296 27.4773 118.077 28.2273C116.857 28.9773 115.429 29.3523 113.793 29.3523ZM113.804 26.5C114.865 26.5 115.743 26.2197 116.44 25.6591C117.137 25.0985 117.652 24.3523 117.986 23.4205C118.327 22.4886 118.497 21.4621 118.497 20.3409C118.497 19.2273 118.327 18.2045 117.986 17.2727C117.652 16.3333 117.137 15.5795 116.44 15.0114C115.743 14.4432 114.865 14.1591 113.804 14.1591C112.736 14.1591 111.849 14.4432 111.145 15.0114C110.448 15.5795 109.929 16.3333 109.588 17.2727C109.255 18.2045 109.088 19.2273 109.088 20.3409C109.088 21.4621 109.255 22.4886 109.588 23.4205C109.929 24.3523 110.448 25.0985 111.145 25.6591C111.849 26.2197 112.736 26.5 113.804 26.5ZM129.119 18.6364V29H125.722V11.5455H128.983V14.3864H129.199C129.6 13.4621 130.229 12.7197 131.085 12.1591C131.949 11.5985 133.036 11.3182 134.347 11.3182C135.536 11.3182 136.578 11.5682 137.472 12.0682C138.366 12.5606 139.059 13.2955 139.551 14.2727C140.044 15.25 140.29 16.4583 140.29 17.8977V29H136.892V18.3068C136.892 17.0417 136.563 16.053 135.903 15.3409C135.244 14.6212 134.339 14.2614 133.188 14.2614C132.4 14.2614 131.699 14.4318 131.085 14.7727C130.479 15.1136 129.998 15.6136 129.642 16.2727C129.294 16.9242 129.119 17.7121 129.119 18.6364ZM149.926 29.3864C148.82 29.3864 147.82 29.1818 146.926 28.7727C146.032 28.3561 145.324 27.7538 144.801 26.9659C144.286 26.178 144.028 25.2121 144.028 24.0682C144.028 23.0833 144.218 22.2727 144.597 21.6364C144.975 21 145.487 20.4962 146.131 20.125C146.775 19.7538 147.494 19.4735 148.29 19.2841C149.085 19.0947 149.896 18.9508 150.722 18.8523C151.767 18.7311 152.616 18.6326 153.267 18.5568C153.919 18.4735 154.392 18.3409 154.688 18.1591C154.983 17.9773 155.131 17.6818 155.131 17.2727V17.1932C155.131 16.2008 154.85 15.4318 154.29 14.8864C153.737 14.3409 152.911 14.0682 151.812 14.0682C150.669 14.0682 149.767 14.322 149.108 14.8295C148.456 15.3295 148.006 15.8864 147.756 16.5L144.562 15.7727C144.941 14.7121 145.494 13.8561 146.222 13.2045C146.956 12.5455 147.801 12.0682 148.756 11.7727C149.71 11.4697 150.714 11.3182 151.767 11.3182C152.464 11.3182 153.203 11.4015 153.983 11.5682C154.771 11.7273 155.506 12.0227 156.188 12.4545C156.877 12.8864 157.441 13.5038 157.881 14.3068C158.32 15.1023 158.54 16.1364 158.54 17.4091V29H155.222V26.6136H155.085C154.866 27.053 154.536 27.4848 154.097 27.9091C153.657 28.3333 153.093 28.6856 152.403 28.9659C151.714 29.2462 150.888 29.3864 149.926 29.3864ZM150.665 26.6591C151.604 26.6591 152.407 26.4735 153.074 26.1023C153.748 25.7311 154.259 25.2462 154.608 24.6477C154.964 24.0417 155.142 23.3939 155.142 22.7045V20.4545C155.021 20.5758 154.786 20.6894 154.438 20.7955C154.097 20.8939 153.706 20.9811 153.267 21.0568C152.828 21.125 152.4 21.1894 151.983 21.25C151.566 21.303 151.218 21.3485 150.938 21.3864C150.278 21.4697 149.676 21.6098 149.131 21.8068C148.593 22.0038 148.161 22.2879 147.835 22.6591C147.517 23.0227 147.358 23.5076 147.358 24.1136C147.358 24.9545 147.669 25.5909 148.29 26.0227C148.911 26.447 149.703 26.6591 150.665 26.6591ZM171.213 11.5455V14.2727H161.679V11.5455H171.213ZM164.236 7.36364H167.634V23.875C167.634 24.5341 167.732 25.0303 167.929 25.3636C168.126 25.6894 168.38 25.9129 168.69 26.0341C169.009 26.1477 169.353 26.2045 169.724 26.2045C169.997 26.2045 170.236 26.1856 170.44 26.1477C170.645 26.1098 170.804 26.0795 170.918 26.0568L171.531 28.8636C171.334 28.9394 171.054 29.0152 170.69 29.0909C170.327 29.1742 169.872 29.2197 169.327 29.2273C168.433 29.2424 167.599 29.0833 166.827 28.75C166.054 28.4167 165.429 27.9015 164.952 27.2045C164.474 26.5076 164.236 25.6326 164.236 24.5795V7.36364ZM182.307 29.3523C180.587 29.3523 179.106 28.9848 177.864 28.25C176.629 27.5076 175.674 26.4659 175 25.125C174.333 23.7765 174 22.197 174 20.3864C174 18.5985 174.333 17.0227 175 15.6591C175.674 14.2955 176.614 13.2311 177.818 12.4659C179.03 11.7008 180.447 11.3182 182.068 11.3182C183.053 11.3182 184.008 11.4811 184.932 11.8068C185.856 12.1326 186.686 12.6439 187.42 13.3409C188.155 14.0379 188.735 14.9432 189.159 16.0568C189.583 17.1629 189.795 18.5076 189.795 20.0909V21.2955H175.92V18.75H186.466C186.466 17.8561 186.284 17.0644 185.92 16.375C185.557 15.678 185.045 15.1288 184.386 14.7273C183.735 14.3258 182.97 14.125 182.091 14.125C181.136 14.125 180.303 14.3598 179.591 14.8295C178.886 15.2917 178.341 15.8977 177.955 16.6477C177.576 17.3902 177.386 18.197 177.386 19.0682V21.0568C177.386 22.2235 177.591 23.2159 178 24.0341C178.417 24.8523 178.996 25.4773 179.739 25.9091C180.481 26.3333 181.348 26.5455 182.341 26.5455C182.985 26.5455 183.572 26.4545 184.102 26.2727C184.633 26.0833 185.091 25.803 185.477 25.4318C185.864 25.0606 186.159 24.6023 186.364 24.0568L189.58 24.6364C189.322 25.5833 188.86 26.4129 188.193 27.125C187.534 27.8295 186.705 28.3788 185.705 28.7727C184.712 29.1591 183.58 29.3523 182.307 29.3523Z" fill="black"/>
    </g>
    <g class="dark-logo">
        <path d="M35.8 16.2551L9 29.3451V24.8951M9 24.8951L26.8984 16.1451L9 7.40503V16.0248V24.8951Z" stroke="white"/>
        <path d="M5 1V35.75M5 1L1 4.475V32.275L5 35.75M5 1L35.5 15.885V20.855L5 35.75" stroke="white"/>
        <path d="M8.96484 11.8398L22.3867 18.3945" stroke="white"/>
        <path d="M48.5227 29H44.7955L53.1705 5.72727H57.2273L65.6023 29H61.875L55.2955 9.95454H55.1136L48.5227 29ZM49.1477 19.8864H61.2386V22.8409H49.1477V19.8864ZM75.7614 29.3523C74.072 29.3523 72.6174 28.9697 71.3977 28.2045C70.1856 27.4318 69.2538 26.3674 68.6023 25.0114C67.9508 23.6553 67.625 22.1023 67.625 20.3523C67.625 18.5795 67.9583 17.0152 68.625 15.6591C69.2917 14.2955 70.2311 13.2311 71.4432 12.4659C72.6553 11.7008 74.0833 11.3182 75.7273 11.3182C77.053 11.3182 78.2348 11.5644 79.2727 12.0568C80.3106 12.5417 81.1477 13.2235 81.7841 14.1023C82.428 14.9811 82.8106 16.0076 82.9318 17.1818H79.625C79.4432 16.3636 79.0265 15.6591 78.375 15.0682C77.7311 14.4773 76.8674 14.1818 75.7841 14.1818C74.8371 14.1818 74.0076 14.4318 73.2955 14.9318C72.5909 15.4242 72.0417 16.1288 71.6477 17.0455C71.2538 17.9545 71.0568 19.0303 71.0568 20.2727C71.0568 21.5455 71.25 22.6439 71.6364 23.5682C72.0227 24.4924 72.5682 25.2083 73.2727 25.7159C73.9848 26.2235 74.822 26.4773 75.7841 26.4773C76.428 26.4773 77.0114 26.3598 77.5341 26.125C78.0644 25.8826 78.5076 25.5379 78.8636 25.0909C79.2273 24.6439 79.4811 24.1061 79.625 23.4773H82.9318C82.8106 24.6061 82.4432 25.6136 81.8295 26.5C81.2159 27.3864 80.3939 28.0833 79.3636 28.5909C78.3409 29.0985 77.1402 29.3523 75.7614 29.3523ZM94.7131 11.5455V14.2727H85.179V11.5455H94.7131ZM87.7358 7.36364H91.1335V23.875C91.1335 24.5341 91.232 25.0303 91.429 25.3636C91.6259 25.6894 91.8797 25.9129 92.1903 26.0341C92.5085 26.1477 92.8532 26.2045 93.2244 26.2045C93.4972 26.2045 93.7358 26.1856 93.9403 26.1477C94.1449 26.1098 94.304 26.0795 94.4176 26.0568L95.0312 28.8636C94.8343 28.9394 94.554 29.0152 94.1903 29.0909C93.8267 29.1742 93.3722 29.2197 92.8267 29.2273C91.9328 29.2424 91.0994 29.0833 90.3267 28.75C89.554 28.4167 88.929 27.9015 88.4517 27.2045C87.9744 26.5076 87.7358 25.6326 87.7358 24.5795V7.36364ZM98.4716 29V11.5455H101.869V29H98.4716ZM100.188 8.85227C99.5966 8.85227 99.089 8.6553 98.6648 8.26136C98.2481 7.85985 98.0398 7.38257 98.0398 6.82954C98.0398 6.26894 98.2481 5.79167 98.6648 5.39773C99.089 4.99621 99.5966 4.79545 100.188 4.79545C100.778 4.79545 101.282 4.99621 101.699 5.39773C102.123 5.79167 102.335 6.26894 102.335 6.82954C102.335 7.38257 102.123 7.85985 101.699 8.26136C101.282 8.6553 100.778 8.85227 100.188 8.85227ZM113.793 29.3523C112.156 29.3523 110.728 28.9773 109.509 28.2273C108.289 27.4773 107.342 26.428 106.668 25.0795C105.993 23.7311 105.656 22.1553 105.656 20.3523C105.656 18.5417 105.993 16.9583 106.668 15.6023C107.342 14.2462 108.289 13.1932 109.509 12.4432C110.728 11.6932 112.156 11.3182 113.793 11.3182C115.429 11.3182 116.857 11.6932 118.077 12.4432C119.296 13.1932 120.243 14.2462 120.918 15.6023C121.592 16.9583 121.929 18.5417 121.929 20.3523C121.929 22.1553 121.592 23.7311 120.918 25.0795C120.243 26.428 119.296 27.4773 118.077 28.2273C116.857 28.9773 115.429 29.3523 113.793 29.3523ZM113.804 26.5C114.865 26.5 115.743 26.2197 116.44 25.6591C117.137 25.0985 117.652 24.3523 117.986 23.4205C118.327 22.4886 118.497 21.4621 118.497 20.3409C118.497 19.2273 118.327 18.2045 117.986 17.2727C117.652 16.3333 117.137 15.5795 116.44 15.0114C115.743 14.4432 114.865 14.1591 113.804 14.1591C112.736 14.1591 111.849 14.4432 111.145 15.0114C110.448 15.5795 109.929 16.3333 109.588 17.2727C109.255 18.2045 109.088 19.2273 109.088 20.3409C109.088 21.4621 109.255 22.4886 109.588 23.4205C109.929 24.3523 110.448 25.0985 111.145 25.6591C111.849 26.2197 112.736 26.5 113.804 26.5ZM129.119 18.6364V29H125.722V11.5455H128.983V14.3864H129.199C129.6 13.4621 130.229 12.7197 131.085 12.1591C131.949 11.5985 133.036 11.3182 134.347 11.3182C135.536 11.3182 136.578 11.5682 137.472 12.0682C138.366 12.5606 139.059 13.2955 139.551 14.2727C140.044 15.25 140.29 16.4583 140.29 17.8977V29H136.892V18.3068C136.892 17.0417 136.563 16.053 135.903 15.3409C135.244 14.6212 134.339 14.2614 133.188 14.2614C132.4 14.2614 131.699 14.4318 131.085 14.7727C130.479 15.1136 129.998 15.6136 129.642 16.2727C129.294 16.9242 129.119 17.7121 129.119 18.6364ZM149.926 29.3864C148.82 29.3864 147.82 29.1818 146.926 28.7727C146.032 28.3561 145.324 27.7538 144.801 26.9659C144.286 26.178 144.028 25.2121 144.028 24.0682C144.028 23.0833 144.218 22.2727 144.597 21.6364C144.975 21 145.487 20.4962 146.131 20.125C146.775 19.7538 147.494 19.4735 148.29 19.2841C149.085 19.0947 149.896 18.9508 150.722 18.8523C151.767 18.7311 152.616 18.6326 153.267 18.5568C153.919 18.4735 154.392 18.3409 154.688 18.1591C154.983 17.9773 155.131 17.6818 155.131 17.2727V17.1932C155.131 16.2008 154.85 15.4318 154.29 14.8864C153.737 14.3409 152.911 14.0682 151.812 14.0682C150.669 14.0682 149.767 14.322 149.108 14.8295C148.456 15.3295 148.006 15.8864 147.756 16.5L144.562 15.7727C144.941 14.7121 145.494 13.8561 146.222 13.2045C146.956 12.5455 147.801 12.0682 148.756 11.7727C149.71 11.4697 150.714 11.3182 151.767 11.3182C152.464 11.3182 153.203 11.4015 153.983 11.5682C154.771 11.7273 155.506 12.0227 156.188 12.4545C156.877 12.8864 157.441 13.5038 157.881 14.3068C158.32 15.1023 158.54 16.1364 158.54 17.4091V29H155.222V26.6136H155.085C154.866 27.053 154.536 27.4848 154.097 27.9091C153.657 28.3333 153.093 28.6856 152.403 28.9659C151.714 29.2462 150.888 29.3864 149.926 29.3864ZM150.665 26.6591C151.604 26.6591 152.407 26.4735 153.074 26.1023C153.748 25.7311 154.259 25.2462 154.608 24.6477C154.964 24.0417 155.142 23.3939 155.142 22.7045V20.4545C155.021 20.5758 154.786 20.6894 154.438 20.7955C154.097 20.8939 153.706 20.9811 153.267 21.0568C152.828 21.125 152.4 21.1894 151.983 21.25C151.566 21.303 151.218 21.3485 150.938 21.3864C150.278 21.4697 149.676 21.6098 149.131 21.8068C148.593 22.0038 148.161 22.2879 147.835 22.6591C147.517 23.0227 147.358 23.5076 147.358 24.1136C147.358 24.9545 147.669 25.5909 148.29 26.0227C148.911 26.447 149.703 26.6591 150.665 26.6591ZM171.213 11.5455V14.2727H161.679V11.5455H171.213ZM164.236 7.36364H167.634V23.875C167.634 24.5341 167.732 25.0303 167.929 25.3636C168.126 25.6894 168.38 25.9129 168.69 26.0341C169.009 26.1477 169.353 26.2045 169.724 26.2045C169.997 26.2045 170.236 26.1856 170.44 26.1477C170.645 26.1098 170.804 26.0795 170.918 26.0568L171.531 28.8636C171.334 28.9394 171.054 29.0152 170.69 29.0909C170.327 29.1742 169.872 29.2197 169.327 29.2273C168.433 29.2424 167.599 29.0833 166.827 28.75C166.054 28.4167 165.429 27.9015 164.952 27.2045C164.474 26.5076 164.236 25.6326 164.236 24.5795V7.36364ZM182.307 29.3523C180.587 29.3523 179.106 28.9848 177.864 28.25C176.629 27.5076 175.674 26.4659 175 25.125C174.333 23.7765 174 22.197 174 20.3864C174 18.5985 174.333 17.0227 175 15.6591C175.674 14.2955 176.614 13.2311 177.818 12.4659C179.03 11.7008 180.447 11.3182 182.068 11.3182C183.053 11.3182 184.008 11.4811 184.932 11.8068C185.856 12.1326 186.686 12.6439 187.42 13.3409C188.155 14.0379 188.735 14.9432 189.159 16.0568C189.583 17.1629 189.795 18.5076 189.795 20.0909V21.2955H175.92V18.75H186.466C186.466 17.8561 186.284 17.0644 185.92 16.375C185.557 15.678 185.045 15.1288 184.386 14.7273C183.735 14.3258 182.97 14.125 182.091 14.125C181.136 14.125 180.303 14.3598 179.591 14.8295C178.886 15.2917 178.341 15.8977 177.955 16.6477C177.576 17.3902 177.386 18.197 177.386 19.0682V21.0568C177.386 22.2235 177.591 23.2159 178 24.0341C178.417 24.8523 178.996 25.4773 179.739 25.9091C180.481 26.3333 181.348 26.5455 182.341 26.5455C182.985 26.5455 183.572 26.4545 184.102 26.2727C184.633 26.0833 185.091 25.803 185.477 25.4318C185.864 25.0606 186.159 24.6023 186.364 24.0568L189.58 24.6364C189.322 25.5833 188.86 26.4129 188.193 27.125C187.534 27.8295 186.705 28.3788 185.705 28.7727C184.712 29.1591 183.58 29.3523 182.307 29.3523Z" fill="white"/>
    </g>
</svg>
