<svg xmlns="http://www.w3.org/2000/svg" width="189" height="37" viewBox="0 0 189 37" fill="none">
    <style>
        @media (prefers-color-scheme: dark) {
            .light-logo { display: none; }
            .dark-logo { display: block; }
        }
        @media (prefers-color-scheme: light) {
            .light-logo { display: block; }
            .dark-logo { display: none; }
        }
    </style>
    <g class="light-logo">
        <path d="M35.8 16.2551L9 29.3451V24.8951M9 24.8951L26.8984 16.1451L9 7.40503V16.0248V24.8951Z" stroke="white"/>
        <path d="M5 1V35.75M5 1L1 4.475V32.275L5 35.75M5 1L35.5 15.885V20.855L5 35.75" stroke="white"/>
        <path d="M8.96484 11.8398L22.3867 18.3945" stroke="white"/>
        <path d="M47.5727 29.8945H44.6182L53.1636 6.6218H56.0727L64.6182 29.8945H61.6636L54.7091 10.3036H54.5273L47.5727 29.8945ZM48.6636 20.8036H60.5727V23.3036H48.6636V20.8036ZM74.9704 30.2582C73.3341 30.2582 71.925 29.8718 70.7432 29.0991C69.5614 28.3263 68.6523 27.262 68.0159 25.9059C67.3795 24.5498 67.0614 23.0006 67.0614 21.2582C67.0614 19.4854 67.3871 17.921 68.0386 16.565C68.6977 15.2013 69.6144 14.137 70.7886 13.3718C71.9704 12.5991 73.3492 12.2127 74.925 12.2127C76.1523 12.2127 77.2583 12.44 78.2432 12.8945C79.228 13.3491 80.0348 13.9854 80.6636 14.8036C81.2924 15.6218 81.6826 16.5763 81.8341 17.6673H79.1523C78.9477 16.8718 78.4932 16.1673 77.7886 15.5536C77.0917 14.9324 76.1523 14.6218 74.9704 14.6218C73.925 14.6218 73.0083 14.8945 72.2204 15.44C71.4401 15.9779 70.8303 16.7392 70.3909 17.7241C69.9591 18.7013 69.7432 19.8491 69.7432 21.1673C69.7432 22.5157 69.9553 23.69 70.3795 24.69C70.8114 25.69 71.4174 26.4665 72.1977 27.0195C72.9856 27.5726 73.9098 27.8491 74.9704 27.8491C75.6674 27.8491 76.3 27.7279 76.8682 27.4854C77.4364 27.243 77.9174 26.8945 78.3114 26.44C78.7053 25.9854 78.9856 25.44 79.1523 24.8036H81.8341C81.6826 25.8339 81.3076 26.762 80.7091 27.5877C80.1182 28.4059 79.3341 29.0574 78.3568 29.5423C77.3871 30.0195 76.2583 30.2582 74.9704 30.2582ZM93.3454 12.44V14.7127H84.3V12.44H93.3454ZM86.9364 8.25817H89.6182V24.8945C89.6182 25.6521 89.728 26.2203 89.9477 26.5991C90.175 26.9703 90.4629 27.2203 90.8114 27.3491C91.1674 27.4703 91.5424 27.5309 91.9364 27.5309C92.2318 27.5309 92.4742 27.5157 92.6636 27.4854C92.853 27.4476 93.0045 27.4173 93.1182 27.3945L93.6636 29.8036C93.4818 29.8718 93.228 29.94 92.9023 30.0082C92.5765 30.0839 92.1636 30.1218 91.6636 30.1218C90.906 30.1218 90.1636 29.9589 89.4364 29.6332C88.7167 29.3074 88.1182 28.8112 87.6409 28.1445C87.1712 27.4779 86.9364 26.637 86.9364 25.6218V8.25817ZM97.3795 29.8945V12.44H100.061V29.8945H97.3795ZM98.7432 9.5309C98.2204 9.5309 97.7697 9.35286 97.3909 8.9968C97.0197 8.64074 96.8341 8.21271 96.8341 7.71271C96.8341 7.21271 97.0197 6.78468 97.3909 6.42862C97.7697 6.07256 98.2204 5.89453 98.7432 5.89453C99.2659 5.89453 99.7129 6.07256 100.084 6.42862C100.463 6.78468 100.652 7.21271 100.652 7.71271C100.652 8.21271 100.463 8.64074 100.084 8.9968C99.7129 9.35286 99.2659 9.5309 98.7432 9.5309ZM112.064 30.2582C110.488 30.2582 109.106 29.8832 107.916 29.1332C106.735 28.3832 105.81 27.3339 105.144 25.9854C104.485 24.637 104.155 23.0612 104.155 21.2582C104.155 19.44 104.485 17.8529 105.144 16.4968C105.81 15.1407 106.735 14.0877 107.916 13.3377C109.106 12.5877 110.488 12.2127 112.064 12.2127C113.64 12.2127 115.019 12.5877 116.201 13.3377C117.39 14.0877 118.314 15.1407 118.973 16.4968C119.64 17.8529 119.973 19.44 119.973 21.2582C119.973 23.0612 119.64 24.637 118.973 25.9854C118.314 27.3339 117.39 28.3832 116.201 29.1332C115.019 29.8832 113.64 30.2582 112.064 30.2582ZM112.064 27.8491C113.261 27.8491 114.246 27.5423 115.019 26.9286C115.791 26.315 116.363 25.5082 116.735 24.5082C117.106 23.5082 117.291 22.4248 117.291 21.2582C117.291 20.0915 117.106 19.0044 116.735 17.9968C116.363 16.9892 115.791 16.1748 115.019 15.5536C114.246 14.9324 113.261 14.6218 112.064 14.6218C110.867 14.6218 109.882 14.9324 109.11 15.5536C108.337 16.1748 107.765 16.9892 107.394 17.9968C107.023 19.0044 106.837 20.0915 106.837 21.2582C106.837 22.4248 107.023 23.5082 107.394 24.5082C107.765 25.5082 108.337 26.315 109.11 26.9286C109.882 27.5423 110.867 27.8491 112.064 27.8491ZM126.749 19.3945V29.8945H124.067V12.44H126.658V15.1673H126.885C127.294 14.2809 127.916 13.5688 128.749 13.0309C129.582 12.4854 130.658 12.2127 131.976 12.2127C133.158 12.2127 134.192 12.4551 135.078 12.94C135.965 13.4173 136.654 14.1445 137.147 15.1218C137.639 16.0915 137.885 17.3188 137.885 18.8036V29.8945H135.203V18.9854C135.203 17.6142 134.847 16.546 134.135 15.7809C133.423 15.0082 132.446 14.6218 131.203 14.6218C130.347 14.6218 129.582 14.8074 128.908 15.1786C128.241 15.5498 127.715 16.0915 127.328 16.8036C126.942 17.5157 126.749 18.3794 126.749 19.3945ZM147.922 30.3036C146.816 30.3036 145.812 30.0953 144.911 29.6786C144.009 29.2544 143.293 28.6445 142.763 27.8491C142.233 27.046 141.968 26.0763 141.968 24.94C141.968 23.94 142.165 23.1294 142.559 22.5082C142.952 21.8794 143.479 21.387 144.138 21.0309C144.797 20.6748 145.524 20.4097 146.32 20.2354C147.123 20.0536 147.93 19.9097 148.74 19.8036C149.801 19.6673 150.661 19.565 151.32 19.4968C151.987 19.421 152.471 19.296 152.774 19.1218C153.085 18.9476 153.24 18.6445 153.24 18.2127V18.1218C153.24 17.0006 152.934 16.1294 152.32 15.5082C151.714 14.887 150.793 14.5763 149.559 14.5763C148.278 14.5763 147.274 14.8567 146.547 15.4173C145.82 15.9779 145.309 16.5763 145.013 17.2127L142.468 16.3036C142.922 15.243 143.528 14.4173 144.286 13.8263C145.051 13.2279 145.884 12.8112 146.786 12.5763C147.695 12.3339 148.589 12.2127 149.468 12.2127C150.028 12.2127 150.672 12.2809 151.399 12.4173C152.134 12.546 152.843 12.815 153.524 13.2241C154.214 13.6332 154.786 14.2506 155.24 15.0763C155.695 15.9021 155.922 17.0082 155.922 18.3945V29.8945H153.24V27.5309H153.104C152.922 27.9097 152.619 28.315 152.195 28.7468C151.771 29.1786 151.206 29.546 150.502 29.8491C149.797 30.1521 148.937 30.3036 147.922 30.3036ZM148.331 27.8945C149.392 27.8945 150.286 27.6862 151.013 27.2695C151.748 26.8529 152.301 26.315 152.672 25.6559C153.051 24.9968 153.24 24.3036 153.24 23.5763V21.1218C153.127 21.2582 152.877 21.3832 152.49 21.4968C152.112 21.6029 151.672 21.6976 151.172 21.7809C150.68 21.8567 150.199 21.9248 149.729 21.9854C149.267 22.0385 148.892 22.0839 148.604 22.1218C147.907 22.2127 147.255 22.3604 146.649 22.565C146.051 22.762 145.566 23.0612 145.195 23.4627C144.831 23.8567 144.649 24.3945 144.649 25.0763C144.649 26.0082 144.994 26.7127 145.684 27.19C146.38 27.6597 147.263 27.8945 148.331 27.8945ZM168.408 12.44V14.7127H159.362V12.44H168.408ZM161.999 8.25817H164.681V24.8945C164.681 25.6521 164.791 26.2203 165.01 26.5991C165.237 26.9703 165.525 27.2203 165.874 27.3491C166.23 27.4703 166.605 27.5309 166.999 27.5309C167.294 27.5309 167.537 27.5157 167.726 27.4854C167.916 27.4476 168.067 27.4173 168.181 27.3945L168.726 29.8036C168.544 29.8718 168.291 29.94 167.965 30.0082C167.639 30.0839 167.226 30.1218 166.726 30.1218C165.969 30.1218 165.226 29.9589 164.499 29.6332C163.779 29.3074 163.181 28.8112 162.703 28.1445C162.234 27.4779 161.999 26.637 161.999 25.6218V8.25817ZM179.573 30.2582C177.891 30.2582 176.44 29.887 175.22 29.1445C174.008 28.3945 173.073 27.3491 172.414 26.0082C171.762 24.6597 171.436 23.0915 171.436 21.3036C171.436 19.5157 171.762 17.94 172.414 16.5763C173.073 15.2051 173.989 14.137 175.164 13.3718C176.345 12.5991 177.724 12.2127 179.3 12.2127C180.209 12.2127 181.107 12.3642 181.993 12.6673C182.88 12.9703 183.686 13.4627 184.414 14.1445C185.141 14.8188 185.72 15.7127 186.152 16.8263C186.584 17.94 186.8 19.3112 186.8 20.94V22.0763H173.345V19.7582H184.073C184.073 18.7733 183.876 17.8945 183.482 17.1218C183.095 16.3491 182.542 15.7392 181.823 15.2923C181.111 14.8453 180.27 14.6218 179.3 14.6218C178.232 14.6218 177.308 14.887 176.527 15.4173C175.755 15.94 175.16 16.6218 174.743 17.4627C174.327 18.3036 174.118 19.2051 174.118 20.1673V21.7127C174.118 23.0309 174.345 24.1483 174.8 25.065C175.262 25.9741 175.902 26.6673 176.72 27.1445C177.539 27.6142 178.489 27.8491 179.573 27.8491C180.277 27.8491 180.914 27.7506 181.482 27.5536C182.058 27.3491 182.554 27.046 182.97 26.6445C183.387 26.2354 183.709 25.7279 183.936 25.1218L186.527 25.8491C186.255 26.7279 185.796 27.5006 185.152 28.1673C184.508 28.8263 183.713 29.3415 182.766 29.7127C181.819 30.0763 180.755 30.2582 179.573 30.2582Z" fill="white"/>
    </g>
    <g class="dark-logo">
        <path d="M35.8 16.2551L9 29.3451V24.8951M9 24.8951L26.8984 16.1451L9 7.40503V16.0248V24.8951Z" stroke="white"/>
        <path d="M5 1V35.75M5 1L1 4.475V32.275L5 35.75M5 1L35.5 15.885V20.855L5 35.75" stroke="white"/>
        <path d="M8.96484 11.8398L22.3867 18.3945" stroke="white"/>
        <path d="M47.5727 29.8945H44.6182L53.1636 6.6218H56.0727L64.6182 29.8945H61.6636L54.7091 10.3036H54.5273L47.5727 29.8945ZM48.6636 20.8036H60.5727V23.3036H48.6636V20.8036ZM74.9704 30.2582C73.3341 30.2582 71.925 29.8718 70.7432 29.0991C69.5614 28.3263 68.6523 27.262 68.0159 25.9059C67.3795 24.5498 67.0614 23.0006 67.0614 21.2582C67.0614 19.4854 67.3871 17.921 68.0386 16.565C68.6977 15.2013 69.6144 14.137 70.7886 13.3718C71.9704 12.5991 73.3492 12.2127 74.925 12.2127C76.1523 12.2127 77.2583 12.44 78.2432 12.8945C79.228 13.3491 80.0348 13.9854 80.6636 14.8036C81.2924 15.6218 81.6826 16.5763 81.8341 17.6673H79.1523C78.9477 16.8718 78.4932 16.1673 77.7886 15.5536C77.0917 14.9324 76.1523 14.6218 74.9704 14.6218C73.925 14.6218 73.0083 14.8945 72.2204 15.44C71.4401 15.9779 70.8303 16.7392 70.3909 17.7241C69.9591 18.7013 69.7432 19.8491 69.7432 21.1673C69.7432 22.5157 69.9553 23.69 70.3795 24.69C70.8114 25.69 71.4174 26.4665 72.1977 27.0195C72.9856 27.5726 73.9098 27.8491 74.9704 27.8491C75.6674 27.8491 76.3 27.7279 76.8682 27.4854C77.4364 27.243 77.9174 26.8945 78.3114 26.44C78.7053 25.9854 78.9856 25.44 79.1523 24.8036H81.8341C81.6826 25.8339 81.3076 26.762 80.7091 27.5877C80.1182 28.4059 79.3341 29.0574 78.3568 29.5423C77.3871 30.0195 76.2583 30.2582 74.9704 30.2582ZM93.3454 12.44V14.7127H84.3V12.44H93.3454ZM86.9364 8.25817H89.6182V24.8945C89.6182 25.6521 89.728 26.2203 89.9477 26.5991C90.175 26.9703 90.4629 27.2203 90.8114 27.3491C91.1674 27.4703 91.5424 27.5309 91.9364 27.5309C92.2318 27.5309 92.4742 27.5157 92.6636 27.4854C92.853 27.4476 93.0045 27.4173 93.1182 27.3945L93.6636 29.8036C93.4818 29.8718 93.228 29.94 92.9023 30.0082C92.5765 30.0839 92.1636 30.1218 91.6636 30.1218C90.906 30.1218 90.1636 29.9589 89.4364 29.6332C88.7167 29.3074 88.1182 28.8112 87.6409 28.1445C87.1712 27.4779 86.9364 26.637 86.9364 25.6218V8.25817ZM97.3795 29.8945V12.44H100.061V29.8945H97.3795ZM98.7432 9.5309C98.2204 9.5309 97.7697 9.35286 97.3909 8.9968C97.0197 8.64074 96.8341 8.21271 96.8341 7.71271C96.8341 7.21271 97.0197 6.78468 97.3909 6.42862C97.7697 6.07256 98.2204 5.89453 98.7432 5.89453C99.2659 5.89453 99.7129 6.07256 100.084 6.42862C100.463 6.78468 100.652 7.21271 100.652 7.71271C100.652 8.21271 100.463 8.64074 100.084 8.9968C99.7129 9.35286 99.2659 9.5309 98.7432 9.5309ZM112.064 30.2582C110.488 30.2582 109.106 29.8832 107.916 29.1332C106.735 28.3832 105.81 27.3339 105.144 25.9854C104.485 24.637 104.155 23.0612 104.155 21.2582C104.155 19.44 104.485 17.8529 105.144 16.4968C105.81 15.1407 106.735 14.0877 107.916 13.3377C109.106 12.5877 110.488 12.2127 112.064 12.2127C113.64 12.2127 115.019 12.5877 116.201 13.3377C117.39 14.0877 118.314 15.1407 118.973 16.4968C119.64 17.8529 119.973 19.44 119.973 21.2582C119.973 23.0612 119.64 24.637 118.973 25.9854C118.314 27.3339 117.39 28.3832 116.201 29.1332C115.019 29.8832 113.64 30.2582 112.064 30.2582ZM112.064 27.8491C113.261 27.8491 114.246 27.5423 115.019 26.9286C115.791 26.315 116.363 25.5082 116.735 24.5082C117.106 23.5082 117.291 22.4248 117.291 21.2582C117.291 20.0915 117.106 19.0044 116.735 17.9968C116.363 16.9892 115.791 16.1748 115.019 15.5536C114.246 14.9324 113.261 14.6218 112.064 14.6218C110.867 14.6218 109.882 14.9324 109.11 15.5536C108.337 16.1748 107.765 16.9892 107.394 17.9968C107.023 19.0044 106.837 20.0915 106.837 21.2582C106.837 22.4248 107.023 23.5082 107.394 24.5082C107.765 25.5082 108.337 26.315 109.11 26.9286C109.882 27.5423 110.867 27.8491 112.064 27.8491ZM126.749 19.3945V29.8945H124.067V12.44H126.658V15.1673H126.885C127.294 14.2809 127.916 13.5688 128.749 13.0309C129.582 12.4854 130.658 12.2127 131.976 12.2127C133.158 12.2127 134.192 12.4551 135.078 12.94C135.965 13.4173 136.654 14.1445 137.147 15.1218C137.639 16.0915 137.885 17.3188 137.885 18.8036V29.8945H135.203V18.9854C135.203 17.6142 134.847 16.546 134.135 15.7809C133.423 15.0082 132.446 14.6218 131.203 14.6218C130.347 14.6218 129.582 14.8074 128.908 15.1786C128.241 15.5498 127.715 16.0915 127.328 16.8036C126.942 17.5157 126.749 18.3794 126.749 19.3945ZM147.922 30.3036C146.816 30.3036 145.812 30.0953 144.911 29.6786C144.009 29.2544 143.293 28.6445 142.763 27.8491C142.233 27.046 141.968 26.0763 141.968 24.94C141.968 23.94 142.165 23.1294 142.559 22.5082C142.952 21.8794 143.479 21.387 144.138 21.0309C144.797 20.6748 145.524 20.4097 146.32 20.2354C147.123 20.0536 147.93 19.9097 148.74 19.8036C149.801 19.6673 150.661 19.565 151.32 19.4968C151.987 19.421 152.471 19.296 152.774 19.1218C153.085 18.9476 153.24 18.6445 153.24 18.2127V18.1218C153.24 17.0006 152.934 16.1294 152.32 15.5082C151.714 14.887 150.793 14.5763 149.559 14.5763C148.278 14.5763 147.274 14.8567 146.547 15.4173C145.82 15.9779 145.309 16.5763 145.013 17.2127L142.468 16.3036C142.922 15.243 143.528 14.4173 144.286 13.8263C145.051 13.2279 145.884 12.8112 146.786 12.5763C147.695 12.3339 148.589 12.2127 149.468 12.2127C150.028 12.2127 150.672 12.2809 151.399 12.4173C152.134 12.546 152.843 12.815 153.524 13.2241C154.214 13.6332 154.786 14.2506 155.24 15.0763C155.695 15.9021 155.922 17.0082 155.922 18.3945V29.8945H153.24V27.5309H153.104C152.922 27.9097 152.619 28.315 152.195 28.7468C151.771 29.1786 151.206 29.546 150.502 29.8491C149.797 30.1521 148.937 30.3036 147.922 30.3036ZM148.331 27.8945C149.392 27.8945 150.286 27.6862 151.013 27.2695C151.748 26.8529 152.301 26.315 152.672 25.6559C153.051 24.9968 153.24 24.3036 153.24 23.5763V21.1218C153.127 21.2582 152.877 21.3832 152.49 21.4968C152.112 21.6029 151.672 21.6976 151.172 21.7809C150.68 21.8567 150.199 21.9248 149.729 21.9854C149.267 22.0385 148.892 22.0839 148.604 22.1218C147.907 22.2127 147.255 22.3604 146.649 22.565C146.051 22.762 145.566 23.0612 145.195 23.4627C144.831 23.8567 144.649 24.3945 144.649 25.0763C144.649 26.0082 144.994 26.7127 145.684 27.19C146.38 27.6597 147.263 27.8945 148.331 27.8945ZM168.408 12.44V14.7127H159.362V12.44H168.408ZM161.999 8.25817H164.681V24.8945C164.681 25.6521 164.791 26.2203 165.01 26.5991C165.237 26.9703 165.525 27.2203 165.874 27.3491C166.23 27.4703 166.605 27.5309 166.999 27.5309C167.294 27.5309 167.537 27.5157 167.726 27.4854C167.916 27.4476 168.067 27.4173 168.181 27.3945L168.726 29.8036C168.544 29.8718 168.291 29.94 167.965 30.0082C167.639 30.0839 167.226 30.1218 166.726 30.1218C165.969 30.1218 165.226 29.9589 164.499 29.6332C163.779 29.3074 163.181 28.8112 162.703 28.1445C162.234 27.4779 161.999 26.637 161.999 25.6218V8.25817ZM179.573 30.2582C177.891 30.2582 176.44 29.887 175.22 29.1445C174.008 28.3945 173.073 27.3491 172.414 26.0082C171.762 24.6597 171.436 23.0915 171.436 21.3036C171.436 19.5157 171.762 17.94 172.414 16.5763C173.073 15.2051 173.989 14.137 175.164 13.3718C176.345 12.5991 177.724 12.2127 179.3 12.2127C180.209 12.2127 181.107 12.3642 181.993 12.6673C182.88 12.9703 183.686 13.4627 184.414 14.1445C185.141 14.8188 185.72 15.7127 186.152 16.8263C186.584 17.94 186.8 19.3112 186.8 20.94V22.0763H173.345V19.7582H184.073C184.073 18.7733 183.876 17.8945 183.482 17.1218C183.095 16.3491 182.542 15.7392 181.823 15.2923C181.111 14.8453 180.27 14.6218 179.3 14.6218C178.232 14.6218 177.308 14.887 176.527 15.4173C175.755 15.94 175.16 16.6218 174.743 17.4627C174.327 18.3036 174.118 19.2051 174.118 20.1673V21.7127C174.118 23.0309 174.345 24.1483 174.8 25.065C175.262 25.9741 175.902 26.6673 176.72 27.1445C177.539 27.6142 178.489 27.8491 179.573 27.8491C180.277 27.8491 180.914 27.7506 181.482 27.5536C182.058 27.3491 182.554 27.046 182.97 26.6445C183.387 26.2354 183.709 25.7279 183.936 25.1218L186.527 25.8491C186.255 26.7279 185.796 27.5006 185.152 28.1673C184.508 28.8263 183.713 29.3415 182.766 29.7127C181.819 30.0763 180.755 30.2582 179.573 30.2582Z" fill="white"/>
    </g>
</svg>
