<svg width="406" height="96" viewBox="0 0 406 96" fill="none" xmlns="http://www.w3.org/2000/svg">
<path d="M116.552 75.9242C116.405 75.4752 116.212 75.0728 115.972 74.7171C115.736 74.357 115.454 74.0502 115.125 73.7968C114.8 73.5434 114.431 73.35 114.018 73.2166C113.605 73.0832 113.151 73.0165 112.657 73.0165C111.848 73.0165 111.113 73.2255 110.45 73.6434C109.788 74.0613 109.261 74.6771 108.869 75.4907C108.478 76.3043 108.283 77.3025 108.283 78.4851C108.283 79.6678 108.48 80.6659 108.876 81.4795C109.272 82.2931 109.808 82.9089 110.483 83.3268C111.159 83.7448 111.919 83.9537 112.764 83.9537C113.547 83.9537 114.236 83.787 114.832 83.4535C115.432 83.1157 115.899 82.6399 116.232 82.0264C116.57 81.4084 116.739 80.6815 116.739 79.8456L117.246 79.9523H113.138V78.4851H118.34V79.9523C118.34 81.0771 118.099 82.0553 117.619 82.8867C117.144 83.7181 116.486 84.3628 115.645 84.8207C114.809 85.2742 113.849 85.5009 112.764 85.5009C111.555 85.5009 110.492 85.2164 109.576 84.6473C108.665 84.0782 107.954 83.269 107.442 82.2198C106.935 81.1705 106.682 79.9256 106.682 78.4851C106.682 77.4047 106.827 76.4333 107.116 75.5707C107.409 74.7038 107.822 73.9657 108.356 73.3566C108.889 72.7475 109.521 72.2807 110.25 71.9561C110.979 71.6316 111.782 71.4693 112.657 71.4693C113.378 71.4693 114.049 71.5782 114.672 71.7961C115.298 72.0095 115.856 72.314 116.345 72.7097C116.839 73.101 117.25 73.57 117.579 74.1169C117.908 74.6593 118.135 75.2618 118.259 75.9242H116.552ZM121.601 85.3142V75.0706H123.175V85.3142H121.601ZM122.401 73.3633C122.094 73.3633 121.83 73.2588 121.607 73.0499C121.389 72.8409 121.281 72.5897 121.281 72.2963C121.281 72.0028 121.389 71.7516 121.607 71.5427C121.83 71.3337 122.094 71.2292 122.401 71.2292C122.708 71.2292 122.97 71.3337 123.188 71.5427C123.41 71.7516 123.521 72.0028 123.521 72.2963C123.521 72.5897 123.41 72.8409 123.188 73.0499C122.97 73.2588 122.708 73.3633 122.401 73.3633ZM130.512 75.0706V76.4044H125.204V75.0706H130.512ZM126.751 72.6164H128.325V82.3798C128.325 82.8244 128.389 83.1579 128.518 83.3802C128.652 83.598 128.82 83.7448 129.025 83.8203C129.234 83.8915 129.454 83.927 129.685 83.927C129.859 83.927 130.001 83.9182 130.112 83.9004C130.223 83.8781 130.312 83.8604 130.379 83.847L130.699 85.2609C130.592 85.3009 130.443 85.3409 130.252 85.3809C130.061 85.4254 129.819 85.4476 129.525 85.4476C129.081 85.4476 128.645 85.352 128.218 85.1608C127.796 84.9696 127.444 84.6784 127.164 84.2872C126.889 83.8959 126.751 83.4024 126.751 82.8067V72.6164ZM133.313 85.3142V71.656H134.967V77.7382H142.25V71.656H143.904V85.3142H142.25V79.2054H134.967V85.3142H133.313ZM153.457 81.1261V75.0706H155.031V85.3142H153.457V83.5803H153.35C153.11 84.1004 152.737 84.5428 152.23 84.9074C151.723 85.2675 151.083 85.4476 150.309 85.4476C149.669 85.4476 149.1 85.3075 148.602 85.0274C148.104 84.7429 147.713 84.3161 147.428 83.747C147.144 83.1734 147.001 82.451 147.001 81.5795V75.0706H148.575V81.4728C148.575 82.2198 148.784 82.8155 149.202 83.2601C149.625 83.7047 150.162 83.927 150.816 83.927C151.207 83.927 151.605 83.827 152.01 83.6269C152.419 83.4269 152.761 83.1201 153.037 82.7066C153.317 82.2931 153.457 81.7663 153.457 81.1261ZM158.127 85.3142V71.656H159.701V76.6978H159.834C159.95 76.52 160.11 76.2932 160.314 76.0176C160.523 75.7375 160.821 75.4885 161.208 75.2706C161.599 75.0483 162.128 74.9372 162.795 74.9372C163.658 74.9372 164.418 75.1528 165.076 75.5841C165.734 76.0154 166.248 76.6267 166.617 77.4181C166.986 78.2095 167.17 79.1431 167.17 80.2191C167.17 81.3039 166.986 82.2442 166.617 83.0401C166.248 83.8315 165.736 84.445 165.083 84.8807C164.429 85.312 163.676 85.5276 162.822 85.5276C162.164 85.5276 161.637 85.4187 161.241 85.2008C160.846 84.9785 160.541 84.7273 160.328 84.4472C160.114 84.1627 159.95 83.927 159.834 83.7403H159.648V85.3142H158.127ZM159.674 80.1924C159.674 80.966 159.788 81.6485 160.014 82.2398C160.241 82.8267 160.572 83.2868 161.008 83.6203C161.444 83.9493 161.977 84.1138 162.609 84.1138C163.267 84.1138 163.816 83.9404 164.256 83.5936C164.7 83.2424 165.034 82.7711 165.256 82.1798C165.483 81.584 165.596 80.9215 165.596 80.1924C165.596 79.4721 165.485 78.823 165.263 78.245C165.045 77.6626 164.714 77.2024 164.269 76.8645C163.829 76.5222 163.275 76.351 162.609 76.351C161.968 76.351 161.43 76.5133 160.995 76.8379C160.559 77.158 160.23 77.607 160.008 78.185C159.785 78.7585 159.674 79.4277 159.674 80.1924ZM175.633 85.3142H173.899L178.914 71.656H180.622L185.637 85.3142H183.903L179.821 73.8168H179.715L175.633 85.3142ZM176.273 79.979H183.263V81.4462H176.273V79.979ZM191.712 85.5276C190.752 85.5276 189.925 85.3009 189.231 84.8474C188.538 84.3939 188.004 83.7692 187.631 82.9734C187.257 82.1775 187.071 81.2683 187.071 80.2457C187.071 79.2054 187.262 78.2873 187.644 77.4914C188.031 76.6911 188.569 76.0665 189.258 75.6174C189.952 75.1639 190.761 74.9372 191.686 74.9372C192.406 74.9372 193.055 75.0706 193.633 75.3373C194.211 75.6041 194.684 75.9776 195.053 76.4577C195.422 76.9379 195.651 77.4981 195.74 78.1383H194.166C194.046 77.6715 193.78 77.258 193.366 76.8979C192.957 76.5333 192.406 76.351 191.712 76.351C191.099 76.351 190.561 76.5111 190.098 76.8312C189.64 77.1469 189.282 77.5937 189.025 78.1717C188.771 78.7452 188.644 79.4188 188.644 80.1924C188.644 80.9838 188.769 81.6729 189.018 82.2598C189.271 82.8467 189.627 83.3024 190.085 83.6269C190.547 83.9515 191.09 84.1138 191.712 84.1138C192.121 84.1138 192.493 84.0426 192.826 83.9004C193.159 83.7581 193.442 83.5536 193.673 83.2868C193.904 83.0201 194.069 82.6999 194.166 82.3265H195.74C195.651 82.9311 195.431 83.4758 195.08 83.9604C194.733 84.4406 194.273 84.8229 193.7 85.1075C193.131 85.3876 192.468 85.5276 191.712 85.5276ZM202.496 75.0706V76.4044H197.188V75.0706H202.496ZM198.735 72.6164H200.309V82.3798C200.309 82.8244 200.373 83.1579 200.502 83.3802C200.635 83.598 200.804 83.7448 201.009 83.8203C201.218 83.8915 201.438 83.927 201.669 83.927C201.842 83.927 201.985 83.9182 202.096 83.9004C202.207 83.8781 202.296 83.8604 202.363 83.847L202.683 85.2609C202.576 85.3009 202.427 85.3409 202.236 85.3809C202.045 85.4254 201.802 85.4476 201.509 85.4476C201.064 85.4476 200.629 85.352 200.202 85.1608C199.78 84.9696 199.428 84.6784 199.148 84.2872C198.873 83.8959 198.735 83.4024 198.735 82.8067V72.6164ZM204.864 85.3142V75.0706H206.437V85.3142H204.864ZM205.664 73.3633C205.357 73.3633 205.093 73.2588 204.87 73.0499C204.652 72.8409 204.543 72.5897 204.543 72.2963C204.543 72.0028 204.652 71.7516 204.87 71.5427C205.093 71.3337 205.357 71.2292 205.664 71.2292C205.971 71.2292 206.233 71.3337 206.451 71.5427C206.673 71.7516 206.784 72.0028 206.784 72.2963C206.784 72.5897 206.673 72.8409 206.451 73.0499C206.233 73.2588 205.971 73.3633 205.664 73.3633ZM213.482 85.5276C212.557 85.5276 211.745 85.3075 211.047 84.8674C210.354 84.4272 209.811 83.8115 209.42 83.0201C209.033 82.2287 208.84 81.3039 208.84 80.2457C208.84 79.1787 209.033 78.2473 209.42 77.4514C209.811 76.6556 210.354 76.0376 211.047 75.5974C211.745 75.1573 212.557 74.9372 213.482 74.9372C214.406 74.9372 215.216 75.1573 215.909 75.5974C216.607 76.0376 217.15 76.6556 217.536 77.4514C217.928 78.2473 218.123 79.1787 218.123 80.2457C218.123 81.3039 217.928 82.2287 217.536 83.0201C217.15 83.8115 216.607 84.4272 215.909 84.8674C215.216 85.3075 214.406 85.5276 213.482 85.5276ZM213.482 84.1138C214.184 84.1138 214.762 83.9337 215.216 83.5736C215.669 83.2135 216.005 82.74 216.223 82.1531C216.44 81.5662 216.549 80.9304 216.549 80.2457C216.549 79.5611 216.44 78.9231 216.223 78.3317C216.005 77.7404 215.669 77.2625 215.216 76.8979C214.762 76.5333 214.184 76.351 213.482 76.351C212.779 76.351 212.201 76.5333 211.748 76.8979C211.294 77.2625 210.959 77.7404 210.741 78.3317C210.523 78.9231 210.414 79.5611 210.414 80.2457C210.414 80.9304 210.523 81.5662 210.741 82.1531C210.959 82.74 211.294 83.2135 211.748 83.5736C212.201 83.9337 212.779 84.1138 213.482 84.1138ZM222.1 79.152V85.3142H220.526V75.0706H222.046V76.6711H222.18C222.42 76.151 222.784 75.733 223.273 75.4174C223.762 75.0972 224.394 74.9372 225.167 74.9372C225.861 74.9372 226.468 75.0795 226.988 75.364C227.508 75.6441 227.913 76.0709 228.202 76.6445C228.491 77.2136 228.635 77.9338 228.635 78.8052V85.3142H227.061V78.9119C227.061 78.1072 226.852 77.4803 226.435 77.0313C226.017 76.5778 225.443 76.351 224.714 76.351C224.212 76.351 223.762 76.46 223.367 76.6778C222.976 76.8957 222.667 77.2136 222.44 77.6315C222.213 78.0494 222.1 78.5563 222.1 79.152ZM238.767 77.3647L237.353 77.7649C237.265 77.5292 237.133 77.3003 236.96 77.078C236.791 76.8512 236.56 76.6645 236.266 76.5178C235.973 76.371 235.597 76.2977 235.139 76.2977C234.512 76.2977 233.99 76.4422 233.572 76.7312C233.159 77.0157 232.952 77.3781 232.952 77.8182C232.952 78.2095 233.094 78.5185 233.379 78.7452C233.663 78.972 234.108 79.1609 234.712 79.3121L236.233 79.6855C237.149 79.9078 237.831 80.248 238.28 80.7059C238.729 81.1594 238.954 81.7441 238.954 82.4599C238.954 83.0467 238.785 83.5714 238.447 84.0338C238.114 84.4961 237.647 84.8607 237.047 85.1275C236.446 85.3942 235.748 85.5276 234.953 85.5276C233.908 85.5276 233.043 85.3009 232.358 84.8474C231.674 84.3939 231.24 83.7314 231.058 82.86L232.552 82.4865C232.694 83.0378 232.963 83.4513 233.359 83.727C233.759 84.0026 234.281 84.1405 234.926 84.1405C235.659 84.1405 236.242 83.9848 236.673 83.6736C237.109 83.358 237.327 82.98 237.327 82.5399C237.327 82.1842 237.202 81.8863 236.953 81.6462C236.704 81.4017 236.322 81.2194 235.806 81.0994L234.099 80.6992C233.161 80.4769 232.472 80.1324 232.032 79.6655C231.596 79.1943 231.378 78.6052 231.378 77.8982C231.378 77.3203 231.54 76.809 231.865 76.3644C232.194 75.9198 232.641 75.5707 233.205 75.3173C233.774 75.0639 234.419 74.9372 235.139 74.9372C236.153 74.9372 236.949 75.1595 237.527 75.6041C238.109 76.0487 238.523 76.6356 238.767 77.3647ZM251.167 75.0706V76.4044H245.645V75.0706H251.167ZM247.299 85.3142V73.6567C247.299 73.0699 247.436 72.5808 247.712 72.1895C247.988 71.7983 248.346 71.5049 248.786 71.3092C249.226 71.1136 249.691 71.0158 250.18 71.0158C250.566 71.0158 250.882 71.0469 251.127 71.1092C251.371 71.1714 251.553 71.2292 251.674 71.2826L251.22 72.643C251.14 72.6164 251.029 72.583 250.887 72.543C250.749 72.503 250.566 72.483 250.34 72.483C249.82 72.483 249.444 72.6141 249.213 72.8765C248.986 73.1388 248.873 73.5234 248.873 74.0302V85.3142H247.299ZM257.112 85.5276C256.187 85.5276 255.376 85.3075 254.678 84.8674C253.984 84.4272 253.442 83.8115 253.051 83.0201C252.664 82.2287 252.47 81.3039 252.47 80.2457C252.47 79.1787 252.664 78.2473 253.051 77.4514C253.442 76.6556 253.984 76.0376 254.678 75.5974C255.376 75.1573 256.187 74.9372 257.112 74.9372C258.037 74.9372 258.846 75.1573 259.54 75.5974C260.238 76.0376 260.78 76.6556 261.167 77.4514C261.558 78.2473 261.754 79.1787 261.754 80.2457C261.754 81.3039 261.558 82.2287 261.167 83.0201C260.78 83.8115 260.238 84.4272 259.54 84.8674C258.846 85.3075 258.037 85.5276 257.112 85.5276ZM257.112 84.1138C257.815 84.1138 258.393 83.9337 258.846 83.5736C259.3 83.2135 259.635 82.74 259.853 82.1531C260.071 81.5662 260.18 80.9304 260.18 80.2457C260.18 79.5611 260.071 78.9231 259.853 78.3317C259.635 77.7404 259.3 77.2625 258.846 76.8979C258.393 76.5333 257.815 76.351 257.112 76.351C256.41 76.351 255.832 76.5333 255.378 76.8979C254.925 77.2625 254.589 77.7404 254.371 78.3317C254.153 78.9231 254.044 79.5611 254.044 80.2457C254.044 80.9304 254.153 81.5662 254.371 82.1531C254.589 82.74 254.925 83.2135 255.378 83.5736C255.832 83.9337 256.41 84.1138 257.112 84.1138ZM264.156 85.3142V75.0706H265.677V76.6178H265.784C265.97 76.1109 266.308 75.6997 266.797 75.384C267.286 75.0683 267.838 74.9105 268.451 74.9105C268.567 74.9105 268.711 74.9127 268.885 74.9172C269.058 74.9216 269.189 74.9283 269.278 74.9372V76.5378C269.225 76.5244 269.102 76.5044 268.911 76.4777C268.725 76.4466 268.527 76.4311 268.318 76.4311C267.82 76.4311 267.375 76.5355 266.984 76.7445C266.597 76.949 266.29 77.2336 266.064 77.5981C265.841 77.9583 265.73 78.3695 265.73 78.8319V85.3142H264.156ZM281.868 71.656H283.521V81.4195C283.521 82.2909 283.361 83.0312 283.041 83.6403C282.721 84.2494 282.27 84.7118 281.688 85.0274C281.105 85.3431 280.418 85.5009 279.627 85.5009C278.88 85.5009 278.215 85.3653 277.633 85.0941C277.05 84.8185 276.592 84.4272 276.259 83.9204C275.925 83.4135 275.759 82.8111 275.759 82.1131H277.386C277.386 82.4999 277.482 82.8378 277.673 83.1268C277.868 83.4113 278.135 83.6336 278.473 83.7937C278.811 83.9537 279.196 84.0338 279.627 84.0338C280.102 84.0338 280.507 83.9337 280.841 83.7336C281.174 83.5336 281.427 83.2401 281.601 82.8533C281.779 82.4621 281.868 81.9841 281.868 81.4195V71.656ZM290.917 85.5276C289.93 85.5276 289.079 85.3098 288.363 84.8741C287.652 84.4339 287.103 83.8203 286.716 83.0334C286.334 82.242 286.142 81.3217 286.142 80.2724C286.142 79.2232 286.334 78.2984 286.716 77.4981C287.103 76.6934 287.641 76.0665 288.33 75.6174C289.023 75.1639 289.833 74.9372 290.757 74.9372C291.291 74.9372 291.818 75.0261 292.338 75.204C292.858 75.3818 293.332 75.6708 293.758 76.0709C294.185 76.4666 294.525 76.9913 294.779 77.6448C295.032 78.2984 295.159 79.1031 295.159 80.059V80.7259H287.263V79.3654H293.558C293.558 78.7874 293.443 78.2717 293.212 77.8182C292.985 77.3647 292.66 77.0068 292.238 76.7445C291.82 76.4822 291.326 76.351 290.757 76.351C290.131 76.351 289.588 76.5066 289.13 76.8179C288.677 77.1246 288.328 77.5248 288.083 78.0183C287.839 78.5118 287.716 79.0409 287.716 79.6055V80.5125C287.716 81.2861 287.85 81.9419 288.116 82.4799C288.388 83.0134 288.763 83.4202 289.244 83.7003C289.724 83.976 290.282 84.1138 290.917 84.1138C291.331 84.1138 291.704 84.056 292.038 83.9404C292.376 83.8203 292.667 83.6425 292.911 83.4069C293.156 83.1668 293.345 82.8689 293.478 82.5132L294.999 82.94C294.839 83.4558 294.57 83.9093 294.192 84.3005C293.814 84.6873 293.347 84.9896 292.791 85.2075C292.236 85.4209 291.611 85.5276 290.917 85.5276ZM302.008 75.0706V76.4044H296.7V75.0706H302.008ZM298.247 72.6164H299.821V82.3798C299.821 82.8244 299.885 83.1579 300.014 83.3802C300.147 83.598 300.316 83.7448 300.521 83.8203C300.73 83.8915 300.95 83.927 301.181 83.927C301.354 83.927 301.497 83.9182 301.608 83.9004C301.719 83.8781 301.808 83.8604 301.875 83.847L302.195 85.2609C302.088 85.3009 301.939 85.3409 301.748 85.3809C301.557 85.4254 301.314 85.4476 301.021 85.4476C300.576 85.4476 300.141 85.352 299.714 85.1608C299.292 84.9696 298.94 84.6784 298.66 84.2872C298.385 83.8959 298.247 83.4024 298.247 82.8067V72.6164ZM304.809 85.3142V71.656H309.584C310.536 71.656 311.32 71.8205 311.938 72.1495C312.556 72.4741 313.016 72.912 313.319 73.4633C313.621 74.0102 313.772 74.6171 313.772 75.284C313.772 75.8709 313.668 76.3555 313.459 76.7378C313.254 77.1202 312.983 77.4225 312.645 77.6448C312.312 77.8671 311.949 78.0316 311.558 78.1383V78.2717C311.976 78.2984 312.396 78.4451 312.819 78.7119C313.241 78.9786 313.594 79.361 313.879 79.8589C314.163 80.3569 314.306 80.966 314.306 81.6863C314.306 82.3709 314.15 82.9867 313.839 83.5336C313.528 84.0804 313.036 84.5139 312.365 84.834C311.694 85.1542 310.82 85.3142 309.744 85.3142H304.809ZM306.463 83.847H309.744C310.825 83.847 311.591 83.6381 312.045 83.2201C312.503 82.7978 312.732 82.2865 312.732 81.6863C312.732 81.2239 312.614 80.797 312.378 80.4058C312.143 80.0101 311.807 79.6944 311.371 79.4588C310.936 79.2187 310.42 79.0987 309.824 79.0987H306.463V83.847ZM306.463 77.6582H309.531C310.029 77.6582 310.478 77.5603 310.878 77.3647C311.282 77.1691 311.603 76.8934 311.838 76.5378C312.078 76.1821 312.198 75.7642 312.198 75.284C312.198 74.6838 311.989 74.1747 311.571 73.7568C311.154 73.3344 310.491 73.1232 309.584 73.1232H306.463V77.6582ZM316.81 85.3142V75.0706H318.331V76.6178H318.437C318.624 76.1109 318.962 75.6997 319.451 75.384C319.94 75.0683 320.491 74.9105 321.105 74.9105C321.22 74.9105 321.365 74.9127 321.538 74.9172C321.712 74.9216 321.843 74.9283 321.932 74.9372V76.5378C321.878 76.5244 321.756 76.5044 321.565 76.4777C321.378 76.4466 321.18 76.4311 320.971 76.4311C320.473 76.4311 320.029 76.5355 319.638 76.7445C319.251 76.949 318.944 77.2336 318.717 77.5981C318.495 77.9583 318.384 78.3695 318.384 78.8319V85.3142H316.81ZM326.812 85.5543C326.163 85.5543 325.574 85.432 325.045 85.1875C324.515 84.9385 324.095 84.5806 323.784 84.1138C323.473 83.6425 323.317 83.0734 323.317 82.4065C323.317 81.8196 323.433 81.3439 323.664 80.9793C323.895 80.6103 324.204 80.3213 324.591 80.1124C324.978 79.9034 325.405 79.7478 325.872 79.6455C326.343 79.5388 326.816 79.4544 327.292 79.3921C327.914 79.3121 328.419 79.2521 328.806 79.212C329.197 79.1676 329.482 79.0942 329.66 78.992C329.842 78.8897 329.933 78.7119 329.933 78.4584V78.4051C329.933 77.7471 329.753 77.2358 329.393 76.8712C329.037 76.5066 328.497 76.3244 327.772 76.3244C327.021 76.3244 326.432 76.4889 326.005 76.8179C325.578 77.1469 325.278 77.4981 325.105 77.8716L323.611 77.338C323.877 76.7156 324.233 76.231 324.678 75.8842C325.127 75.533 325.616 75.2884 326.145 75.1506C326.678 75.0083 327.203 74.9372 327.719 74.9372C328.048 74.9372 328.426 74.9772 328.853 75.0572C329.284 75.1328 329.7 75.2906 330.1 75.5307C330.504 75.7708 330.84 76.1332 331.107 76.6178C331.373 77.1024 331.507 77.7515 331.507 78.5651V85.3142H329.933V83.927H329.853C329.746 84.1494 329.568 84.3872 329.319 84.6406C329.07 84.8941 328.739 85.1097 328.326 85.2875C327.912 85.4654 327.408 85.5543 326.812 85.5543ZM327.052 84.1405C327.674 84.1405 328.199 84.0182 328.626 83.7737C329.057 83.5291 329.382 83.2135 329.6 82.8267C329.822 82.4399 329.933 82.033 329.933 81.6062V80.1657C329.866 80.2457 329.72 80.3191 329.493 80.3858C329.271 80.448 329.013 80.5036 328.719 80.5525C328.43 80.597 328.148 80.637 327.872 80.6726C327.601 80.7037 327.381 80.7304 327.212 80.7526C326.803 80.8059 326.421 80.8926 326.065 81.0127C325.714 81.1283 325.429 81.3039 325.211 81.5395C324.998 81.7707 324.891 82.0864 324.891 82.4865C324.891 83.0334 325.093 83.4469 325.498 83.727C325.907 84.0026 326.425 84.1405 327.052 84.1405ZM334.38 85.3142V75.0706H335.953V85.3142H334.38ZM335.18 73.3633C334.873 73.3633 334.609 73.2588 334.386 73.0499C334.168 72.8409 334.059 72.5897 334.059 72.2963C334.059 72.0028 334.168 71.7516 334.386 71.5427C334.609 71.3337 334.873 71.2292 335.18 71.2292C335.487 71.2292 335.749 71.3337 335.967 71.5427C336.189 71.7516 336.3 72.0028 336.3 72.2963C336.3 72.5897 336.189 72.8409 335.967 73.0499C335.749 73.2588 335.487 73.3633 335.18 73.3633ZM340.41 79.152V85.3142H338.836V75.0706H340.357V76.6711H340.49C340.73 76.151 341.095 75.733 341.584 75.4174C342.073 75.0972 342.704 74.9372 343.478 74.9372C344.171 74.9372 344.778 75.0795 345.298 75.364C345.819 75.6441 346.223 76.0709 346.512 76.6445C346.801 77.2136 346.946 77.9338 346.946 78.8052V85.3142H345.372V78.9119C345.372 78.1072 345.163 77.4803 344.745 77.0313C344.327 76.5778 343.753 76.351 343.024 76.351C342.522 76.351 342.073 76.46 341.677 76.6778C341.286 76.8957 340.977 77.2136 340.75 77.6315C340.523 78.0494 340.41 78.5563 340.41 79.152ZM357.078 77.3647L355.664 77.7649C355.575 77.5292 355.444 77.3003 355.27 77.078C355.101 76.8512 354.87 76.6645 354.577 76.5178C354.283 76.371 353.908 76.2977 353.45 76.2977C352.823 76.2977 352.3 76.4422 351.882 76.7312C351.469 77.0157 351.262 77.3781 351.262 77.8182C351.262 78.2095 351.404 78.5185 351.689 78.7452C351.974 78.972 352.418 79.1609 353.023 79.3121L354.543 79.6855C355.459 79.9078 356.142 80.248 356.591 80.7059C357.04 81.1594 357.264 81.7441 357.264 82.4599C357.264 83.0467 357.095 83.5714 356.757 84.0338C356.424 84.4961 355.957 84.8607 355.357 85.1275C354.757 85.3942 354.059 85.5276 353.263 85.5276C352.218 85.5276 351.353 85.3009 350.669 84.8474C349.984 84.3939 349.55 83.7314 349.368 82.86L350.862 82.4865C351.004 83.0378 351.273 83.4513 351.669 83.727C352.069 84.0026 352.592 84.1405 353.236 84.1405C353.97 84.1405 354.552 83.9848 354.984 83.6736C355.419 83.358 355.637 82.98 355.637 82.5399C355.637 82.1842 355.513 81.8863 355.264 81.6462C355.015 81.4017 354.632 81.2194 354.117 81.0994L352.409 80.6992C351.471 80.4769 350.782 80.1324 350.342 79.6655C349.906 79.1943 349.688 78.6052 349.688 77.8982C349.688 77.3203 349.851 76.809 350.175 76.3644C350.504 75.9198 350.951 75.5707 351.516 75.3173C352.085 75.0639 352.729 74.9372 353.45 74.9372C354.463 74.9372 355.259 75.1595 355.837 75.6041C356.42 76.0487 356.833 76.6356 357.078 77.3647ZM366.783 71.656V85.3142H365.129V71.656H366.783ZM374.314 85.3142H370.099V71.656H374.5C375.825 71.656 376.959 71.9295 377.902 72.4763C378.844 73.0187 379.567 73.799 380.069 74.8171C380.572 75.8308 380.823 77.0446 380.823 78.4584C380.823 79.8812 380.569 81.106 380.062 82.1331C379.556 83.1557 378.818 83.9426 377.848 84.4939C376.879 85.0408 375.701 85.3142 374.314 85.3142ZM371.753 83.847H374.207C375.336 83.847 376.272 83.6292 377.015 83.1935C377.757 82.7577 378.311 82.1375 378.675 81.3328C379.04 80.5281 379.222 79.5699 379.222 78.4584C379.222 77.3558 379.042 76.4066 378.682 75.6108C378.322 74.8105 377.784 74.1969 377.068 73.7701C376.352 73.3388 375.461 73.1232 374.394 73.1232H371.753V83.847ZM383.597 85.3142V71.656H391.84V73.1232H385.251V77.7382H391.413V79.2054H385.251V83.847H391.947V85.3142H383.597ZM401.864 77.3647L400.45 77.7649C400.361 77.5292 400.23 77.3003 400.056 77.078C399.887 76.8512 399.656 76.6645 399.363 76.5178C399.069 76.371 398.693 76.2977 398.236 76.2977C397.609 76.2977 397.086 76.4422 396.668 76.7312C396.255 77.0157 396.048 77.3781 396.048 77.8182C396.048 78.2095 396.19 78.5185 396.475 78.7452C396.759 78.972 397.204 79.1609 397.809 79.3121L399.329 79.6855C400.245 79.9078 400.928 80.248 401.377 80.7059C401.826 81.1594 402.05 81.7441 402.05 82.4599C402.05 83.0467 401.881 83.5714 401.543 84.0338C401.21 84.4961 400.743 84.8607 400.143 85.1275C399.543 85.3942 398.845 85.5276 398.049 85.5276C397.004 85.5276 396.139 85.3009 395.455 84.8474C394.77 84.3939 394.336 83.7314 394.154 82.86L395.648 82.4865C395.79 83.0378 396.059 83.4513 396.455 83.727C396.855 84.0026 397.377 84.1405 398.022 84.1405C398.756 84.1405 399.338 83.9848 399.769 83.6736C400.205 83.358 400.423 82.98 400.423 82.5399C400.423 82.1842 400.299 81.8863 400.05 81.6462C399.801 81.4017 399.418 81.2194 398.902 81.0994L397.195 80.6992C396.257 80.4769 395.568 80.1324 395.128 79.6655C394.692 79.1943 394.474 78.6052 394.474 77.8982C394.474 77.3203 394.636 76.809 394.961 76.3644C395.29 75.9198 395.737 75.5707 396.302 75.3173C396.871 75.0639 397.515 74.9372 398.236 74.9372C399.249 74.9372 400.045 75.1595 400.623 75.6041C401.205 76.0487 401.619 76.6356 401.864 77.3647Z" fill="white"/>
<path d="M115.697 59.3103H106.697L123.084 12.7648H133.493L149.902 59.3103H140.902L128.47 22.3103H128.106L115.697 59.3103ZM115.993 41.0603H140.538V47.833H115.993V41.0603ZM169.834 59.9921C166.349 59.9921 163.356 59.227 160.856 57.6967C158.371 56.1664 156.455 54.0527 155.106 51.3558C153.773 48.6436 153.106 45.5224 153.106 41.9921C153.106 38.4467 153.788 35.3179 155.152 32.6058C156.515 29.8785 158.44 27.7573 160.924 26.2421C163.424 24.7118 166.379 23.9467 169.788 23.9467C172.621 23.9467 175.129 24.4694 177.311 25.5148C179.508 26.5452 181.258 28.0073 182.561 29.9012C183.864 31.78 184.606 33.977 184.788 36.4921H176.924C176.606 34.8103 175.849 33.4088 174.652 32.2876C173.47 31.1512 171.887 30.583 169.902 30.583C168.22 30.583 166.743 31.0376 165.47 31.9467C164.197 32.8406 163.205 34.1285 162.493 35.8103C161.796 37.4921 161.447 39.5073 161.447 41.8558C161.447 44.2345 161.796 46.28 162.493 47.9921C163.19 49.6891 164.167 50.9997 165.424 51.9239C166.697 52.833 168.19 53.2876 169.902 53.2876C171.114 53.2876 172.197 53.0603 173.152 52.6058C174.121 52.1361 174.932 51.4618 175.584 50.583C176.235 49.7042 176.682 48.6361 176.924 47.3785H184.788C184.591 49.8482 183.864 52.0376 182.606 53.9467C181.349 55.8406 179.637 57.3255 177.47 58.4012C175.303 59.4618 172.758 59.9921 169.834 59.9921ZM208.976 24.4012V30.7648H188.907V24.4012H208.976ZM193.862 16.0376H202.089V48.8103C202.089 49.9164 202.256 50.7648 202.589 51.3558C202.938 51.9315 203.392 52.3255 203.953 52.5376C204.513 52.7497 205.135 52.8558 205.817 52.8558C206.332 52.8558 206.801 52.8179 207.226 52.7421C207.665 52.6664 207.998 52.5982 208.226 52.5376L209.612 58.9694C209.173 59.1209 208.544 59.2876 207.726 59.4694C206.923 59.6512 205.938 59.7573 204.771 59.7876C202.71 59.8482 200.854 59.5376 199.203 58.8558C197.551 58.1588 196.241 57.083 195.271 55.6285C194.317 54.1739 193.847 52.3558 193.862 50.1739V16.0376ZM215.856 59.3103V24.4012H224.084V59.3103H215.856ZM219.993 19.4467C218.69 19.4467 217.568 19.0148 216.629 18.1512C215.69 17.2724 215.22 16.2194 215.22 14.9921C215.22 13.7497 215.69 12.6967 216.629 11.833C217.568 10.9542 218.69 10.5148 219.993 10.5148C221.311 10.5148 222.432 10.9542 223.356 11.833C224.296 12.6967 224.765 13.7497 224.765 14.9921C224.765 16.2194 224.296 17.2724 223.356 18.1512C222.432 19.0148 221.311 19.4467 219.993 19.4467ZM247.771 59.9921C244.362 59.9921 241.407 59.2421 238.907 57.7421C236.407 56.2421 234.468 54.1436 233.089 51.4467C231.726 48.7497 231.044 45.5982 231.044 41.9921C231.044 38.3861 231.726 35.227 233.089 32.5148C234.468 29.8027 236.407 27.6967 238.907 26.1967C241.407 24.6967 244.362 23.9467 247.771 23.9467C251.18 23.9467 254.135 24.6967 256.635 26.1967C259.135 27.6967 261.067 29.8027 262.43 32.5148C263.809 35.227 264.498 38.3861 264.498 41.9921C264.498 45.5982 263.809 48.7497 262.43 51.4467C261.067 54.1436 259.135 56.2421 256.635 57.7421C254.135 59.2421 251.18 59.9921 247.771 59.9921ZM247.817 53.4012C249.665 53.4012 251.21 52.8936 252.453 51.8785C253.695 50.8482 254.62 49.4694 255.226 47.7421C255.847 46.0148 256.157 44.0906 256.157 41.9694C256.157 39.833 255.847 37.9012 255.226 36.1739C254.62 34.4315 253.695 33.0452 252.453 32.0148C251.21 30.9845 249.665 30.4694 247.817 30.4694C245.923 30.4694 244.347 30.9845 243.089 32.0148C241.847 33.0452 240.915 34.4315 240.294 36.1739C239.688 37.9012 239.385 39.833 239.385 41.9694C239.385 44.0906 239.688 46.0148 240.294 47.7421C240.915 49.4694 241.847 50.8482 243.089 51.8785C244.347 52.8936 245.923 53.4012 247.817 53.4012ZM279.709 38.8558V59.3103H271.481V24.4012H279.345V30.333H279.754C280.557 28.3785 281.837 26.8255 283.595 25.6739C285.368 24.5224 287.557 23.9467 290.163 23.9467C292.572 23.9467 294.671 24.4618 296.459 25.4921C298.262 26.5224 299.656 28.0148 300.64 29.9694C301.64 31.9239 302.133 34.2952 302.118 37.083V59.3103H293.89V38.3558C293.89 36.0224 293.284 34.1967 292.072 32.8785C290.875 31.5603 289.216 30.9012 287.095 30.9012C285.656 30.9012 284.375 31.2194 283.254 31.8558C282.148 32.477 281.277 33.3785 280.64 34.5603C280.019 35.7421 279.709 37.1739 279.709 38.8558ZM320.527 60.0148C318.315 60.0148 316.322 59.6209 314.549 58.833C312.792 58.03 311.398 56.8482 310.368 55.2876C309.353 53.727 308.845 51.8027 308.845 49.5148C308.845 47.5452 309.209 45.9164 309.936 44.6285C310.663 43.3406 311.656 42.3103 312.913 41.5376C314.171 40.7648 315.587 40.1815 317.163 39.7876C318.754 39.3785 320.398 39.083 322.095 38.9012C324.14 38.6891 325.799 38.4997 327.072 38.333C328.345 38.1512 329.269 37.8785 329.845 37.5148C330.436 37.1361 330.731 36.5527 330.731 35.7648V35.6285C330.731 33.9164 330.224 32.5906 329.209 31.6512C328.193 30.7118 326.731 30.2421 324.822 30.2421C322.807 30.2421 321.209 30.6815 320.027 31.5603C318.86 32.4391 318.072 33.477 317.663 34.6739L309.981 33.583C310.587 31.4618 311.587 29.6891 312.981 28.2648C314.375 26.8255 316.08 25.7497 318.095 25.0376C320.11 24.3103 322.337 23.9467 324.777 23.9467C326.459 23.9467 328.133 24.1436 329.799 24.5376C331.466 24.9315 332.989 25.583 334.368 26.4921C335.746 27.3861 336.853 28.6058 337.686 30.1512C338.534 31.6967 338.959 33.6285 338.959 35.9467V59.3103H331.049V54.5148H330.777C330.277 55.4845 329.572 56.3936 328.663 57.2421C327.769 58.0755 326.64 58.7497 325.277 59.2648C323.928 59.7648 322.345 60.0148 320.527 60.0148ZM322.663 53.9694C324.315 53.9694 325.746 53.6436 326.959 52.9921C328.171 52.3255 329.103 51.4467 329.754 50.3558C330.421 49.2648 330.754 48.0755 330.754 46.7876V42.6739C330.496 42.8861 330.057 43.083 329.436 43.2648C328.83 43.4467 328.148 43.6058 327.39 43.7421C326.633 43.8785 325.883 43.9997 325.14 44.1058C324.398 44.2118 323.754 44.3027 323.209 44.3785C321.981 44.5452 320.883 44.8179 319.913 45.1967C318.943 45.5755 318.178 46.1058 317.618 46.7876C317.057 47.4542 316.777 48.3179 316.777 49.3785C316.777 50.8936 317.33 52.0376 318.436 52.8103C319.542 53.583 320.951 53.9694 322.663 53.9694ZM364.663 24.4012V30.7648H344.595V24.4012H364.663ZM349.549 16.0376H357.777V48.8103C357.777 49.9164 357.943 50.7648 358.277 51.3558C358.625 51.9315 359.08 52.3255 359.64 52.5376C360.201 52.7497 360.822 52.8558 361.504 52.8558C362.019 52.8558 362.489 52.8179 362.913 52.7421C363.353 52.6664 363.686 52.5982 363.913 52.5376L365.299 58.9694C364.86 59.1209 364.231 59.2876 363.413 59.4694C362.61 59.6512 361.625 59.7573 360.459 59.7876C358.398 59.8482 356.542 59.5376 354.89 58.8558C353.239 58.1588 351.928 57.083 350.959 55.6285C350.004 54.1739 349.534 52.3558 349.549 50.1739V16.0376ZM386.623 59.9921C383.123 59.9921 380.101 59.2648 377.555 57.8103C375.025 56.3406 373.078 54.2648 371.714 51.583C370.351 48.8861 369.669 45.7118 369.669 42.0603C369.669 38.4694 370.351 35.3179 371.714 32.6058C373.093 29.8785 375.017 27.7573 377.487 26.2421C379.957 24.7118 382.858 23.9467 386.192 23.9467C388.343 23.9467 390.373 24.2952 392.282 24.9921C394.207 25.6739 395.904 26.7345 397.373 28.1739C398.858 29.6133 400.025 31.4467 400.873 33.6739C401.722 35.8861 402.146 38.5224 402.146 41.583V44.1058H373.532V38.5603H394.26C394.245 36.9845 393.904 35.583 393.237 34.3558C392.57 33.1133 391.638 32.1361 390.442 31.4239C389.26 30.7118 387.881 30.3558 386.305 30.3558C384.623 30.3558 383.146 30.7648 381.873 31.583C380.601 32.3861 379.608 33.4467 378.896 34.7648C378.199 36.0679 377.843 37.4997 377.828 39.0603V43.9012C377.828 45.9315 378.199 47.6739 378.942 49.1285C379.684 50.5679 380.722 51.6739 382.055 52.4467C383.388 53.2042 384.949 53.583 386.737 53.583C387.934 53.583 389.017 53.4164 389.987 53.083C390.957 52.7345 391.798 52.227 392.51 51.5603C393.222 50.8936 393.76 50.0679 394.123 49.083L401.805 49.9467C401.32 51.977 400.396 53.7497 399.032 55.2648C397.684 56.7648 395.957 57.9315 393.851 58.7648C391.745 59.583 389.335 59.9921 386.623 59.9921Z" fill="white"/>
<path d="M94.0887 42.2066L22.7018 77.4492V65.5104M22.7018 65.5104L70.7212 42.0352L22.7018 18.5867V41.7125V65.5104Z" stroke="white" stroke-width="1.5"/>
<path d="M12.1215 1.40259V94.6326M12.1215 1.40259L1.39001 10.7256V85.3096L12.1215 94.6326M12.1215 1.40259L93.9494 41.3372V54.6711L12.1215 94.6326" stroke="white" stroke-width="1.5"/>
<path d="M22.6075 30.4841L58.6167 48.0696" stroke="white" stroke-width="1.5"/>
</svg>
