<svg width="370" height="97" viewBox="0 0 370 97" fill="none" xmlns="http://www.w3.org/2000/svg">
<path d="M13.7025 84.415C13.5215 83.861 13.2829 83.3646 12.9866 82.9257C12.6959 82.4814 12.3476 82.1029 11.9417 81.7903C11.5413 81.4776 11.086 81.239 10.5758 81.0744C10.0657 80.9099 9.50621 80.8276 8.89734 80.8276C7.89901 80.8276 6.99119 81.0854 6.17387 81.601C5.35656 82.1166 4.70655 82.8764 4.22384 83.8802C3.74113 84.884 3.49978 86.1154 3.49978 87.5745C3.49978 89.0336 3.74388 90.2651 4.23207 91.2689C4.72026 92.2727 5.38124 93.0324 6.21501 93.5481C7.04878 94.0637 7.98677 94.3215 9.02898 94.3215C9.9944 94.3215 10.8446 94.1158 11.5797 93.7044C12.3202 93.2875 12.8961 92.7006 13.3075 91.9436C13.7244 91.1811 13.9329 90.2843 13.9329 89.2531L14.5582 89.3847H9.48975V87.5745H15.9076V89.3847C15.9076 90.7725 15.6114 91.9793 15.019 93.005C14.432 94.0308 13.6202 94.8261 12.5835 95.3911C11.5522 95.9506 10.3674 96.2304 9.02898 96.2304C7.53698 96.2304 6.22598 95.8793 5.09601 95.1772C3.97152 94.4751 3.09386 93.4768 2.46305 92.1822C1.83773 90.8877 1.52506 89.3518 1.52506 87.5745C1.52506 86.2416 1.70334 85.0431 2.05988 83.9789C2.42191 82.9093 2.93205 81.9987 3.59029 81.2472C4.24852 80.4957 5.02744 79.9198 5.92703 79.5193C6.82663 79.1189 7.81673 78.9187 8.89734 78.9187C9.78596 78.9187 10.6142 79.0531 11.3822 79.3219C12.1556 79.5852 12.844 79.9609 13.4474 80.4491C14.0563 80.9318 14.5637 81.5105 14.9696 82.1852C15.3755 82.8544 15.6553 83.5977 15.8088 84.415H13.7025ZM19.9311 96V83.3618H21.8729V96H19.9311ZM20.9184 81.2555C20.5399 81.2555 20.2136 81.1265 19.9393 80.8687C19.6705 80.6109 19.5361 80.301 19.5361 79.939C19.5361 79.5769 19.6705 79.267 19.9393 79.0092C20.2136 78.7514 20.5399 78.6225 20.9184 78.6225C21.2969 78.6225 21.6205 78.7514 21.8893 79.0092C22.1636 79.267 22.3007 79.5769 22.3007 79.939C22.3007 80.301 22.1636 80.6109 21.8893 80.8687C21.6205 81.1265 21.2969 81.2555 20.9184 81.2555ZM30.9257 83.3618V85.0074H24.3762V83.3618H30.9257ZM26.2851 80.3339H28.2269V92.3797C28.2269 92.9282 28.3065 93.3396 28.4655 93.6139C28.6301 93.8827 28.8385 94.0637 29.0909 94.1569C29.3487 94.2447 29.6202 94.2886 29.9054 94.2886C30.1194 94.2886 30.2949 94.2776 30.432 94.2557C30.5692 94.2282 30.6789 94.2063 30.7611 94.1898L31.1561 95.9342C31.0244 95.9835 30.8407 96.0329 30.6048 96.0823C30.3689 96.1371 30.07 96.1646 29.708 96.1646C29.1594 96.1646 28.6219 96.0466 28.0953 95.8108C27.5742 95.5749 27.1408 95.2156 26.7953 94.7329C26.4552 94.2502 26.2851 93.6413 26.2851 92.9063V80.3339ZM34.3815 96V79.1491H36.422V86.653H45.407V79.1491H47.4475V96H45.407V88.4632H36.422V96H34.3815ZM59.2341 90.8328V83.3618H61.1759V96H59.2341V93.8607H59.1024C58.8062 94.5025 58.3455 95.0483 57.7201 95.4981C57.0948 95.9424 56.3049 96.1646 55.3505 96.1646C54.5606 96.1646 53.8585 95.9918 53.2441 95.6462C52.6297 95.2951 52.147 94.7685 51.796 94.0664C51.4449 93.3588 51.2694 92.4675 51.2694 91.3923V83.3618H53.2112V91.2607C53.2112 92.1822 53.469 92.9172 53.9846 93.4658C54.5057 94.0143 55.1695 94.2886 55.9758 94.2886C56.4585 94.2886 56.9494 94.1652 57.4486 93.9183C57.9533 93.6715 58.3756 93.293 58.7157 92.7829C59.0613 92.2727 59.2341 91.6227 59.2341 90.8328ZM64.9957 96V79.1491H66.9375V85.3694H67.1021C67.2447 85.15 67.4422 84.8703 67.6945 84.5302C67.9523 84.1846 68.3198 83.8774 68.7971 83.6087C69.2798 83.3344 69.9325 83.1973 70.7553 83.1973C71.8195 83.1973 72.7575 83.4633 73.5693 83.9954C74.3811 84.5274 75.0147 85.2817 75.4699 86.2581C75.9252 87.2345 76.1529 88.3864 76.1529 89.7138C76.1529 91.0522 75.9252 92.2124 75.4699 93.1943C75.0147 94.1706 74.3839 94.9276 73.5775 95.4652C72.7712 95.9973 71.8414 96.2633 70.7882 96.2633C69.9764 96.2633 69.3264 96.1289 68.8382 95.8601C68.35 95.5859 67.9743 95.2759 67.711 94.9304C67.4477 94.5793 67.2447 94.2886 67.1021 94.0582H66.8717V96H64.9957ZM66.9046 89.6809C66.9046 90.6354 67.0445 91.4774 67.3242 92.2069C67.604 92.931 68.0127 93.4987 68.5502 93.9101C69.0878 94.316 69.746 94.519 70.5249 94.519C71.3368 94.519 72.0142 94.305 72.5572 93.8772C73.1058 93.4438 73.5172 92.8624 73.7914 92.1328C74.0712 91.3978 74.2111 90.5805 74.2111 89.6809C74.2111 88.7923 74.0739 87.9914 73.7997 87.2783C73.5309 86.5598 73.1222 85.992 72.5737 85.5751C72.0307 85.1528 71.3477 84.9416 70.5249 84.9416C69.735 84.9416 69.0713 85.1418 68.5338 85.5422C67.9962 85.9372 67.5903 86.4912 67.316 87.2043C67.0417 87.9119 66.9046 88.7374 66.9046 89.6809ZM86.5942 96H84.4549L90.6423 79.1491H92.7487L98.9362 96H96.7969L91.7614 81.815H91.6297L86.5942 96ZM87.3841 89.4176H96.007V91.2278H87.3841V89.4176ZM106.432 96.2633C105.247 96.2633 104.227 95.9835 103.371 95.424C102.515 94.8645 101.857 94.0939 101.396 93.112C100.936 92.1301 100.705 91.0084 100.705 89.7467C100.705 88.4632 100.941 87.3304 101.413 86.3486C101.89 85.3612 102.554 84.5905 103.404 84.0365C104.26 83.477 105.258 83.1973 106.399 83.1973C107.288 83.1973 108.088 83.3618 108.802 83.6909C109.515 84.0201 110.099 84.4808 110.554 85.0732C111.009 85.6657 111.292 86.3568 111.402 87.1467H109.46C109.312 86.5707 108.983 86.0606 108.472 85.6163C107.968 85.1665 107.288 84.9416 106.432 84.9416C105.675 84.9416 105.011 85.1391 104.441 85.534C103.876 85.9235 103.434 86.4747 103.116 87.1878C102.803 87.8954 102.647 88.7265 102.647 89.6809C102.647 90.6573 102.801 91.5075 103.108 92.2316C103.42 92.9556 103.859 93.5179 104.424 93.9183C104.995 94.3187 105.664 94.519 106.432 94.519C106.936 94.519 107.395 94.4312 107.806 94.2557C108.217 94.0801 108.566 93.8278 108.851 93.4987C109.136 93.1696 109.339 92.7746 109.46 92.3139H111.402C111.292 93.0599 111.02 93.7318 110.587 94.3297C110.159 94.9221 109.591 95.3939 108.884 95.7449C108.182 96.0905 107.364 96.2633 106.432 96.2633ZM119.736 83.3618V85.0074H113.187V83.3618H119.736ZM115.096 80.3339H117.038V92.3797C117.038 92.9282 117.117 93.3396 117.276 93.6139C117.441 93.8827 117.649 94.0637 117.902 94.1569C118.159 94.2447 118.431 94.2886 118.716 94.2886C118.93 94.2886 119.106 94.2776 119.243 94.2557C119.38 94.2282 119.49 94.2063 119.572 94.1898L119.967 95.9342C119.835 95.9835 119.651 96.0329 119.416 96.0823C119.18 96.1371 118.881 96.1646 118.519 96.1646C117.97 96.1646 117.433 96.0466 116.906 95.8108C116.385 95.5749 115.952 95.2156 115.606 94.7329C115.266 94.2502 115.096 93.6413 115.096 92.9063V80.3339ZM122.657 96V83.3618H124.599V96H122.657ZM123.645 81.2555C123.266 81.2555 122.94 81.1265 122.666 80.8687C122.397 80.6109 122.262 80.301 122.262 79.939C122.262 79.5769 122.397 79.267 122.666 79.0092C122.94 78.7514 123.266 78.6225 123.645 78.6225C124.023 78.6225 124.347 78.7514 124.616 79.0092C124.89 79.267 125.027 79.5769 125.027 79.939C125.027 80.301 124.89 80.6109 124.616 80.8687C124.347 81.1265 124.023 81.2555 123.645 81.2555ZM133.29 96.2633C132.149 96.2633 131.148 95.9918 130.287 95.4487C129.431 94.9057 128.762 94.146 128.279 93.1696C127.802 92.1932 127.563 91.0522 127.563 89.7467C127.563 88.4303 127.802 87.2811 128.279 86.2992C128.762 85.3173 129.431 84.5549 130.287 84.0118C131.148 83.4688 132.149 83.1973 133.29 83.1973C134.431 83.1973 135.429 83.4688 136.285 84.0118C137.146 84.5549 137.815 85.3173 138.293 86.2992C138.775 87.2811 139.017 88.4303 139.017 89.7467C139.017 91.0522 138.775 92.1932 138.293 93.1696C137.815 94.146 137.146 94.9057 136.285 95.4487C135.429 95.9918 134.431 96.2633 133.29 96.2633ZM133.29 94.519C134.157 94.519 134.87 94.2968 135.429 93.8525C135.989 93.4082 136.403 92.824 136.672 92.0999C136.941 91.3759 137.075 90.5915 137.075 89.7467C137.075 88.902 136.941 88.1148 136.672 87.3853C136.403 86.6558 135.989 86.0661 135.429 85.6163C134.87 85.1665 134.157 84.9416 133.29 84.9416C132.423 84.9416 131.71 85.1665 131.151 85.6163C130.591 86.0661 130.177 86.6558 129.908 87.3853C129.64 88.1148 129.505 88.902 129.505 89.7467C129.505 90.5915 129.64 91.3759 129.908 92.0999C130.177 92.824 130.591 93.4082 131.151 93.8525C131.71 94.2968 132.423 94.519 133.29 94.519ZM143.923 88.3973V96H141.981V83.3618H143.857V85.3365H144.021C144.318 84.6948 144.767 84.1791 145.371 83.7897C145.974 83.3947 146.753 83.1973 147.708 83.1973C148.563 83.1973 149.312 83.3728 149.954 83.7238C150.596 84.0694 151.095 84.596 151.451 85.3036C151.808 86.0057 151.986 86.8944 151.986 87.9695V96H150.044V88.1011C150.044 87.1083 149.786 86.3349 149.271 85.7808C148.755 85.2213 148.048 84.9416 147.148 84.9416C146.528 84.9416 145.974 85.076 145.486 85.3448C145.003 85.6135 144.622 86.0057 144.342 86.5214C144.063 87.037 143.923 87.6623 143.923 88.3973ZM164.486 86.1922L162.742 86.6859C162.632 86.3952 162.471 86.1127 162.257 85.8384C162.048 85.5587 161.763 85.3283 161.401 85.1473C161.039 84.9663 160.575 84.8758 160.01 84.8758C159.237 84.8758 158.592 85.054 158.077 85.4106C157.567 85.7616 157.312 86.2087 157.312 86.7517C157.312 87.2345 157.487 87.6157 157.838 87.8954C158.189 88.1752 158.738 88.4083 159.484 88.5948L161.36 89.0556C162.49 89.3298 163.332 89.7495 163.886 90.3145C164.44 90.874 164.717 91.5953 164.717 92.4784C164.717 93.2025 164.508 93.8498 164.091 94.4202C163.68 94.9907 163.104 95.4405 162.364 95.7696C161.623 96.0987 160.762 96.2633 159.78 96.2633C158.491 96.2633 157.424 95.9835 156.579 95.424C155.735 94.8645 155.2 94.0472 154.975 92.9721L156.818 92.5113C156.993 93.1915 157.325 93.7017 157.814 94.0417C158.307 94.3818 158.952 94.5519 159.747 94.5519C160.652 94.5519 161.371 94.3599 161.903 93.9759C162.44 93.5865 162.709 93.1202 162.709 92.5772C162.709 92.1383 162.556 91.7708 162.248 91.4746C161.941 91.1729 161.47 90.948 160.833 90.7999L158.727 90.3062C157.569 90.032 156.719 89.6069 156.176 89.0309C155.639 88.4495 155.37 87.7226 155.37 86.8505C155.37 86.1374 155.57 85.5066 155.97 84.958C156.376 84.4095 156.928 83.9789 157.624 83.6663C158.326 83.3536 159.122 83.1973 160.01 83.1973C161.261 83.1973 162.243 83.4715 162.956 84.0201C163.675 84.5686 164.185 85.2927 164.486 86.1922ZM179.784 83.3618V85.0074H172.972V83.3618H179.784ZM175.012 96V81.6175C175.012 80.8934 175.182 80.29 175.522 79.8073C175.862 79.3246 176.304 78.9626 176.847 78.7212C177.39 78.4799 177.963 78.3592 178.567 78.3592C179.044 78.3592 179.433 78.3976 179.735 78.4744C180.037 78.5512 180.262 78.6225 180.41 78.6883L179.85 80.3668C179.751 80.3339 179.614 80.2928 179.439 80.2434C179.269 80.194 179.044 80.1694 178.764 80.1694C178.122 80.1694 177.659 80.3312 177.374 80.6548C177.094 80.9784 176.954 81.4529 176.954 82.0783V96H175.012ZM187.12 96.2633C185.979 96.2633 184.978 95.9918 184.116 95.4487C183.261 94.9057 182.591 94.146 182.109 93.1696C181.631 92.1932 181.393 91.0522 181.393 89.7467C181.393 88.4303 181.631 87.2811 182.109 86.2992C182.591 85.3173 183.261 84.5549 184.116 84.0118C184.978 83.4688 185.979 83.1973 187.12 83.1973C188.261 83.1973 189.259 83.4688 190.115 84.0118C190.976 84.5549 191.645 85.3173 192.122 86.2992C192.605 87.2811 192.846 88.4303 192.846 89.7467C192.846 91.0522 192.605 92.1932 192.122 93.1696C191.645 94.146 190.976 94.9057 190.115 95.4487C189.259 95.9918 188.261 96.2633 187.12 96.2633ZM187.12 94.519C187.986 94.519 188.699 94.2968 189.259 93.8525C189.818 93.4082 190.232 92.824 190.501 92.0999C190.77 91.3759 190.904 90.5915 190.904 89.7467C190.904 88.902 190.77 88.1148 190.501 87.3853C190.232 86.6558 189.818 86.0661 189.259 85.6163C188.699 85.1665 187.986 84.9416 187.12 84.9416C186.253 84.9416 185.54 85.1665 184.98 85.6163C184.421 86.0661 184.007 86.6558 183.738 87.3853C183.469 88.1148 183.335 88.902 183.335 89.7467C183.335 90.5915 183.469 91.3759 183.738 92.0999C184.007 92.824 184.421 93.4082 184.98 93.8525C185.54 94.2968 186.253 94.519 187.12 94.519ZM195.81 96V83.3618H197.686V85.2707H197.818C198.048 84.6454 198.465 84.138 199.069 83.7485C199.672 83.3591 200.352 83.1643 201.109 83.1643C201.252 83.1643 201.43 83.1671 201.644 83.1726C201.858 83.1781 202.02 83.1863 202.129 83.1973V85.172C202.064 85.1555 201.913 85.1308 201.677 85.0979C201.447 85.0595 201.202 85.0403 200.945 85.0403C200.33 85.0403 199.782 85.1692 199.299 85.427C198.822 85.6794 198.443 86.0304 198.164 86.4802C197.889 86.9245 197.752 87.4319 197.752 88.0024V96H195.81ZM217.662 79.1491H219.702V91.1949C219.702 92.27 219.505 93.1833 219.11 93.9348C218.715 94.6863 218.158 95.2567 217.44 95.6462C216.721 96.0357 215.874 96.2304 214.897 96.2304C213.976 96.2304 213.156 96.0631 212.437 95.7285C211.718 95.3884 211.154 94.9057 210.742 94.2804C210.331 93.655 210.125 92.9118 210.125 92.0506H212.133C212.133 92.5278 212.251 92.9447 212.486 93.3012C212.728 93.6523 213.057 93.9265 213.474 94.124C213.891 94.3215 214.365 94.4202 214.897 94.4202C215.484 94.4202 215.983 94.2968 216.395 94.05C216.806 93.8031 217.119 93.4411 217.333 92.9639C217.552 92.4812 217.662 91.8915 217.662 91.1949V79.1491ZM228.827 96.2633C227.609 96.2633 226.559 95.9945 225.676 95.457C224.798 94.9139 224.121 94.1569 223.644 93.186C223.172 92.2096 222.936 91.0742 222.936 89.7796C222.936 88.4851 223.172 87.3442 223.644 86.3568C224.121 85.364 224.785 84.5905 225.635 84.0365C226.49 83.477 227.489 83.1973 228.63 83.1973C229.288 83.1973 229.938 83.307 230.58 83.5264C231.222 83.7458 231.806 84.1023 232.332 84.596C232.859 85.0842 233.279 85.7315 233.591 86.5378C233.904 87.3442 234.06 88.337 234.06 89.5163V90.3391H224.318V88.6606H232.085C232.085 87.9475 231.943 87.3112 231.658 86.7517C231.378 86.1922 230.977 85.7507 230.456 85.427C229.941 85.1034 229.332 84.9416 228.63 84.9416C227.856 84.9416 227.187 85.1336 226.622 85.5175C226.063 85.896 225.632 86.3897 225.33 86.9986C225.029 87.6075 224.878 88.2602 224.878 88.9568V90.0759C224.878 91.0303 225.042 91.8394 225.371 92.5031C225.706 93.1613 226.17 93.6633 226.762 94.0088C227.354 94.3489 228.043 94.519 228.827 94.519C229.337 94.519 229.798 94.4477 230.21 94.305C230.626 94.1569 230.986 93.9375 231.287 93.6468C231.589 93.3506 231.822 92.9831 231.987 92.5442L233.863 93.0708C233.665 93.7071 233.333 94.2666 232.867 94.7493C232.401 95.2266 231.825 95.5996 231.139 95.8684C230.454 96.1316 229.683 96.2633 228.827 96.2633ZM242.51 83.3618V85.0074H235.961V83.3618H242.51ZM237.87 80.3339H239.812V92.3797C239.812 92.9282 239.891 93.3396 240.05 93.6139C240.215 93.8827 240.423 94.0637 240.675 94.1569C240.933 94.2447 241.205 94.2886 241.49 94.2886C241.704 94.2886 241.88 94.2776 242.017 94.2557C242.154 94.2282 242.263 94.2063 242.346 94.1898L242.741 95.9342C242.609 95.9835 242.425 96.0329 242.189 96.0823C241.954 96.1371 241.655 96.1646 241.293 96.1646C240.744 96.1646 240.207 96.0466 239.68 95.8108C239.159 95.5749 238.725 95.2156 238.38 94.7329C238.04 94.2502 237.87 93.6413 237.87 92.9063V80.3339ZM245.966 96V79.1491H251.857C253.031 79.1491 253.999 79.352 254.762 79.758C255.524 80.1584 256.092 80.6987 256.465 81.3789C256.838 82.0536 257.025 82.8023 257.025 83.6251C257.025 84.3492 256.896 84.9471 256.638 85.4188C256.385 85.8906 256.051 86.2636 255.634 86.5378C255.223 86.8121 254.776 87.015 254.293 87.1467V87.3112C254.808 87.3442 255.327 87.5252 255.848 87.8543C256.369 88.1834 256.805 88.6552 257.156 89.2695C257.507 89.8839 257.683 90.6354 257.683 91.524C257.683 92.3687 257.491 93.1284 257.107 93.8031C256.723 94.4778 256.117 95.0126 255.288 95.4076C254.46 95.8025 253.382 96 252.055 96H245.966ZM248.007 94.1898H252.055C253.388 94.1898 254.334 93.932 254.893 93.4164C255.458 92.8953 255.741 92.2645 255.741 91.524C255.741 90.9535 255.596 90.4269 255.305 89.9442C255.014 89.456 254.6 89.0666 254.062 88.7758C253.525 88.4796 252.889 88.3315 252.154 88.3315H248.007V94.1898ZM248.007 86.5543H251.792C252.406 86.5543 252.96 86.4336 253.454 86.1922C253.953 85.9509 254.348 85.6108 254.638 85.172C254.935 84.7331 255.083 84.2175 255.083 83.6251C255.083 82.8846 254.825 82.2565 254.309 81.7409C253.794 81.2198 252.976 80.9592 251.857 80.9592H248.007V86.5543ZM260.772 96V83.3618H262.648V85.2707H262.78C263.01 84.6454 263.427 84.138 264.031 83.7485C264.634 83.3591 265.314 83.1643 266.071 83.1643C266.214 83.1643 266.392 83.1671 266.606 83.1726C266.82 83.1781 266.982 83.1863 267.091 83.1973V85.172C267.026 85.1555 266.875 85.1308 266.639 85.0979C266.409 85.0595 266.164 85.0403 265.907 85.0403C265.292 85.0403 264.744 85.1692 264.261 85.427C263.784 85.6794 263.405 86.0304 263.126 86.4802C262.851 86.9245 262.714 87.4319 262.714 88.0024V96H260.772ZM273.112 96.2962C272.311 96.2962 271.585 96.1454 270.932 95.8437C270.279 95.5365 269.761 95.0949 269.377 94.519C268.993 93.9375 268.801 93.2354 268.801 92.4126C268.801 91.6885 268.943 91.1016 269.229 90.6518C269.514 90.1965 269.895 89.84 270.372 89.5822C270.85 89.3244 271.376 89.1324 271.952 89.0062C272.534 88.8746 273.118 88.7703 273.705 88.6936C274.473 88.5948 275.095 88.5208 275.572 88.4714C276.055 88.4165 276.406 88.326 276.626 88.1999C276.851 88.0737 276.963 87.8543 276.963 87.5416V87.4758C276.963 86.664 276.741 86.0332 276.296 85.5834C275.858 85.1336 275.191 84.9087 274.297 84.9087C273.37 84.9087 272.643 85.1116 272.117 85.5175C271.59 85.9235 271.22 86.3568 271.006 86.8176L269.163 86.1593C269.492 85.3914 269.931 84.7935 270.479 84.3656C271.033 83.9323 271.637 83.6306 272.289 83.4606C272.948 83.285 273.595 83.1973 274.231 83.1973C274.637 83.1973 275.103 83.2466 275.63 83.3454C276.162 83.4386 276.675 83.6333 277.169 83.9295C277.668 84.2258 278.082 84.6728 278.411 85.2707C278.74 85.8686 278.905 86.6695 278.905 87.6733V96H276.963V94.2886H276.864C276.733 94.5628 276.513 94.8563 276.206 95.169C275.899 95.4816 275.49 95.7477 274.98 95.9671C274.47 96.1865 273.847 96.2962 273.112 96.2962ZM273.408 94.5519C274.176 94.5519 274.824 94.401 275.35 94.0993C275.882 93.7976 276.283 93.4082 276.552 92.931C276.826 92.4537 276.963 91.9518 276.963 91.4252V89.648C276.881 89.7467 276.7 89.8372 276.42 89.9195C276.146 89.9963 275.827 90.0649 275.465 90.1252C275.109 90.1801 274.761 90.2294 274.421 90.2733C274.086 90.3117 273.814 90.3446 273.606 90.3721C273.101 90.4379 272.63 90.5448 272.191 90.693C271.757 90.8356 271.406 91.0522 271.138 91.343C270.874 91.6282 270.743 92.0177 270.743 92.5113C270.743 93.186 270.992 93.6962 271.491 94.0417C271.996 94.3818 272.635 94.5519 273.408 94.5519ZM282.449 96V83.3618H284.391V96H282.449ZM283.436 81.2555C283.058 81.2555 282.731 81.1265 282.457 80.8687C282.188 80.6109 282.054 80.301 282.054 79.939C282.054 79.5769 282.188 79.267 282.457 79.0092C282.731 78.7514 283.058 78.6225 283.436 78.6225C283.815 78.6225 284.138 78.7514 284.407 79.0092C284.681 79.267 284.819 79.5769 284.819 79.939C284.819 80.301 284.681 80.6109 284.407 80.8687C284.138 81.1265 283.815 81.2555 283.436 81.2555ZM289.889 88.3973V96H287.947V83.3618H289.823V85.3365H289.988C290.284 84.6948 290.734 84.1791 291.337 83.7897C291.941 83.3947 292.72 83.1973 293.674 83.1973C294.53 83.1973 295.278 83.3728 295.92 83.7238C296.562 84.0694 297.061 84.596 297.418 85.3036C297.774 86.0057 297.953 86.8944 297.953 87.9695V96H296.011V88.1011C296.011 87.1083 295.753 86.3349 295.237 85.7808C294.722 85.2213 294.014 84.9416 293.114 84.9416C292.495 84.9416 291.941 85.076 291.452 85.3448C290.97 85.6135 290.589 86.0057 290.309 86.5214C290.029 87.037 289.889 87.6623 289.889 88.3973ZM310.453 86.1922L308.709 86.6859C308.599 86.3952 308.437 86.1127 308.223 85.8384C308.015 85.5587 307.729 85.3283 307.367 85.1473C307.005 84.9663 306.542 84.8758 305.977 84.8758C305.203 84.8758 304.559 85.054 304.043 85.4106C303.533 85.7616 303.278 86.2087 303.278 86.7517C303.278 87.2345 303.454 87.6157 303.805 87.8954C304.156 88.1752 304.704 88.4083 305.45 88.5948L307.326 89.0556C308.456 89.3298 309.298 89.7495 309.852 90.3145C310.406 90.874 310.683 91.5953 310.683 92.4784C310.683 93.2025 310.475 93.8498 310.058 94.4202C309.647 94.9907 309.071 95.4405 308.33 95.7696C307.59 96.0987 306.728 96.2633 305.747 96.2633C304.457 96.2633 303.391 95.9835 302.546 95.424C301.701 94.8645 301.166 94.0472 300.941 92.9721L302.784 92.5113C302.96 93.1915 303.292 93.7017 303.78 94.0417C304.274 94.3818 304.918 94.5519 305.714 94.5519C306.619 94.5519 307.337 94.3599 307.869 93.9759C308.407 93.5865 308.676 93.1202 308.676 92.5772C308.676 92.1383 308.522 91.7708 308.215 91.4746C307.908 91.1729 307.436 90.948 306.8 90.7999L304.693 90.3062C303.536 90.032 302.686 89.6069 302.143 89.0309C301.605 88.4495 301.336 87.7226 301.336 86.8505C301.336 86.1374 301.537 85.5066 301.937 84.958C302.343 84.4095 302.894 83.9789 303.591 83.6663C304.293 83.3536 305.088 83.1973 305.977 83.1973C307.228 83.1973 308.209 83.4715 308.923 84.0201C309.641 84.5686 310.151 85.2927 310.453 86.1922ZM322.427 79.1491V96H320.386V79.1491H322.427ZM331.718 96H326.518V79.1491H331.949C333.583 79.1491 334.982 79.4864 336.145 80.1611C337.308 80.8303 338.199 81.793 338.819 83.0492C339.439 84.2998 339.749 85.7973 339.749 87.5416C339.749 89.2969 339.436 90.8081 338.811 92.0753C338.185 93.3369 337.275 94.3078 336.079 94.988C334.883 95.6627 333.43 96 331.718 96ZM328.559 94.1898H331.586C332.98 94.1898 334.134 93.9211 335.05 93.3835C335.967 92.8459 336.649 92.0807 337.099 91.0879C337.549 90.0951 337.774 88.913 337.774 87.5416C337.774 86.1813 337.552 85.0102 337.107 84.0283C336.663 83.0409 335.999 82.284 335.116 81.7574C334.233 81.2253 333.133 80.9592 331.817 80.9592H328.559V94.1898ZM343.171 96V79.1491H353.341V80.9592H345.212V86.653H352.815V88.4632H345.212V94.1898H353.473V96H343.171ZM365.708 86.1922L363.964 86.6859C363.854 86.3952 363.692 86.1127 363.478 85.8384C363.27 85.5587 362.984 85.3283 362.622 85.1473C362.26 84.9663 361.797 84.8758 361.232 84.8758C360.458 84.8758 359.814 85.054 359.298 85.4106C358.788 85.7616 358.533 86.2087 358.533 86.7517C358.533 87.2345 358.709 87.6157 359.06 87.8954C359.411 88.1752 359.959 88.4083 360.705 88.5948L362.581 89.0556C363.711 89.3298 364.553 89.7495 365.107 90.3145C365.661 90.874 365.938 91.5953 365.938 92.4784C365.938 93.2025 365.73 93.8498 365.313 94.4202C364.902 94.9907 364.326 95.4405 363.585 95.7696C362.845 96.0987 361.983 96.2633 361.002 96.2633C359.712 96.2633 358.646 95.9835 357.801 95.424C356.956 94.8645 356.421 94.0472 356.196 92.9721L358.039 92.5113C358.215 93.1915 358.547 93.7017 359.035 94.0417C359.529 94.3818 360.173 94.5519 360.969 94.5519C361.874 94.5519 362.592 94.3599 363.124 93.9759C363.662 93.5865 363.931 93.1202 363.931 92.5772C363.931 92.1383 363.777 91.7708 363.47 91.4746C363.163 91.1729 362.691 90.948 362.055 90.7999L359.948 90.3062C358.791 90.032 357.941 89.6069 357.398 89.0309C356.86 88.4495 356.591 87.7226 356.591 86.8505C356.591 86.1374 356.792 85.5066 357.192 84.958C357.598 84.4095 358.149 83.9789 358.846 83.6663C359.548 83.3536 360.343 83.1973 361.232 83.1973C362.483 83.1973 363.464 83.4715 364.178 84.0201C364.896 84.5686 365.406 85.2927 365.708 86.1922Z" fill="white"/>
<path d="M87.5454 59.489H81.6363L98.7272 12.9436H104.545L121.636 59.489H115.727L101.818 20.3072H101.455L87.5454 59.489ZM89.7272 41.3072H113.545V46.3072H89.7272V41.3072ZM142.341 60.2163C139.068 60.2163 136.25 59.4436 133.886 57.8981C131.523 56.3526 129.705 54.2239 128.432 51.5117C127.159 48.7996 126.523 45.7011 126.523 42.2163C126.523 38.6708 127.174 35.542 128.477 32.8299C129.795 30.1026 131.629 27.9739 133.977 26.4436C136.341 24.8981 139.098 24.1254 142.25 24.1254C144.705 24.1254 146.917 24.5799 148.886 25.489C150.856 26.3981 152.47 27.6708 153.727 29.3072C154.985 30.9436 155.765 32.8526 156.068 35.0345H150.705C150.295 33.4436 149.386 32.0345 147.977 30.8072C146.583 29.5648 144.705 28.9436 142.341 28.9436C140.25 28.9436 138.417 29.489 136.841 30.5799C135.28 31.6557 134.061 33.1784 133.182 35.1481C132.318 37.1026 131.886 39.3981 131.886 42.0345C131.886 44.7314 132.311 47.0799 133.159 49.0799C134.023 51.0799 135.235 52.633 136.795 53.739C138.371 54.8451 140.22 55.3981 142.341 55.3981C143.735 55.3981 145 55.1557 146.136 54.6708C147.273 54.186 148.235 53.489 149.023 52.5799C149.811 51.6708 150.371 50.5799 150.705 49.3072H156.068C155.765 51.3678 155.015 53.2239 153.818 54.8754C152.636 56.5117 151.068 57.8148 149.114 58.7845C147.174 59.739 144.917 60.2163 142.341 60.2163ZM179.091 24.5799V29.1254H161V24.5799H179.091ZM166.273 16.2163H171.636V49.489C171.636 51.0042 171.856 52.1405 172.295 52.8981C172.75 53.6405 173.326 54.1405 174.023 54.3981C174.735 54.6405 175.485 54.7617 176.273 54.7617C176.864 54.7617 177.348 54.7314 177.727 54.6708C178.106 54.5951 178.409 54.5345 178.636 54.489L179.727 59.3072C179.364 59.4436 178.856 59.5799 178.205 59.7163C177.553 59.8678 176.727 59.9436 175.727 59.9436C174.212 59.9436 172.727 59.6178 171.273 58.9663C169.833 58.3148 168.636 57.3223 167.682 55.989C166.742 54.6557 166.273 52.9739 166.273 50.9436V16.2163ZM187.159 59.489V24.5799H192.523V59.489H187.159ZM189.886 18.7617C188.841 18.7617 187.939 18.4057 187.182 17.6936C186.439 16.9814 186.068 16.1254 186.068 15.1254C186.068 14.1254 186.439 13.2693 187.182 12.5572C187.939 11.8451 188.841 11.489 189.886 11.489C190.932 11.489 191.826 11.8451 192.568 12.5572C193.326 13.2693 193.705 14.1254 193.705 15.1254C193.705 16.1254 193.326 16.9814 192.568 17.6936C191.826 18.4057 190.932 18.7617 189.886 18.7617ZM216.528 60.2163C213.377 60.2163 210.612 59.4663 208.233 57.9663C205.869 56.4663 204.021 54.3678 202.687 51.6708C201.369 48.9739 200.71 45.8223 200.71 42.2163C200.71 38.5799 201.369 35.4057 202.687 32.6936C204.021 29.9814 205.869 27.8754 208.233 26.3754C210.612 24.8754 213.377 24.1254 216.528 24.1254C219.68 24.1254 222.437 24.8754 224.801 26.3754C227.18 27.8754 229.028 29.9814 230.347 32.6936C231.68 35.4057 232.347 38.5799 232.347 42.2163C232.347 45.8223 231.68 48.9739 230.347 51.6708C229.028 54.3678 227.18 56.4663 224.801 57.9663C222.437 59.4663 219.68 60.2163 216.528 60.2163ZM216.528 55.3981C218.922 55.3981 220.892 54.7845 222.437 53.5572C223.983 52.3299 225.127 50.7163 225.869 48.7163C226.612 46.7163 226.983 44.5496 226.983 42.2163C226.983 39.883 226.612 37.7087 225.869 35.6936C225.127 33.6784 223.983 32.0496 222.437 30.8072C220.892 29.5648 218.922 28.9436 216.528 28.9436C214.134 28.9436 212.165 29.5648 210.619 30.8072C209.074 32.0496 207.93 33.6784 207.187 35.6936C206.445 37.7087 206.074 39.883 206.074 42.2163C206.074 44.5496 206.445 46.7163 207.187 48.7163C207.93 50.7163 209.074 52.3299 210.619 53.5572C212.165 54.7845 214.134 55.3981 216.528 55.3981ZM245.898 38.489V59.489H240.534V24.5799H245.716V30.0345H246.17C246.989 28.2617 248.231 26.8375 249.898 25.7617C251.564 24.6708 253.716 24.1254 256.352 24.1254C258.716 24.1254 260.784 24.6102 262.557 25.5799C264.33 26.5345 265.708 27.989 266.693 29.9436C267.678 31.883 268.17 34.3375 268.17 37.3072V59.489H262.807V37.6708C262.807 34.9284 262.095 32.792 260.67 31.2617C259.246 29.7163 257.292 28.9436 254.807 28.9436C253.095 28.9436 251.564 29.3148 250.216 30.0572C248.883 30.7996 247.83 31.883 247.057 33.3072C246.284 34.7314 245.898 36.4587 245.898 38.489ZM288.244 60.3072C286.032 60.3072 284.025 59.8905 282.222 59.0572C280.419 58.2087 278.987 56.989 277.926 55.3981C276.865 53.792 276.335 51.8527 276.335 49.5799C276.335 47.5799 276.729 45.9587 277.517 44.7163C278.305 43.4587 279.358 42.4739 280.676 41.7617C281.994 41.0496 283.449 40.5193 285.04 40.1708C286.646 39.8072 288.259 39.5193 289.881 39.3072C292.002 39.0345 293.722 38.8299 295.04 38.6936C296.373 38.542 297.343 38.292 297.949 37.9436C298.57 37.5951 298.881 36.989 298.881 36.1254V35.9436C298.881 33.7011 298.267 31.9587 297.04 30.7163C295.828 29.4739 293.987 28.8526 291.517 28.8526C288.956 28.8526 286.949 29.4133 285.494 30.5345C284.04 31.6557 283.017 32.8526 282.426 34.1254L277.335 32.3072C278.244 30.186 279.456 28.5345 280.972 27.3526C282.502 26.1557 284.169 25.3223 285.972 24.8526C287.79 24.3678 289.578 24.1254 291.335 24.1254C292.456 24.1254 293.744 24.2617 295.199 24.5345C296.669 24.792 298.085 25.3299 299.449 26.1481C300.828 26.9663 301.972 28.2011 302.881 29.8526C303.79 31.5042 304.244 33.7163 304.244 36.489V59.489H298.881V54.7617H298.608C298.244 55.5193 297.638 56.3299 296.79 57.1936C295.941 58.0572 294.812 58.792 293.403 59.3981C291.994 60.0042 290.275 60.3072 288.244 60.3072ZM289.062 55.489C291.184 55.489 292.972 55.0723 294.426 54.239C295.896 53.4057 297.002 52.3299 297.744 51.0117C298.502 49.6936 298.881 48.3072 298.881 46.8526V41.9436C298.653 42.2163 298.153 42.4663 297.381 42.6936C296.623 42.9057 295.744 43.0951 294.744 43.2617C293.759 43.4133 292.797 43.5496 291.858 43.6708C290.934 43.7769 290.184 43.8678 289.608 43.9436C288.214 44.1254 286.911 44.4208 285.699 44.8299C284.502 45.2239 283.532 45.8223 282.79 46.6254C282.062 47.4133 281.699 48.489 281.699 49.8526C281.699 51.7163 282.388 53.1254 283.767 54.0799C285.161 55.0193 286.926 55.489 289.062 55.489ZM329.216 24.5799V29.1254H311.125V24.5799H329.216ZM316.398 16.2163H321.761V49.489C321.761 51.0042 321.981 52.1405 322.42 52.8981C322.875 53.6405 323.451 54.1405 324.148 54.3981C324.86 54.6405 325.61 54.7617 326.398 54.7617C326.989 54.7617 327.473 54.7314 327.852 54.6708C328.231 54.5951 328.534 54.5345 328.761 54.489L329.852 59.3072C329.489 59.4436 328.981 59.5799 328.33 59.7163C327.678 59.8678 326.852 59.9436 325.852 59.9436C324.337 59.9436 322.852 59.6178 321.398 58.9663C319.958 58.3148 318.761 57.3223 317.807 55.989C316.867 54.6557 316.398 52.9739 316.398 50.9436V16.2163ZM351.545 60.2163C348.182 60.2163 345.28 59.4739 342.841 57.989C340.417 56.489 338.545 54.3981 337.227 51.7163C335.924 49.0193 335.273 45.883 335.273 42.3072C335.273 38.7314 335.924 35.5799 337.227 32.8526C338.545 30.1102 340.379 27.9739 342.727 26.4436C345.091 24.8981 347.848 24.1254 351 24.1254C352.818 24.1254 354.614 24.4284 356.386 25.0345C358.159 25.6405 359.773 26.6254 361.227 27.989C362.682 29.3375 363.841 31.1254 364.705 33.3526C365.568 35.5799 366 38.3223 366 41.5799V43.8526H339.091V39.2163H360.545C360.545 37.2466 360.151 35.489 359.364 33.9436C358.591 32.3981 357.485 31.1784 356.045 30.2845C354.621 29.3905 352.939 28.9436 351 28.9436C348.864 28.9436 347.015 29.4739 345.455 30.5345C343.909 31.5799 342.72 32.9436 341.886 34.6254C341.053 36.3072 340.636 38.1102 340.636 40.0345V43.1254C340.636 45.7617 341.091 47.9966 342 49.8299C342.924 51.6481 344.205 53.0345 345.841 53.989C347.477 54.9284 349.379 55.3981 351.545 55.3981C352.955 55.3981 354.227 55.2011 355.364 54.8072C356.515 54.3981 357.508 53.792 358.341 52.989C359.174 52.1708 359.818 51.1557 360.273 49.9436L365.455 51.3981C364.909 53.1557 363.992 54.7011 362.705 56.0345C361.417 57.3527 359.826 58.383 357.932 59.1254C356.038 59.8527 353.909 60.2163 351.545 60.2163Z" fill="white"/>
<path d="M71.4124 31.9742L18.0919 58.016V49.0648M18.0919 49.0648L54.0945 31.4643L18.0919 13.8837V31.2223V49.0648Z" stroke="white"/>
<path d="M10.0459 1V70.8994M10.0459 1L1.99997 7.98994V63.9095L10.0459 70.8994M10.0459 1L71.3966 30.9411V40.9382L10.0459 70.8994" stroke="white"/>
<path d="M18.0212 22.8043L45.0192 35.989" stroke="white"/>
</svg>
