<svg width="361" height="80" viewBox="0 0 361 80" fill="none" xmlns="http://www.w3.org/2000/svg">
<path d="M71.3773 48.9103H62.3773L78.7636 2.36482H89.1727L105.582 48.9103H96.5818L84.15 11.9103H83.7864L71.3773 48.9103ZM71.6727 30.6603H96.2182V37.433H71.6727V30.6603ZM125.514 49.5921C122.029 49.5921 119.036 48.8269 116.536 47.2966C114.052 45.7663 112.135 43.6527 110.786 40.9557C109.453 38.2436 108.786 35.1224 108.786 31.5921C108.786 28.0466 109.468 24.9179 110.832 22.2057C112.195 19.4785 114.12 17.3572 116.605 15.8421C119.105 14.3118 122.059 13.5466 125.468 13.5466C128.302 13.5466 130.809 14.0694 132.991 15.1148C135.188 16.1451 136.938 17.6072 138.241 19.5012C139.544 21.38 140.286 23.5769 140.468 26.0921H132.605C132.286 24.4103 131.529 23.0088 130.332 21.8876C129.15 20.7512 127.567 20.183 125.582 20.183C123.9 20.183 122.423 20.6375 121.15 21.5466C119.877 22.4406 118.885 23.7285 118.173 25.4103C117.476 27.0921 117.127 29.1072 117.127 31.4557C117.127 33.8345 117.476 35.88 118.173 37.5921C118.87 39.2891 119.847 40.5997 121.105 41.5239C122.377 42.433 123.87 42.8876 125.582 42.8876C126.794 42.8876 127.877 42.6603 128.832 42.2057C129.802 41.736 130.612 41.0618 131.264 40.183C131.915 39.3042 132.362 38.236 132.605 36.9785H140.468C140.271 39.4482 139.544 41.6376 138.286 43.5466C137.029 45.4406 135.317 46.9254 133.15 48.0012C130.983 49.0618 128.438 49.5921 125.514 49.5921ZM164.656 14.0012V20.3648H144.587V14.0012H164.656ZM149.542 5.63755H157.769V38.4103C157.769 39.5163 157.936 40.3648 158.269 40.9557C158.618 41.5315 159.072 41.9254 159.633 42.1376C160.194 42.3497 160.815 42.4557 161.497 42.4557C162.012 42.4557 162.481 42.4179 162.906 42.3421C163.345 42.2663 163.678 42.1982 163.906 42.1376L165.292 48.5694C164.853 48.7209 164.224 48.8876 163.406 49.0694C162.603 49.2512 161.618 49.3572 160.451 49.3876C158.391 49.4482 156.534 49.1376 154.883 48.4557C153.231 47.7588 151.921 46.683 150.951 45.2285C149.997 43.7739 149.527 41.9557 149.542 39.7739V5.63755ZM171.536 48.9103V14.0012H179.764V48.9103H171.536ZM175.673 9.04664C174.37 9.04664 173.248 8.61482 172.309 7.75119C171.37 6.8724 170.9 5.81937 170.9 4.59209C170.9 3.34967 171.37 2.29664 172.309 1.433C173.248 0.554216 174.37 0.114822 175.673 0.114822C176.991 0.114822 178.112 0.554216 179.036 1.433C179.976 2.29664 180.445 3.34967 180.445 4.59209C180.445 5.81937 179.976 6.8724 179.036 7.75119C178.112 8.61482 176.991 9.04664 175.673 9.04664ZM203.451 49.5921C200.042 49.5921 197.087 48.8421 194.587 47.3421C192.087 45.8421 190.148 43.7436 188.769 41.0466C187.406 38.3497 186.724 35.1982 186.724 31.5921C186.724 27.986 187.406 24.8269 188.769 22.1148C190.148 19.4027 192.087 17.2966 194.587 15.7966C197.087 14.2966 200.042 13.5466 203.451 13.5466C206.86 13.5466 209.815 14.2966 212.315 15.7966C214.815 17.2966 216.747 19.4027 218.11 22.1148C219.489 24.8269 220.178 27.986 220.178 31.5921C220.178 35.1982 219.489 38.3497 218.11 41.0466C216.747 43.7436 214.815 45.8421 212.315 47.3421C209.815 48.8421 206.86 49.5921 203.451 49.5921ZM203.497 43.0012C205.345 43.0012 206.891 42.4936 208.133 41.4785C209.375 40.4482 210.3 39.0694 210.906 37.3421C211.527 35.6148 211.837 33.6906 211.837 31.5694C211.837 29.433 211.527 27.5012 210.906 25.7739C210.3 24.0315 209.375 22.6451 208.133 21.6148C206.891 20.5845 205.345 20.0694 203.497 20.0694C201.603 20.0694 200.027 20.5845 198.769 21.6148C197.527 22.6451 196.595 24.0315 195.974 25.7739C195.368 27.5012 195.065 29.433 195.065 31.5694C195.065 33.6906 195.368 35.6148 195.974 37.3421C196.595 39.0694 197.527 40.4482 198.769 41.4785C200.027 42.4936 201.603 43.0012 203.497 43.0012ZM235.389 28.4557V48.9103H227.161V14.0012H235.025V19.933H235.434C236.237 17.9785 237.517 16.4254 239.275 15.2739C241.048 14.1224 243.237 13.5466 245.843 13.5466C248.252 13.5466 250.351 14.0618 252.139 15.0921C253.942 16.1224 255.336 17.6148 256.32 19.5694C257.32 21.5239 257.813 23.8951 257.798 26.683V48.9103H249.57V27.9557C249.57 25.6224 248.964 23.7966 247.752 22.4785C246.555 21.1603 244.896 20.5012 242.775 20.5012C241.336 20.5012 240.055 20.8194 238.934 21.4557C237.828 22.0769 236.957 22.9785 236.32 24.1603C235.699 25.3421 235.389 26.7739 235.389 28.4557ZM276.207 49.6148C273.995 49.6148 272.002 49.2209 270.23 48.433C268.472 47.63 267.078 46.4482 266.048 44.8876C265.033 43.3269 264.525 41.4027 264.525 39.1148C264.525 37.1451 264.889 35.5163 265.616 34.2285C266.343 32.9406 267.336 31.9103 268.593 31.1376C269.851 30.3648 271.267 29.7815 272.843 29.3876C274.434 28.9785 276.078 28.683 277.775 28.5012C279.82 28.2891 281.48 28.0997 282.752 27.933C284.025 27.7512 284.949 27.4785 285.525 27.1148C286.116 26.736 286.411 26.1527 286.411 25.3648V25.2285C286.411 23.5163 285.904 22.1906 284.889 21.2512C283.873 20.3118 282.411 19.8421 280.502 19.8421C278.487 19.8421 276.889 20.2815 275.707 21.1603C274.54 22.0391 273.752 23.0769 273.343 24.2739L265.661 23.183C266.267 21.0618 267.267 19.2891 268.661 17.8648C270.055 16.4254 271.76 15.3497 273.775 14.6376C275.79 13.9103 278.017 13.5466 280.457 13.5466C282.139 13.5466 283.813 13.7436 285.48 14.1376C287.146 14.5315 288.669 15.183 290.048 16.0921C291.427 16.986 292.533 18.2057 293.366 19.7512C294.214 21.2966 294.639 23.2285 294.639 25.5466V48.9103H286.73V44.1148H286.457C285.957 45.0845 285.252 45.9936 284.343 46.8421C283.449 47.6754 282.32 48.3497 280.957 48.8648C279.608 49.3648 278.025 49.6148 276.207 49.6148ZM278.343 43.5694C279.995 43.5694 281.427 43.2436 282.639 42.5921C283.851 41.9254 284.783 41.0466 285.434 39.9557C286.101 38.8648 286.434 37.6754 286.434 36.3876V32.2739C286.177 32.486 285.737 32.683 285.116 32.8648C284.51 33.0466 283.828 33.2057 283.07 33.3421C282.313 33.4785 281.563 33.5997 280.82 33.7057C280.078 33.8118 279.434 33.9027 278.889 33.9785C277.661 34.1451 276.563 34.4179 275.593 34.7966C274.623 35.1754 273.858 35.7057 273.298 36.3876C272.737 37.0542 272.457 37.9179 272.457 38.9785C272.457 40.4936 273.01 41.6376 274.116 42.4103C275.222 43.183 276.631 43.5694 278.343 43.5694ZM320.343 14.0012V20.3648H300.275V14.0012H320.343ZM305.23 5.63755H313.457V38.4103C313.457 39.5163 313.623 40.3648 313.957 40.9557C314.305 41.5315 314.76 41.9254 315.32 42.1376C315.881 42.3497 316.502 42.4557 317.184 42.4557C317.699 42.4557 318.169 42.4179 318.593 42.3421C319.033 42.2663 319.366 42.1982 319.593 42.1376L320.98 48.5694C320.54 48.7209 319.911 48.8876 319.093 49.0694C318.29 49.2512 317.305 49.3572 316.139 49.3876C314.078 49.4482 312.222 49.1376 310.57 48.4557C308.919 47.7588 307.608 46.683 306.639 45.2285C305.684 43.7739 305.214 41.9557 305.23 39.7739V5.63755ZM342.303 49.5921C338.803 49.5921 335.781 48.8648 333.235 47.4103C330.705 45.9406 328.758 43.8648 327.394 41.183C326.031 38.486 325.349 35.3118 325.349 31.6603C325.349 28.0694 326.031 24.9179 327.394 22.2057C328.773 19.4785 330.697 17.3572 333.167 15.8421C335.637 14.3118 338.538 13.5466 341.872 13.5466C344.023 13.5466 346.053 13.8951 347.962 14.5921C349.887 15.2739 351.584 16.3345 353.053 17.7739C354.538 19.2133 355.705 21.0466 356.553 23.2739C357.402 25.486 357.826 28.1224 357.826 31.183V33.7057H329.212V28.1603H349.94C349.925 26.5845 349.584 25.183 348.917 23.9557C348.25 22.7133 347.319 21.736 346.122 21.0239C344.94 20.3118 343.561 19.9557 341.985 19.9557C340.303 19.9557 338.826 20.3648 337.553 21.183C336.281 21.986 335.288 23.0466 334.576 24.3648C333.879 25.6679 333.523 27.0997 333.508 28.6603V33.5012C333.508 35.5315 333.879 37.2739 334.622 38.7285C335.364 40.1679 336.402 41.2739 337.735 42.0466C339.069 42.8042 340.629 43.183 342.417 43.183C343.614 43.183 344.697 43.0163 345.667 42.683C346.637 42.3345 347.478 41.8269 348.19 41.1603C348.902 40.4936 349.44 39.6679 349.803 38.683L357.485 39.5466C357 41.5769 356.076 43.3497 354.712 44.8648C353.364 46.3648 351.637 47.5315 349.531 48.3648C347.425 49.183 345.016 49.5921 342.303 49.5921Z" fill="white"/>
<path d="M50.0387 21.9448L13.259 39.9092V33.8021M13.259 33.8021L37.8223 21.7938L13.259 9.79919V21.6288V33.8021Z" stroke="white" stroke-width="1.5"/>
<path d="M7.76953 1.00903V48.699M7.76953 1.00903L2.28003 5.77803V43.93L7.76953 48.699M7.76953 1.00903L49.627 21.4368V28.2575L7.76953 48.699" stroke="white" stroke-width="1.5"/>
<path d="M13.2108 15.8853L31.6306 24.8807" stroke="white" stroke-width="1.5"/>
<path d="M13.4406 67.515C13.2637 66.9734 13.0304 66.4881 12.7408 66.0591C12.4566 65.6248 12.1161 65.2548 11.7193 64.9491C11.3279 64.6435 10.8828 64.4102 10.3841 64.2494C9.88546 64.0885 9.33851 64.0081 8.74331 64.0081C7.76738 64.0081 6.87994 64.2601 6.08097 64.7641C5.282 65.2682 4.64657 66.0109 4.1747 66.9922C3.70283 67.9734 3.46689 69.1773 3.46689 70.6036C3.46689 72.03 3.70551 73.2338 4.18274 74.2151C4.65998 75.1963 5.30613 75.939 6.12118 76.4431C6.93624 76.9471 7.85318 77.1991 8.872 77.1991C9.81575 77.1991 10.6469 76.998 11.3654 76.5959C12.0893 76.1884 12.6524 75.6146 13.0545 74.8746C13.4621 74.1293 13.6658 73.2525 13.6658 72.2444L14.2771 72.3731H9.32243V70.6036H15.5962V72.3731C15.5962 73.7298 15.3067 74.9095 14.7275 75.9122C14.1538 76.9149 13.3602 77.6925 12.3467 78.2448C11.3386 78.7917 10.1804 79.0652 8.872 79.0652C7.41348 79.0652 6.13191 78.722 5.02729 78.0356C3.92804 77.3493 3.07008 76.3733 2.45343 75.1079C1.84214 73.8424 1.53649 72.341 1.53649 70.6036C1.53649 69.3006 1.71076 68.1289 2.05931 67.0887C2.41321 66.043 2.9119 65.1529 3.55536 64.4183C4.19883 63.6837 4.96026 63.1206 5.83967 62.7292C6.71907 62.3377 7.68695 62.142 8.74331 62.142C9.61199 62.142 10.4217 62.2734 11.1724 62.5361C11.9285 62.7935 12.6014 63.1608 13.1913 63.6381C13.7865 64.11 14.2825 64.6757 14.6793 65.3352C15.0761 65.9894 15.3496 66.716 15.4997 67.515H13.4406ZM19.5294 78.84V66.4854H21.4276V78.84H19.5294ZM20.4946 64.4263C20.1246 64.4263 19.8056 64.3003 19.5374 64.0483C19.2747 63.7963 19.1433 63.4933 19.1433 63.1394C19.1433 62.7855 19.2747 62.4825 19.5374 62.2305C19.8056 61.9785 20.1246 61.8525 20.4946 61.8525C20.8646 61.8525 21.181 61.9785 21.4437 62.2305C21.7118 62.4825 21.8459 62.7855 21.8459 63.1394C21.8459 63.4933 21.7118 63.7963 21.4437 64.0483C21.181 64.3003 20.8646 64.4263 20.4946 64.4263ZM30.2773 66.4854V68.0941H23.8748V66.4854H30.2773ZM25.7409 63.5255H27.6391V75.3009C27.6391 75.8371 27.7168 76.2393 27.8723 76.5074C28.0332 76.7702 28.237 76.9471 28.4836 77.0383C28.7357 77.1241 29.0011 77.167 29.2799 77.167C29.4891 77.167 29.6606 77.1562 29.7947 77.1348C29.9288 77.108 30.036 77.0865 30.1164 77.0704L30.5025 78.7756C30.3738 78.8239 30.1942 78.8721 29.9636 78.9204C29.733 78.974 29.4408 79.0008 29.0869 79.0008C28.5507 79.0008 28.0252 78.8855 27.5104 78.655C27.001 78.4244 26.5774 78.0732 26.2395 77.6013C25.9071 77.1294 25.7409 76.5342 25.7409 75.8157V63.5255ZM33.6555 78.84V62.3672H35.6502V69.7028H44.4335V62.3672H46.4283V78.84H44.4335V71.4723H35.6502V78.84H33.6555ZM57.9504 73.7888V66.4854H59.8486V78.84H57.9504V76.7487H57.8217C57.5321 77.3761 57.0817 77.9096 56.4704 78.3493C55.8591 78.7837 55.0869 79.0008 54.1539 79.0008C53.3817 79.0008 52.6954 78.8319 52.0948 78.4941C51.4942 78.1509 51.0224 77.6361 50.6792 76.9498C50.336 76.2581 50.1644 75.3867 50.1644 74.3357V66.4854H52.0626V74.207C52.0626 75.1079 52.3147 75.8264 52.8187 76.3626C53.3281 76.8988 53.9769 77.167 54.7652 77.167C55.2371 77.167 55.717 77.0463 56.2049 76.805C56.6983 76.5637 57.1112 76.1937 57.4436 75.695C57.7814 75.1963 57.9504 74.5609 57.9504 73.7888ZM63.5827 78.84V62.3672H65.4809V68.448H65.6418C65.7812 68.2335 65.9742 67.96 66.2209 67.6276C66.4729 67.2898 66.8322 66.9895 67.2987 66.7267C67.7706 66.4586 68.4087 66.3246 69.213 66.3246C70.2533 66.3246 71.1702 66.5846 71.9638 67.1048C72.7574 67.6249 73.3768 68.3622 73.8218 69.3167C74.2669 70.2711 74.4894 71.3972 74.4894 72.6949C74.4894 74.0032 74.2669 75.1374 73.8218 76.0972C73.3768 77.0517 72.7601 77.7917 71.9719 78.3171C71.1836 78.8373 70.2747 79.0974 69.2452 79.0974C68.4516 79.0974 67.8162 78.966 67.3389 78.7032C66.8617 78.4351 66.4944 78.1322 66.237 77.7943C65.9796 77.4512 65.7812 77.167 65.6418 76.9417H65.4166V78.84H63.5827ZM65.4487 72.6627C65.4487 73.5957 65.5855 74.4188 65.8589 75.132C66.1324 75.8398 66.5319 76.3948 67.0574 76.797C67.5829 77.1938 68.2264 77.3922 68.9878 77.3922C69.7814 77.3922 70.4436 77.183 70.9745 76.7648C71.5107 76.3412 71.9129 75.7728 72.181 75.0596C72.4545 74.3411 72.5912 73.5421 72.5912 72.6627C72.5912 71.794 72.4572 71.0111 72.189 70.314C71.9263 69.6116 71.5268 69.0566 70.9906 68.6491C70.4597 68.2362 69.7921 68.0297 68.9878 68.0297C68.2156 68.0297 67.5668 68.2255 67.0413 68.6169C66.5158 69.003 66.119 69.5446 65.8509 70.2417C65.5828 70.9334 65.4487 71.7404 65.4487 72.6627ZM84.6964 78.84H82.6052L88.6537 62.3672H90.7128L96.7614 78.84H94.6701L89.7476 64.9733H89.6189L84.6964 78.84ZM85.4686 72.4053H93.898V74.1748H85.4686V72.4053ZM104.089 79.0974C102.931 79.0974 101.933 78.8239 101.097 78.2769C100.26 77.73 99.6168 76.9766 99.1664 76.0168C98.7159 75.0569 98.4907 73.9603 98.4907 72.727C98.4907 71.4723 98.7213 70.365 99.1824 69.4051C99.649 68.4399 100.298 67.6866 101.129 67.145C101.965 66.598 102.941 66.3246 104.057 66.3246C104.925 66.3246 105.708 66.4854 106.405 66.8072C107.102 67.1289 107.674 67.5793 108.119 68.1584C108.564 68.7376 108.84 69.4132 108.947 70.1853H107.049C106.904 69.6223 106.582 69.1236 106.084 68.6893C105.59 68.2496 104.925 68.0297 104.089 68.0297C103.349 68.0297 102.7 68.2228 102.142 68.6089C101.59 68.9896 101.158 69.5285 100.847 70.2256C100.542 70.9173 100.389 71.7297 100.389 72.6627C100.389 73.6172 100.539 74.4483 100.839 75.1561C101.145 75.8639 101.574 76.4136 102.126 76.805C102.684 77.1964 103.338 77.3922 104.089 77.3922C104.582 77.3922 105.03 77.3064 105.432 77.1348C105.834 76.9632 106.175 76.7165 106.454 76.3948C106.732 76.0731 106.931 75.687 107.049 75.2366H108.947C108.84 75.9658 108.574 76.6227 108.151 77.2072C107.732 77.7863 107.178 78.2474 106.486 78.5906C105.799 78.9284 105 79.0974 104.089 79.0974ZM117.095 66.4854V68.0941H110.692V66.4854H117.095ZM112.558 63.5255H114.457V75.3009C114.457 75.8371 114.534 76.2393 114.69 76.5074C114.851 76.7702 115.055 76.9471 115.301 77.0383C115.553 77.1241 115.819 77.167 116.098 77.167C116.307 77.167 116.478 77.1562 116.612 77.1348C116.746 77.108 116.854 77.0865 116.934 77.0704L117.32 78.7756C117.191 78.8239 117.012 78.8721 116.781 78.9204C116.551 78.974 116.258 79.0008 115.905 79.0008C115.368 79.0008 114.843 78.8855 114.328 78.655C113.819 78.4244 113.395 78.0732 113.057 77.6013C112.725 77.1294 112.558 76.5342 112.558 75.8157V63.5255ZM119.95 78.84V66.4854H121.849V78.84H119.95ZM120.916 64.4263C120.546 64.4263 120.226 64.3003 119.958 64.0483C119.696 63.7963 119.564 63.4933 119.564 63.1394C119.564 62.7855 119.696 62.4825 119.958 62.2305C120.226 61.9785 120.546 61.8525 120.916 61.8525C121.285 61.8525 121.602 61.9785 121.865 62.2305C122.133 62.4825 122.267 62.7855 122.267 63.1394C122.267 63.4933 122.133 63.7963 121.865 64.0483C121.602 64.3003 121.285 64.4263 120.916 64.4263ZM130.344 79.0974C129.229 79.0974 128.25 78.8319 127.408 78.3011C126.572 77.7702 125.918 77.0275 125.446 76.0731C124.979 75.1186 124.746 74.0032 124.746 72.727C124.746 71.4401 124.979 70.3167 125.446 69.3569C125.918 68.397 126.572 67.6517 127.408 67.1208C128.25 66.59 129.229 66.3246 130.344 66.3246C131.46 66.3246 132.436 66.59 133.272 67.1208C134.114 67.6517 134.768 68.397 135.235 69.3569C135.706 70.3167 135.942 71.4401 135.942 72.727C135.942 74.0032 135.706 75.1186 135.235 76.0731C134.768 77.0275 134.114 77.7702 133.272 78.3011C132.436 78.8319 131.46 79.0974 130.344 79.0974ZM130.344 77.3922C131.192 77.3922 131.889 77.175 132.436 76.7407C132.982 76.3063 133.387 75.7352 133.65 75.0274C133.913 74.3196 134.044 73.5528 134.044 72.727C134.044 71.9013 133.913 71.1318 133.65 70.4186C133.387 69.7054 132.982 69.129 132.436 68.6893C131.889 68.2496 131.192 68.0297 130.344 68.0297C129.497 68.0297 128.8 68.2496 128.253 68.6893C127.706 69.129 127.301 69.7054 127.038 70.4186C126.776 71.1318 126.644 71.9013 126.644 72.727C126.644 73.5528 126.776 74.3196 127.038 75.0274C127.301 75.7352 127.706 76.3063 128.253 76.7407C128.8 77.175 129.497 77.3922 130.344 77.3922ZM140.738 71.4079V78.84H138.84V66.4854H140.674V68.4158H140.835C141.124 67.7884 141.564 67.2844 142.154 66.9037C142.744 66.5176 143.505 66.3246 144.438 66.3246C145.275 66.3246 146.007 66.4961 146.634 66.8393C147.261 67.1771 147.749 67.6919 148.098 68.3836C148.446 69.07 148.621 69.9387 148.621 70.9897V78.84H146.723V71.1184C146.723 70.1478 146.47 69.3917 145.966 68.8502C145.462 68.3032 144.771 68.0297 143.891 68.0297C143.285 68.0297 142.744 68.1611 142.267 68.4239C141.795 68.6866 141.422 69.07 141.148 69.5741C140.875 70.0781 140.738 70.6894 140.738 71.4079ZM160.841 69.2523L159.135 69.7349C159.028 69.4507 158.87 69.1746 158.661 68.9065C158.457 68.633 158.178 68.4078 157.824 68.2308C157.47 68.0539 157.017 67.9654 156.465 67.9654C155.709 67.9654 155.079 68.1397 154.575 68.4882C154.076 68.8314 153.827 69.2684 153.827 69.7993C153.827 70.2711 153.998 70.6438 154.342 70.9173C154.685 71.1908 155.221 71.4187 155.95 71.601L157.784 72.0514C158.889 72.3195 159.712 72.7297 160.253 73.282C160.795 73.829 161.066 74.5341 161.066 75.3974C161.066 76.1052 160.862 76.738 160.454 77.2956C160.052 77.8533 159.489 78.293 158.765 78.6148C158.041 78.9365 157.2 79.0974 156.24 79.0974C154.98 79.0974 153.937 78.8239 153.111 78.2769C152.285 77.73 151.762 76.931 151.542 75.88L153.344 75.4296C153.516 76.0945 153.84 76.5932 154.317 76.9257C154.8 77.2581 155.43 77.4243 156.208 77.4243C157.092 77.4243 157.795 77.2367 158.315 76.8613C158.84 76.4806 159.103 76.0248 159.103 75.4939C159.103 75.065 158.953 74.7057 158.653 74.4161C158.352 74.1212 157.891 73.9014 157.269 73.7566L155.21 73.274C154.079 73.0059 153.248 72.5903 152.717 72.0273C152.191 71.4589 151.929 70.7484 151.929 69.8958C151.929 69.1987 152.124 68.582 152.516 68.0458C152.913 67.5096 153.451 67.0887 154.132 66.783C154.819 66.4774 155.596 66.3246 156.465 66.3246C157.688 66.3246 158.647 66.5927 159.344 67.1289C160.047 67.6651 160.546 68.3729 160.841 69.2523ZM175.795 66.4854V68.0941H169.135V66.4854H175.795ZM171.13 78.84V64.7802C171.13 64.0724 171.296 63.4826 171.629 63.0107C171.961 62.5388 172.393 62.1849 172.924 61.949C173.454 61.713 174.015 61.5951 174.605 61.5951C175.071 61.5951 175.452 61.6326 175.747 61.7077C176.042 61.7828 176.262 61.8525 176.406 61.9168L175.859 63.5577C175.763 63.5255 175.629 63.4853 175.457 63.437C175.291 63.3887 175.071 63.3646 174.798 63.3646C174.17 63.3646 173.717 63.5228 173.438 63.8392C173.165 64.1555 173.028 64.6194 173.028 65.2307V78.84H171.13ZM182.966 79.0974C181.85 79.0974 180.872 78.8319 180.03 78.3011C179.193 77.7702 178.539 77.0275 178.067 76.0731C177.601 75.1186 177.368 74.0032 177.368 72.727C177.368 71.4401 177.601 70.3167 178.067 69.3569C178.539 68.397 179.193 67.6517 180.03 67.1208C180.872 66.59 181.85 66.3246 182.966 66.3246C184.081 66.3246 185.057 66.59 185.893 67.1208C186.735 67.6517 187.39 68.397 187.856 69.3569C188.328 70.3167 188.564 71.4401 188.564 72.727C188.564 74.0032 188.328 75.1186 187.856 76.0731C187.39 77.0275 186.735 77.7702 185.893 78.3011C185.057 78.8319 184.081 79.0974 182.966 79.0974ZM182.966 77.3922C183.813 77.3922 184.51 77.175 185.057 76.7407C185.604 76.3063 186.009 75.7352 186.272 75.0274C186.534 74.3196 186.666 73.5528 186.666 72.727C186.666 71.9013 186.534 71.1318 186.272 70.4186C186.009 69.7054 185.604 69.129 185.057 68.6893C184.51 68.2496 183.813 68.0297 182.966 68.0297C182.118 68.0297 181.421 68.2496 180.874 68.6893C180.328 69.129 179.923 69.7054 179.66 70.4186C179.397 71.1318 179.266 71.9013 179.266 72.727C179.266 73.5528 179.397 74.3196 179.66 75.0274C179.923 75.7352 180.328 76.3063 180.874 76.7407C181.421 77.175 182.118 77.3922 182.966 77.3922ZM191.461 78.84V66.4854H193.295V68.3515H193.424C193.649 67.7402 194.057 67.2442 194.647 66.8635C195.236 66.4827 195.901 66.2924 196.641 66.2924C196.781 66.2924 196.955 66.2951 197.164 66.3004C197.373 66.3058 197.532 66.3138 197.639 66.3246V68.255C197.574 68.2389 197.427 68.2147 197.196 68.1826C196.971 68.145 196.733 68.1263 196.481 68.1263C195.88 68.1263 195.344 68.2523 194.872 68.5043C194.405 68.751 194.035 69.0941 193.762 69.5338C193.494 69.9682 193.36 70.4642 193.36 71.0219V78.84H191.461ZM212.823 62.3672H214.817V74.1427C214.817 75.1937 214.624 76.0865 214.238 76.8211C213.852 77.5557 213.308 78.1134 212.605 78.4941C211.903 78.8748 211.074 79.0652 210.12 79.0652C209.219 79.0652 208.417 78.9016 207.715 78.5745C207.013 78.2421 206.46 77.7702 206.058 77.1589C205.656 76.5476 205.455 75.821 205.455 74.9792H207.417C207.417 75.4457 207.533 75.8532 207.763 76.2018C207.999 76.5449 208.321 76.813 208.728 77.0061C209.136 77.1991 209.6 77.2956 210.12 77.2956C210.694 77.2956 211.182 77.175 211.584 76.9337C211.986 76.6924 212.292 76.3385 212.501 75.872C212.715 75.4001 212.823 74.8237 212.823 74.1427V62.3672ZM223.737 79.0974C222.547 79.0974 221.52 78.8346 220.657 78.3091C219.799 77.7782 219.137 77.0383 218.67 76.0891C218.209 75.1347 217.978 74.0247 217.978 72.7592C217.978 71.4937 218.209 70.3784 218.67 69.4132C219.137 68.4426 219.785 67.6866 220.617 67.145C221.453 66.598 222.429 66.3246 223.544 66.3246C224.188 66.3246 224.823 66.4318 225.451 66.6463C226.078 66.8608 226.649 67.2093 227.164 67.6919C227.679 68.1692 228.089 68.8019 228.394 69.5901C228.7 70.3784 228.853 71.3489 228.853 72.5018V73.3062H219.33V71.6653H226.922C226.922 70.9682 226.783 70.3462 226.504 69.7993C226.231 69.2523 225.839 68.8207 225.33 68.5043C224.826 68.1879 224.231 68.0297 223.544 68.0297C222.788 68.0297 222.134 68.2174 221.582 68.5928C221.035 68.9628 220.614 69.4454 220.319 70.0406C220.024 70.6358 219.877 71.2739 219.877 71.9549V73.0488C219.877 73.9818 220.037 74.7727 220.359 75.4216C220.686 76.065 221.139 76.5557 221.718 76.8935C222.298 77.2259 222.971 77.3922 223.737 77.3922C224.236 77.3922 224.686 77.3225 225.089 77.183C225.496 77.0383 225.847 76.8238 226.142 76.5396C226.437 76.25 226.665 75.8907 226.826 75.4618L228.66 75.9765C228.467 76.5986 228.142 77.1455 227.687 77.6174C227.231 78.0839 226.668 78.4485 225.998 78.7113C225.327 78.9687 224.574 79.0974 223.737 79.0974ZM237.113 66.4854V68.0941H230.711V66.4854H237.113ZM232.577 63.5255H234.475V75.3009C234.475 75.8371 234.553 76.2393 234.708 76.5074C234.869 76.7702 235.073 76.9471 235.32 77.0383C235.572 77.1241 235.837 77.167 236.116 77.167C236.325 77.167 236.497 77.1562 236.631 77.1348C236.765 77.108 236.872 77.0865 236.953 77.0704L237.339 78.7756C237.21 78.8239 237.03 78.8721 236.8 78.9204C236.569 78.974 236.277 79.0008 235.923 79.0008C235.387 79.0008 234.861 78.8855 234.346 78.655C233.837 78.4244 233.413 78.0732 233.076 77.6013C232.743 77.1294 232.577 76.5342 232.577 75.8157V63.5255ZM240.492 78.84V62.3672H246.251C247.398 62.3672 248.345 62.5656 249.09 62.9624C249.835 63.3539 250.39 63.8821 250.755 64.547C251.119 65.2065 251.302 65.9385 251.302 66.7428C251.302 67.4506 251.176 68.0351 250.924 68.4963C250.677 68.9574 250.35 69.322 249.942 69.5901C249.54 69.8583 249.103 70.0567 248.631 70.1853V70.3462C249.135 70.3784 249.642 70.5553 250.152 70.8771C250.661 71.1988 251.087 71.66 251.43 72.2605C251.774 72.8611 251.945 73.5957 251.945 74.4644C251.945 75.2902 251.758 76.0328 251.382 76.6924C251.007 77.352 250.414 77.8748 249.605 78.2608C248.795 78.6469 247.741 78.84 246.444 78.84H240.492ZM242.486 77.0704H246.444C247.747 77.0704 248.672 76.8184 249.219 76.3144C249.771 75.805 250.047 75.1883 250.047 74.4644C250.047 73.9067 249.905 73.392 249.621 72.9201C249.337 72.4428 248.932 72.0621 248.406 71.7779C247.881 71.4884 247.259 71.3436 246.54 71.3436H242.486V77.0704ZM242.486 69.6062H246.186C246.787 69.6062 247.328 69.4883 247.811 69.2523C248.299 69.0164 248.685 68.6839 248.969 68.255C249.259 67.826 249.404 67.3219 249.404 66.7428C249.404 66.0189 249.152 65.4049 248.648 64.9009C248.143 64.3915 247.344 64.1368 246.251 64.1368H242.486V69.6062ZM254.966 78.84V66.4854H256.799V68.3515H256.928C257.153 67.7402 257.561 67.2442 258.151 66.8635C258.741 66.4827 259.405 66.2924 260.145 66.2924C260.285 66.2924 260.459 66.2951 260.668 66.3004C260.877 66.3058 261.036 66.3138 261.143 66.3246V68.255C261.078 68.2389 260.931 68.2147 260.7 68.1826C260.475 68.145 260.237 68.1263 259.985 68.1263C259.384 68.1263 258.848 68.2523 258.376 68.5043C257.909 68.751 257.539 69.0941 257.266 69.5338C256.998 69.9682 256.864 70.4642 256.864 71.0219V78.84H254.966ZM267.029 79.1295C266.246 79.1295 265.535 78.9821 264.897 78.6871C264.259 78.3869 263.752 77.9552 263.377 77.3922C263.001 76.8238 262.814 76.1374 262.814 75.3331C262.814 74.6253 262.953 74.0515 263.232 73.6118C263.511 73.1667 263.884 72.8182 264.35 72.5662C264.817 72.3141 265.331 72.1265 265.894 72.0031C266.463 71.8744 267.034 71.7726 267.608 71.6975C268.358 71.601 268.967 71.5286 269.433 71.4803C269.905 71.4267 270.249 71.3382 270.463 71.2149C270.683 71.0916 270.793 70.8771 270.793 70.5714V70.5071C270.793 69.7135 270.576 69.0968 270.141 68.6571C269.712 68.2174 269.061 67.9976 268.187 67.9976C267.281 67.9976 266.57 68.196 266.055 68.5928C265.541 68.9896 265.179 69.4132 264.969 69.8636L263.168 69.2202C263.489 68.4694 263.918 67.885 264.455 67.4667C264.996 67.0431 265.586 66.7482 266.224 66.5819C266.868 66.4103 267.5 66.3246 268.122 66.3246C268.519 66.3246 268.975 66.3728 269.49 66.4693C270.01 66.5605 270.511 66.7508 270.994 67.0404C271.482 67.33 271.887 67.767 272.208 68.3515C272.53 68.936 272.691 69.7188 272.691 70.7001V78.84H270.793V77.167H270.696C270.568 77.4351 270.353 77.7219 270.053 78.0276C269.753 78.3332 269.353 78.5933 268.854 78.8078C268.356 79.0223 267.747 79.1295 267.029 79.1295ZM267.318 77.4243C268.069 77.4243 268.702 77.2769 269.216 76.982C269.736 76.687 270.128 76.3063 270.391 75.8398C270.659 75.3733 270.793 74.8827 270.793 74.3679V72.6305C270.712 72.727 270.535 72.8155 270.262 72.8959C269.994 72.971 269.683 73.038 269.329 73.097C268.98 73.1507 268.64 73.1989 268.307 73.2418C267.98 73.2793 267.715 73.3115 267.511 73.3383C267.018 73.4027 266.557 73.5072 266.128 73.652C265.704 73.7914 265.361 74.0032 265.098 74.2874C264.841 74.5663 264.712 74.947 264.712 75.4296C264.712 76.0891 264.956 76.5878 265.444 76.9257C265.937 77.2581 266.562 77.4243 267.318 77.4243ZM276.156 78.84V66.4854H278.054V78.84H276.156ZM277.121 64.4263C276.751 64.4263 276.432 64.3003 276.164 64.0483C275.901 63.7963 275.77 63.4933 275.77 63.1394C275.77 62.7855 275.901 62.4825 276.164 62.2305C276.432 61.9785 276.751 61.8525 277.121 61.8525C277.491 61.8525 277.807 61.9785 278.07 62.2305C278.338 62.4825 278.472 62.7855 278.472 63.1394C278.472 63.4933 278.338 63.7963 278.07 64.0483C277.807 64.3003 277.491 64.4263 277.121 64.4263ZM283.429 71.4079V78.84H281.531V66.4854H283.365V68.4158H283.525C283.815 67.7884 284.255 67.2844 284.844 66.9037C285.434 66.5176 286.196 66.3246 287.129 66.3246C287.965 66.3246 288.697 66.4961 289.325 66.8393C289.952 67.1771 290.44 67.6919 290.788 68.3836C291.137 69.07 291.311 69.9387 291.311 70.9897V78.84H289.413V71.1184C289.413 70.1478 289.161 69.3917 288.657 68.8502C288.153 68.3032 287.461 68.0297 286.582 68.0297C285.976 68.0297 285.434 68.1611 284.957 68.4239C284.485 68.6866 284.113 69.07 283.839 69.5741C283.566 70.0781 283.429 70.6894 283.429 71.4079ZM303.531 69.2523L301.826 69.7349C301.719 69.4507 301.561 69.1746 301.351 68.9065C301.148 68.633 300.869 68.4078 300.515 68.2308C300.161 68.0539 299.708 67.9654 299.156 67.9654C298.399 67.9654 297.769 68.1397 297.265 68.4882C296.767 68.8314 296.517 69.2684 296.517 69.7993C296.517 70.2711 296.689 70.6438 297.032 70.9173C297.375 71.1908 297.912 71.4187 298.641 71.601L300.475 72.0514C301.579 72.3195 302.402 72.7297 302.944 73.282C303.486 73.829 303.756 74.5341 303.756 75.3974C303.756 76.1052 303.553 76.738 303.145 77.2956C302.743 77.8533 302.18 78.293 301.456 78.6148C300.732 78.9365 299.89 79.0974 298.93 79.0974C297.67 79.0974 296.627 78.8239 295.801 78.2769C294.976 77.73 294.453 76.931 294.233 75.88L296.035 75.4296C296.206 76.0945 296.531 76.5932 297.008 76.9257C297.491 77.2581 298.121 77.4243 298.898 77.4243C299.783 77.4243 300.485 77.2367 301.006 76.8613C301.531 76.4806 301.794 76.0248 301.794 75.4939C301.794 75.065 301.644 74.7057 301.343 74.4161C301.043 74.1212 300.582 73.9014 299.96 73.7566L297.901 73.274C296.769 73.0059 295.938 72.5903 295.407 72.0273C294.882 71.4589 294.619 70.7484 294.619 69.8958C294.619 69.1987 294.815 68.582 295.206 68.0458C295.603 67.5096 296.142 67.0887 296.823 66.783C297.509 66.4774 298.287 66.3246 299.156 66.3246C300.378 66.3246 301.338 66.5927 302.035 67.1289C302.738 67.6651 303.236 68.3729 303.531 69.2523ZM315.236 62.3672V78.84H313.241V62.3672H315.236ZM324.319 78.84H319.236V62.3672H324.544C326.142 62.3672 327.51 62.697 328.646 63.3566C329.783 64.0108 330.655 64.9518 331.26 66.1798C331.866 67.4024 332.169 68.8662 332.169 70.5714C332.169 72.2873 331.864 73.7646 331.252 75.0033C330.641 76.2366 329.751 77.1857 328.582 77.8506C327.413 78.5102 325.992 78.84 324.319 78.84ZM321.23 77.0704H324.19C325.552 77.0704 326.681 76.8077 327.577 76.2822C328.472 75.7567 329.14 75.0087 329.579 74.0381C330.019 73.0675 330.239 71.912 330.239 70.5714C330.239 69.2416 330.022 68.0968 329.587 67.1369C329.153 66.1717 328.504 65.4317 327.641 64.917C326.778 64.3968 325.703 64.1368 324.416 64.1368H321.23V77.0704ZM335.515 78.84V62.3672H345.457V64.1368H337.51V69.7028H344.942V71.4723H337.51V77.0704H345.586V78.84H335.515ZM357.546 69.2523L355.841 69.7349C355.734 69.4507 355.575 69.1746 355.366 68.9065C355.163 68.633 354.884 68.4078 354.53 68.2308C354.176 68.0539 353.723 67.9654 353.17 67.9654C352.414 67.9654 351.784 68.1397 351.28 68.4882C350.782 68.8314 350.532 69.2684 350.532 69.7993C350.532 70.2711 350.704 70.6438 351.047 70.9173C351.39 71.1908 351.926 71.4187 352.656 71.601L354.49 72.0514C355.594 72.3195 356.417 72.7297 356.959 73.282C357.5 73.829 357.771 74.5341 357.771 75.3974C357.771 76.1052 357.567 76.738 357.16 77.2956C356.758 77.8533 356.195 78.293 355.471 78.6148C354.747 78.9365 353.905 79.0974 352.945 79.0974C351.685 79.0974 350.642 78.8239 349.816 78.2769C348.991 77.73 348.468 76.931 348.248 75.88L350.05 75.4296C350.221 76.0945 350.546 76.5932 351.023 76.9257C351.506 77.2581 352.136 77.4243 352.913 77.4243C353.798 77.4243 354.5 77.2367 355.02 76.8613C355.546 76.4806 355.809 76.0248 355.809 75.4939C355.809 75.065 355.659 74.7057 355.358 74.4161C355.058 74.1212 354.597 73.9014 353.975 73.7566L351.916 73.274C350.784 73.0059 349.953 72.5903 349.422 72.0273C348.897 71.4589 348.634 70.7484 348.634 69.8958C348.634 69.1987 348.83 68.582 349.221 68.0458C349.618 67.5096 350.157 67.0887 350.838 66.783C351.524 66.4774 352.302 66.3246 353.17 66.3246C354.393 66.3246 355.353 66.5927 356.05 67.1289C356.752 67.6651 357.251 68.3729 357.546 69.2523Z" fill="white"/>
</svg>
